#Produced by Art of Illusion 2.9.2, Tue Apr 09 10:05:47 EDT 2013
g latch_4
v -47.69462 1.83772 2
v -47.69462 1.83772 -2
v -47.69462 5.83772 2
v -47.69462 5.83772 -2
v -51.69462 5.83772 -2
v -51.69462 5.83772 2
v -47.69462 3.83772 0
v -49.69462 3.83772 -2
v -51.69462 3.83772 -2
v -49.69462 3.83772 2
v -49.69462 1.83772 2
v -49.69462 5.83772 0
v -49.69462 1.83772 -2
v -51.69462 3.83772 2
v -49.69462 2.83772 0
v -50.69462 3.83772 0
v -50.37159 5.83772 -2
v -51.69462 4.64646 -2
v -50.37159 5.83772 2
v -51.69462 4.64646 2
vn 0 -1 0
vn -0 0 1
vn -0 0 1
vn 1 0 0
vn 1 0 0
vn 0 -1 0
vn 0 -1 0
vn 0 0 -1
vn 0 0 -1
vn 1 0 0
vn 1 0 0
vn 1 0 0
vn 1 0 0
vn -0 0 1
vn -0 0 1
vn 0 1 0
vn 0 1 0
vn 0 0 -1
vn 0 0 -1
vn 0 1 0
vn 0 1 0
vn 1 0 0
vn 1 0 0
vn 0 0 0
vn 0 0 0
vn 1 0 0
vn 1 0 0
vn 1 0 0
vn 1 0 0
vn 0 0 -1
vn 0 0 -1
vn -1 0 -0
vn -1 0 -0
vn 0 -1 0
vn 0 -1 0
vn 0 0 -1
vn 0 0 -1
vn 0 -1 0
vn 0 -1 0
vn 0 0 -1
vn -1 -0 -0
vn -0 0 1
vn -0 0 1
vn -0 0 1
vn 0 -1 0
vn 0 -1 0
vn -1 0 -0
vn -1 -0 0
vn -0 0 1
vn 0 -1 0
vn -0 0 1
vn -1 -0 0
vn -1 -0 0
vn 0 -1 0
vn 0 1 0
vn 0 1 0
vn 0 1 0
vn 0 1 0
vn 0 -1 0
vn -1 -0 0
vn -1 0 -0
vn 0 0 -1
vn 0 -1 0
vn 0 -1 0
vn -0 0 1
vn -1 -0 -0
vn -1 -0 0
vn -1 -0 0
vn -1 0 -0
vn -1 0 -0
vn 0 -1 0
vn 0 -1 0
vn 0 -1 0
vn 0 -1 0
vn 0 0 -1
vn 0 1 0
vn 0 1 0
vn -0.66913 0.74314 -0
vn 0 0 -1
vn 0 0 -1
vn -1 -0 -0
vn -0.66913 0.74314 -0
vn 0 1 0
vn -0.66913 0.74314 -0
vn -0 0 1
vn -0 0 1
vn 0 1 0
vn -0 0 1
vn -0.66913 0.74314 -0
vn -1 -0 -0
f 2//6 1//1 11//50
f 4//18 2//9 8//30
f 1//5 2//11 7//26
f 2//10 4//23 7//27
f 4//22 3//12 7//28
f 3//13 1//4 7//29
f 1//3 3//14 10//42
f 3//17 4//21 12//55
f 13//59 2//7 11//54
f 13//60 11//53 15//67
f 2//8 13//62 8//31
f 11//51 1//2 10//49
f 14//63 9//38 16//71
f 8//32 13//61 15//70
f 10//47 8//33 15//69
f 11//52 10//48 15//68
f 10//45 14//64 16//74
f 8//34 10//46 16//73
f 9//39 8//35 16//72
f 8//37 18//79 17//75
f 8//37 17//75 4//19
f 17//77 19//83 12//57
f 3//15 19//86 10//43
f 9//41 14//66 20//90
f 4//20 17//76 12//56
f 18//81 9//41 20//90
f 12//58 19//87 3//16
f 17//78 18//82 19//84
f 19//84 18//82 20//89
f 9//40 18//80 8//36
f 10//44 19//85 20//88
f 10//44 20//88 14//65
g latch_3
v 47.87821 1.83772 -2
v 47.87821 1.83772 2
v 47.87821 5.83772 -2
v 47.87821 5.83772 2
v 51.87821 5.83772 2
v 51.87821 5.83772 -2
v 47.87821 3.83772 0
v 49.87821 3.83772 2
v 51.87821 3.83772 2
v 49.87821 3.83772 -2
v 49.87821 1.83772 -2
v 49.87821 5.83772 0
v 49.87821 1.83772 2
v 51.87821 3.83772 -2
v 49.87821 2.83772 0
v 50.87821 3.83772 0
v 50.55517 5.83772 2
v 51.87821 4.64646 2
v 50.55517 5.83772 -2
v 51.87821 4.64646 -2
vn 0 -1 0
vn -0 0 -1
vn -0 0 -1
vn -1 0 0
vn -1 0 0
vn 0 -1 0
vn 0 -1 0
vn 0 0 1
vn 0 0 1
vn -1 0 0
vn -1 0 0
vn -1 0 0
vn -1 0 0
vn -0 0 -1
vn -0 0 -1
vn 0 1 0
vn 0 1 0
vn 0 0 1
vn 0 0 1
vn 0 1 0
vn 0 1 0
vn -1 0 0
vn -1 0 0
vn 0 0 0
vn 0 0 0
vn -1 0 0
vn -1 0 0
vn -1 0 0
vn -1 0 0
vn 0 0 1
vn 0 0 1
vn 1 0 -0
vn 1 0 -0
vn 0 -1 0
vn 0 -1 0
vn 0 0 1
vn 0 0 1
vn 0 -1 0
vn 0 -1 0
vn 0 0 1
vn 1 -0 -0
vn -0 0 -1
vn -0 0 -1
vn -0 0 -1
vn 0 -1 0
vn 0 -1 0
vn 1 0 -0
vn 1 -0 -0
vn -0 0 -1
vn 0 -1 0
vn -0 0 -1
vn 1 -0 -0
vn 1 -0 -0
vn 0 -1 0
vn 0 1 0
vn 0 1 0
vn 0 1 0
vn 0 1 0
vn 0 -1 0
vn 1 -0 -0
vn 1 0 -0
vn 0 0 1
vn 0 -1 0
vn 0 -1 0
vn -0 0 -1
vn 1 -0 -0
vn 1 -0 -0
vn 1 -0 -0
vn 1 0 -0
vn 1 0 -0
vn 0 -1 0
vn 0 -1 0
vn 0 -1 0
vn 0 -1 0
vn 0 0 1
vn 0 1 0
vn 0 1 0
vn 0.66913 0.74314 -0
vn 0 0 1
vn 0 0 1
vn 1 -0 -0
vn 0.66913 0.74314 -0
vn 0 1 0
vn 0.66913 0.74314 -0
vn -0 0 -1
vn -0 0 -1
vn 0 1 0
vn -0 0 -1
vn 0.66913 0.74314 -0
vn 1 -0 -0
f 22//96 21//91 31//140
f 24//108 22//99 28//120
f 21//95 22//101 27//116
f 22//100 24//113 27//117
f 24//112 23//102 27//118
f 23//103 21//94 27//119
f 21//93 23//104 30//132
f 23//107 24//111 32//145
f 33//149 22//97 31//144
f 33//150 31//143 35//157
f 22//98 33//152 28//121
f 31//141 21//92 30//139
f 34//153 29//128 36//161
f 28//122 33//151 35//160
f 30//137 28//123 35//159
f 31//142 30//138 35//158
f 30//135 34//154 36//164
f 28//124 30//136 36//163
f 29//129 28//125 36//162
f 28//127 38//169 37//165
f 28//127 37//165 24//109
f 37//167 39//173 32//147
f 23//105 39//176 30//133
f 29//131 34//156 40//180
f 24//110 37//166 32//146
f 38//171 29//131 40//180
f 32//148 39//177 23//106
f 37//168 38//172 39//174
f 39//174 38//172 40//179
f 29//130 38//170 28//126
f 30//134 39//175 40//178
f 30//134 40//178 34//155
g latch_2
v 2 1.83772 27.74314
v -2 1.83772 27.74314
v 2 5.83772 27.74314
v -2 5.83772 27.74314
v -2 5.83772 31.74314
v 2 5.83772 31.74314
v -0 3.83772 27.74314
v -2 3.83772 29.74314
v -2 3.83772 31.74314
v 2 3.83772 29.74314
v 2 1.83772 29.74314
v -0 5.83772 29.74314
v -2 1.83772 29.74314
v 2 3.83772 31.74314
v -0 2.83772 29.74314
v -0 3.83772 30.74314
v -2 5.83772 30.4201
v -2 4.64646 31.74314
v 2 5.83772 30.4201
v 2 4.64646 31.74314
vn -0 -1 0
vn 1 0 -0
vn 1 0 -0
vn -0 0 -1
vn -0 0 -1
vn -0 -1 0
vn -0 -1 0
vn -1 0 0
vn -1 0 0
vn -0 0 -1
vn -0 0 -1
vn -0 0 -1
vn -0 0 -1
vn 1 0 -0
vn 1 0 -0
vn 0 1 0
vn 0 1 0
vn -1 0 0
vn -1 0 0
vn 0 1 0
vn 0 1 0
vn -0 0 -1
vn -0 0 -1
vn 0 0 0
vn 0 0 0
vn -0 0 -1
vn -0 0 -1
vn -0 0 -1
vn -0 0 -1
vn -1 0 0
vn -1 0 0
vn 0 0 1
vn 0 0 1
vn -0 -1 0
vn -0 -1 0
vn -1 0 0
vn -1 0 0
vn -0 -1 0
vn -0 -1 0
vn -1 0 0
vn 0 -0 1
vn 1 0 -0
vn 1 0 -0
vn 1 0 -0
vn -0 -1 0
vn -0 -1 0
vn 0 0 1
vn 0 -0 1
vn 1 0 -0
vn -0 -1 0
vn 1 0 -0
vn 0 -0 1
vn 0 -0 1
vn -0 -1 0
vn 0 1 0
vn 0 1 0
vn 0 1 0
vn 0 1 0
vn -0 -1 0
vn 0 -0 1
vn 0 0 1
vn -1 0 0
vn -0 -1 0
vn -0 -1 0
vn 1 0 -0
vn 0 -0 1
vn 0 -0 1
vn 0 -0 1
vn 0 0 1
vn 0 0 1
vn -0 -1 0
vn -0 -1 0
vn -0 -1 0
vn -0 -1 0
vn -1 0 0
vn 0 1 0
vn 0 1 0
vn 0 0.74314 0.66913
vn -1 0 0
vn -1 0 0
vn 0 -0 1
vn 0 0.74314 0.66913
vn 0 1 0
vn 0 0.74314 0.66913
vn 1 0 -0
vn 1 0 -0
vn 0 1 0
vn 1 0 -0
vn 0 0.74314 0.66913
vn 0 -0 1
f 42//186 41//181 51//230
f 44//198 42//189 48//210
f 41//185 42//191 47//206
f 42//190 44//203 47//207
f 44//202 43//192 47//208
f 43//193 41//184 47//209
f 41//183 43//194 50//222
f 43//197 44//201 52//235
f 53//239 42//187 51//234
f 53//240 51//233 55//247
f 42//188 53//242 48//211
f 51//231 41//182 50//229
f 54//243 49//218 56//251
f 48//212 53//241 55//250
f 50//227 48//213 55//249
f 51//232 50//228 55//248
f 50//225 54//244 56//254
f 48//214 50//226 56//253
f 49//219 48//215 56//252
f 48//217 58//259 57//255
f 48//217 57//255 44//199
f 57//257 59//263 52//237
f 43//195 59//266 50//223
f 49//221 54//246 60//270
f 44//200 57//256 52//236
f 58//261 49//221 60//270
f 52//238 59//267 43//196
f 57//258 58//262 59//264
f 59//264 58//262 60//269
f 49//220 58//260 48//216
f 50//224 59//265 60//268
f 50//224 60//268 54//245
g latch_1
v -2 1.83772 -27.74314
v 2 1.83772 -27.74314
v -2 5.83772 -27.74314
v 2 5.83772 -27.74314
v 2 5.83772 -31.74314
v -2 5.83772 -31.74314
v 0 3.83772 -27.74314
v 2 3.83772 -29.74314
v 2 3.83772 -31.74314
v -2 3.83772 -29.74314
v -2 1.83772 -29.74314
v 0 5.83772 -29.74314
v 2 1.83772 -29.74314
v -2 3.83772 -31.74314
v 0 2.83772 -29.74314
v 0 3.83772 -30.74314
v 2 5.83772 -30.4201
v 2 4.64646 -31.74314
v -2 5.83772 -30.4201
v -2 4.64646 -31.74314
vn 0 -1 0
vn -1 0 0
vn -1 0 0
vn 0 0 1
vn 0 0 1
vn 0 -1 0
vn 0 -1 0
vn 1 0 0
vn 1 0 0
vn 0 0 1
vn 0 0 1
vn 0 0 1
vn 0 0 1
vn -1 0 0
vn -1 0 0
vn 0 1 0
vn 0 1 0
vn 1 0 0
vn 1 0 0
vn 0 1 0
vn 0 1 0
vn 0 0 1
vn 0 0 1
vn 0 0 0
vn 0 0 0
vn 0 0 1
vn 0 0 1
vn 0 0 1
vn 0 0 1
vn 1 0 0
vn 1 0 0
vn 0 0 -1
vn 0 0 -1
vn 0 -1 0
vn 0 -1 0
vn 1 0 0
vn 1 0 0
vn 0 -1 0
vn 0 -1 0
vn 1 0 0
vn 0 -0 -1
vn -1 0 0
vn -1 0 0
vn -1 0 0
vn 0 -1 0
vn 0 -1 0
vn 0 0 -1
vn -0 -0 -1
vn -1 0 0
vn 0 -1 0
vn -1 0 0
vn -0 -0 -1
vn -0 -0 -1
vn 0 -1 0
vn 0 1 0
vn 0 1 0
vn 0 1 0
vn 0 1 0
vn 0 -1 0
vn -0 -0 -1
vn 0 0 -1
vn 1 0 0
vn 0 -1 0
vn 0 -1 0
vn -1 0 0
vn 0 -0 -1
vn -0 -0 -1
vn -0 -0 -1
vn 0 0 -1
vn 0 0 -1
vn 0 -1 0
vn 0 -1 0
vn 0 -1 0
vn 0 -1 0
vn 1 0 0
vn 0 1 0
vn 0 1 0
vn 0 0.74314 -0.66913
vn 1 0 0
vn 1 0 0
vn 0 -0 -1
vn 0 0.74314 -0.66913
vn 0 1 0
vn 0 0.74314 -0.66913
vn -1 0 0
vn -1 0 0
vn 0 1 0
vn -1 0 0
vn 0 0.74314 -0.66913
vn 0 -0 -1
f 62//276 61//271 71//320
f 64//288 62//279 68//300
f 61//275 62//281 67//296
f 62//280 64//293 67//297
f 64//292 63//282 67//298
f 63//283 61//274 67//299
f 61//273 63//284 70//312
f 63//287 64//291 72//325
f 73//329 62//277 71//324
f 73//330 71//323 75//337
f 62//278 73//332 68//301
f 71//321 61//272 70//319
f 74//333 69//308 76//341
f 68//302 73//331 75//340
f 70//317 68//303 75//339
f 71//322 70//318 75//338
f 70//315 74//334 76//344
f 68//304 70//316 76//343
f 69//309 68//305 76//342
f 68//307 78//349 77//345
f 68//307 77//345 64//289
f 77//347 79//353 72//327
f 63//285 79//356 70//313
f 69//311 74//336 80//360
f 64//290 77//346 72//326
f 78//351 69//311 80//360
f 72//328 79//357 63//286
f 77//348 78//352 79//354
f 79//354 78//352 80//359
f 69//310 78//350 68//306
f 70//314 79//355 80//358
f 70//314 80//358 74//335
g Bottom
v 52.43433 2.01285 -32.25
v -52.06567 2 -32.25
v -52.06542 -0 -32.25
v 52.43458 0.01285 -32.25
v 52.43433 2.01285 32.25
v -52.06567 2 32.25
v -52.06542 -0 32.25
v 52.43458 0.01285 32.25
v 0.18433 2.00643 0
v -52.06554 1 0
v 0.18458 0.00643 -0
v 52.43446 1.01285 0
v 0.18446 1.00643 -32.25
v 0.18446 1.00643 32.25
v -27.51257 2.00302 -19.90364
v -27.4865 2.00302 -19.37544
v -27.75366 2.00299 -17.60978
v -27.97036 2.00296 -17.02071
v -27.62861 0.00301 -19.80163
v -27.60744 0.00301 -19.37544
v -27.90009 0.00297 -17.54754
v -28.09779 0.00295 -17.03664
v -27.59736 2.00301 -20.50976
v -27.51591 2.00302 -19.96722
v -36.35586 2.00193 -24.58175
v -36.85624 2.00187 -24.26871
v -27.51257 2.00302 -18.84724
v -37.96641 2.00173 -23.26728
v -27.97915 2.00296 -16.9982
v -28.23269 2.00293 -16.48507
v -27.70443 0.003 -20.40687
v -27.63803 0.003 -19.97545
v -36.84871 0.00187 -24.12389
v -36.41147 0.00193 -24.41065
v -27.62861 0.00301 -18.94925
v -37.61048 0.00178 -23.47376
v -28.13573 0.00294 -16.9439
v -28.37352 0.00291 -16.48355
v -27.60566 2.00301 -20.56338
v -36.33843 2.00193 -24.59081
v -27.59736 2.00301 -18.24112
v -27.51591 2.00302 -18.78366
v -28.24175 2.00293 -16.46764
v -27.8647 0.00298 -21.0789
v -27.73288 0.00299 -20.57725
v -35.87935 0.00199 -24.68752
v -36.3397 0.00193 -24.44973
v -27.70443 0.003 -18.34401
v -27.63803 0.003 -18.77543
v -28.4126 0.00291 -16.41178
v -38.13087 0.00171 -22.86599
v -27.7393 2.00299 -21.08764
v -36.86801 2.00187 -24.26099
v -27.60566 2.00301 -18.1875
v -37.32594 2.00181 -23.90577
v -37.97839 2.00173 -23.25332
v -28.55479 2.00289 -15.96726
v -27.90009 0.00297 -21.20334
v -35.78661 0.002 -24.72547
v -27.8647 0.00298 -17.67198
v -27.73288 0.00299 -18.17363
v -36.93837 0.00186 -24.05849
v -28.69936 0.00287 -15.97454
v -27.75366 2.00299 -21.14109
v -35.8253 2.002 -24.84435
v -27.7393 2.00299 -17.66324
v -37.3399 2.00181 -23.89379
v -38.33361 2.00169 -22.79539
v -28.56251 2.00289 -15.95549
v -28.09779 0.00295 -21.71424
v -37.54613 0.00179 -23.5381
v -28.76476 0.00287 -15.88488
v -27.97036 2.00296 -21.73016
v -38.34133 2.00169 -22.78362
v -28.91773 2.00285 -15.49756
v -35.27571 0.00206 -24.92316
v -28.13573 0.00294 -21.80698
v -29.28515 0.0028 -15.27712
v -38.19627 0.00171 -22.77633
v -27.97915 2.00296 -21.75268
v -35.80279 2.002 -24.85314
v -38.65437 2.00165 -22.28324
v -28.92971 2.00285 -15.4836
v -28.37352 0.00291 -22.26732
v -29.3495 0.00279 -15.21277
v -38.48303 0.00167 -22.3391
v -28.23269 2.00293 -22.2658
v -35.21371 2.00207 -25.06984
v -29.55622 2.00277 -14.85708
v -34.64962 0.00214 -25.09037
v -35.15127 0.00208 -24.95855
v -28.4126 0.00291 -22.3391
v -29.95726 0.00272 -14.69239
v -38.52211 0.00167 -22.26732
v -28.24175 2.00293 -22.28324
v -35.16026 2.00208 -25.0842
v -29.57018 2.00277 -14.84511
v -28.69936 0.00287 -22.77633
v -30.04692 0.00271 -14.62699
v -38.75989 0.00164 -21.80698
v -28.55479 2.00289 -22.78362
v -34.636 2.00214 -25.21784
v -38.66343 2.00165 -22.2658
v -30.02811 2.00271 -14.48989
v -34.47924 0.00216 -25.11882
v -28.76476 0.00287 -22.86599
v -30.48416 0.00265 -14.34022
v -38.79784 0.00163 -21.71424
v -28.56251 2.00289 -22.79539
v -34.58238 2.00215 -25.22614
v -38.91697 2.00162 -21.75268
v -30.03988 2.00271 -14.48217
v -34.04782 0.00222 -25.18522
v -29.28515 0.0028 -23.47376
v -30.55593 0.00265 -14.30115
v -28.91773 2.00285 -23.25332
v -38.92576 2.00162 -21.73016
v -39.14246 2.00159 -21.14109
v -30.54026 2.00265 -14.16912
v -33.44781 0.00229 -25.21581
v -33.87401 0.00224 -25.19464
v -29.3495 0.00279 -23.5381
v -31.01627 0.00259 -14.06336
v -28.92971 2.00285 -23.26728
v -34.03984 2.00222 -25.30759
v -30.55769 2.00265 -14.16007
v -29.95726 0.00272 -24.05849
v -31.10902 0.00258 -14.02541
v -38.99554 0.00161 -21.20334
v -29.55622 2.00277 -23.89379
v -31.07082 2.00258 -13.90653
v -33.02162 0.00234 -25.19464
v -30.04692 0.00271 -24.12389
v -31.61992 0.00251 -13.82772
v -39.03092 0.0016 -21.0789
v -29.57018 2.00277 -23.90577
v -33.44806 2.00229 -25.337
v -31.09333 2.00258 -13.89774
v -30.48416 0.00265 -24.41065
v -31.74436 0.0025 -13.79233
v -30.02811 2.00271 -24.26099
v -33.97626 2.00222 -25.31093
v -39.15682 2.00159 -21.08764
v -31.68241 2.00251 -13.68103
v -32.41639 0.00242 -25.11882
v -32.84781 0.00236 -25.18522
v -30.55593 0.00265 -24.44973
v -32.24601 0.00244 -13.66051
v -39.16274 0.00159 -20.57725
v -30.03988 2.00271 -24.26871
v -32.91986 2.00235 -25.31093
v -31.73586 2.0025 -13.66668
v -31.01627 0.00259 -24.68752
v -32.41639 0.00242 -13.63206
v -39.19119 0.00158 -20.40687
v -30.54026 2.00265 -24.58175
v -32.26012 2.00244 -13.53303
v -32.24601 0.00244 -25.09037
v -31.10902 0.00258 -24.72547
v -32.84781 0.00236 -13.56565
v -30.55769 2.00265 -24.59081
v -32.31374 2.00243 -25.22614
v -32.85628 2.00236 -25.30759
v -39.29046 2.00157 -20.56338
v -32.31374 2.00243 -13.52473
v -31.61992 0.00251 -24.92316
v -33.44781 0.00229 -13.53507
v -33.02162 0.00234 -13.55623
v -39.2576 0.00158 -19.97545
v -31.07082 2.00258 -24.84435
v -39.29876 2.00157 -20.50976
v -39.38021 2.00156 -19.96722
v -32.85628 2.00236 -13.44329
v -31.74436 0.0025 -24.95855
v -33.87401 0.00224 -13.55623
v -39.28819 0.00157 -19.37544
v -39.26702 0.00157 -19.80163
v -31.09333 2.00258 -24.85314
v -31.73586 2.0025 -25.0842
v -32.26012 2.00244 -25.21784
v -33.44806 2.00229 -13.41387
v -32.91986 2.00235 -13.43995
v -34.04782 0.00222 -13.56565
v -31.68241 2.00251 -25.06984
v -39.38355 2.00156 -19.90364
v -33.97626 2.00222 -13.43995
v -39.40962 2.00156 -19.37544
v -34.47924 0.00216 -13.63206
v -34.03984 2.00222 -13.44329
v -34.64962 0.00214 -13.66051
v -39.2576 0.00158 -18.77543
v -39.38355 2.00156 -18.84724
v -34.58238 2.00215 -13.52473
v -35.15127 0.00208 -13.79233
v -39.19119 0.00158 -18.34401
v -39.26702 0.00157 -18.94925
v -39.38021 2.00156 -18.78366
v -34.636 2.00214 -13.53303
v -35.27571 0.00206 -13.82772
v -39.03092 0.0016 -17.67198
v -39.16274 0.00159 -18.17363
v -35.16026 2.00208 -13.66668
v -35.78661 0.002 -14.02541
v -39.29046 2.00157 -18.1875
v -39.29876 2.00157 -18.24112
v -35.21371 2.00207 -13.68103
v -35.87935 0.00199 -14.06336
v -35.80279 2.002 -13.89774
v -36.3397 0.00193 -14.30115
v -38.99554 0.00161 -17.54754
v -39.15682 2.00159 -17.66324
v -35.8253 2.002 -13.90653
v -36.41147 0.00193 -14.34022
v -38.79784 0.00163 -17.03664
v -36.33843 2.00193 -14.16007
v -36.84871 0.00187 -14.62699
v -38.92576 2.00162 -17.02071
v -39.14246 2.00159 -17.60978
v -36.35586 2.00193 -14.16912
v -36.93837 0.00186 -14.69239
v -38.75989 0.00164 -16.9439
v -36.85624 2.00187 -14.48217
v -37.54613 0.00179 -15.21277
v -38.52211 0.00167 -16.48355
v -38.91697 2.00162 -16.9982
v -36.86801 2.00187 -14.48989
v -37.61048 0.00178 -15.27712
v -38.19627 0.00171 -15.97454
v -38.48303 0.00167 -16.41178
v -38.66343 2.00165 -16.48507
v -37.32594 2.00181 -14.84511
v -38.13087 0.00171 -15.88488
v -38.34133 2.00169 -15.96726
v -38.65437 2.00165 -16.46764
v -37.3399 2.00181 -14.85708
v -37.96641 2.00173 -15.4836
v -37.97839 2.00173 -15.49756
v -38.33361 2.00169 -15.95549
v -39.38942 0.7582 -19.96636
v -27.50639 0.75966 -19.96636
v -27.50639 0.75966 -18.78452
v -39.38942 0.7582 -18.78452
v -39.38957 1.94004 -19.96636
v -27.50654 1.9415 -19.96636
v -27.50654 1.9415 -18.78452
v -39.38957 1.94004 -18.78452
v -39.29861 0.74986 -20.56293
v -27.5972 0.75129 -20.56293
v -27.5972 0.75129 -18.18795
v -39.29861 0.74986 -18.18795
v -39.29876 1.9484 -20.56293
v -27.59735 1.94984 -20.56293
v -27.59735 1.94984 -18.18795
v -39.29876 1.9484 -18.18795
v -39.29854 0.16164 -19.97471
v -27.59713 0.16308 -19.97471
v -27.59713 0.16308 -18.77617
v -39.29854 0.16164 -18.77617
v -39.15205 0.74723 -21.13626
v -27.74377 0.74864 -21.13626
v -27.74377 0.74864 -17.61462
v -39.15205 0.74723 -17.61462
v -39.15219 1.95106 -21.13626
v -27.74391 1.95246 -21.13626
v -27.74391 1.95246 -17.61462
v -39.15219 1.95106 -17.61462
v -39.20593 0.1566 -20.56798
v -27.68974 0.15801 -20.56798
v -27.68974 0.15801 -18.1829
v -39.20593 0.1566 -18.1829
v -38.92153 0.71906 -21.7508
v -27.97427 0.72041 -21.7508
v -27.97427 0.72041 -17.00008
v -38.92153 0.71906 -17.00008
v -38.92169 1.97929 -21.7508
v -27.97443 1.98063 -21.7508
v -27.97443 1.98063 -17.00008
v -38.92169 1.97929 -17.00008
v -39.03094 0.11906 -21.19635
v -27.86472 0.12043 -21.19635
v -27.86472 0.12043 -17.55453
v -39.03094 0.11906 -17.55453
v -38.65898 0.71712 -22.28149
v -28.23682 0.7184 -22.28149
v -28.23682 0.7184 -16.46939
v -38.65898 0.71712 -16.46939
v -38.65914 1.98129 -22.28149
v -28.23698 1.98257 -22.28149
v -28.23698 1.98257 -16.46939
v -38.65914 1.98129 -16.46939
v -38.78975 0.09611 -21.80313
v -28.10591 0.09742 -21.80313
v -28.10591 0.09742 -16.94775
v -38.78975 0.09611 -16.94775
v -38.33712 0.71152 -22.79433
v -28.55868 0.71272 -22.79433
v -28.55868 0.71272 -15.95655
v -38.33712 0.71152 -15.95655
v -38.33728 1.98697 -22.79433
v -28.55884 1.98818 -22.79433
v -28.55884 1.98818 -15.95655
v -38.33728 1.98697 -15.95655
v -38.5103 0.08233 -22.33624
v -28.38535 0.08358 -22.33624
v -28.38535 0.08358 -16.41464
v -38.5103 0.08233 -16.41464
v -37.97397 0.70984 -23.26206
v -28.92183 0.71096 -23.26206
v -28.92183 0.71096 -15.48882
v -37.97397 0.70984 -15.48882
v -37.97413 1.98874 -23.26206
v -28.92199 1.98985 -23.26206
v -28.92199 1.98985 -15.48882
v -37.97413 1.98874 -15.48882
v -38.17987 0.08132 -22.83954
v -28.71577 0.08248 -22.83954
v -28.71577 0.08248 -15.91134
v -38.17987 0.08132 -15.91134
v -37.33452 0.70992 -23.90151
v -29.56128 0.71088 -23.90151
v -29.56128 0.71088 -14.84937
v -37.33452 0.70992 -14.84937
v -37.33468 1.98881 -23.90151
v -29.56144 1.98977 -23.90151
v -29.56144 1.98977 -14.84937
v -37.33468 1.98881 -14.84937
v -37.59243 0.06699 -23.52005
v -29.30321 0.06801 -23.52005
v -29.30321 0.06801 -15.23083
v -37.59243 0.06699 -15.23083
v -36.86679 0.7117 -24.26466
v -30.02901 0.71254 -24.26466
v -30.02901 0.71254 -14.48622
v -36.86679 0.7117 -14.48622
v -36.86695 1.98716 -24.26466
v -30.02917 1.988 -24.26466
v -30.02917 1.988 -14.48622
v -36.86695 1.98716 -14.48622
v -36.91193 0.08147 -24.10749
v -29.98372 0.08232 -24.10749
v -29.98372 0.08232 -14.64339
v -36.91193 0.08147 -14.64339
v -36.35395 0.7174 -24.58652
v -30.54185 0.71812 -24.58652
v -30.54185 0.71812 -14.16436
v -36.35395 0.7174 -14.16436
v -36.3541 1.98157 -24.58652
v -30.54201 1.98229 -24.58652
v -30.54201 1.98229 -14.16436
v -36.3541 1.98157 -14.16436
v -36.40863 0.08259 -24.43791
v -30.48702 0.08332 -24.43791
v -30.48702 0.08332 -14.31297
v -36.40863 0.08259 -14.31297
v -35.82326 0.71944 -24.84907
v -31.07254 0.72003 -24.84907
v -31.07254 0.72003 -13.90181
v -35.82326 0.71944 -13.90181
v -35.82342 1.97967 -24.84907
v -31.0727 1.98025 -24.84907
v -31.0727 1.98025 -13.90181
v -35.82342 1.97967 -13.90181
v -35.87552 0.09647 -24.71736
v -31.02014 0.09707 -24.71736
v -31.02014 0.09707 -14.03352
v -35.87552 0.09647 -14.03352
v -35.20873 0.74772 -25.07958
v -31.68708 0.74815 -25.07958
v -31.68708 0.74815 -13.6713
v -35.20873 0.74772 -13.6713
v -35.20887 1.95154 -25.07958
v -31.68723 1.95197 -25.07958
v -31.68723 1.95197 -13.6713
v -35.20887 1.95154 -13.6713
v -35.26874 0.11952 -24.95855
v -31.62692 0.11997 -24.95855
v -31.62692 0.11997 -13.79233
v -35.26874 0.11952 -13.79233
v -34.63539 0.75043 -25.22614
v -32.26042 0.75072 -25.22614
v -32.26042 0.75072 -13.52473
v -34.63539 0.75043 -13.52473
v -34.63554 1.94897 -25.22614
v -32.26057 1.94926 -25.22614
v -32.26057 1.94926 -13.52473
v -34.63554 1.94897 -13.52473
v -34.64037 0.15716 -25.13354
v -32.25529 0.15745 -25.13354
v -32.25529 0.15745 -13.61734
v -34.64037 0.15716 -13.61734
v -34.03883 0.75885 -25.31696
v -32.85699 0.759 -25.31696
v -32.85699 0.759 -13.43392
v -34.03883 0.75885 -13.43392
v -34.03897 1.94069 -25.31696
v -32.85713 1.94084 -25.31696
v -32.85713 1.94084 -13.43392
v -34.03897 1.94069 -13.43392
v -34.04711 0.16228 -25.22614
v -32.84856 0.16243 -25.22614
v -32.84856 0.16243 -13.52473
v -34.04711 0.16228 -13.52473
v -39.41909 1.34911 -19.96354
v -27.47687 1.35058 -19.96354
v -39.41909 1.34911 -18.78734
v -27.47687 1.35058 -18.78734
v -33.44791 0.76174 -25.34655
v -33.44791 0.76174 -13.40433
v -33.44805 1.93795 -25.34655
v -33.44805 1.93795 -13.40433
v -39.41902 0.76101 -19.37544
v -27.4768 0.76248 -19.37544
v -39.41916 1.93722 -19.37544
v -27.47694 1.93868 -19.37544
v -39.33269 1.34912 -20.54598
v -27.56327 1.35057 -20.54598
v -39.33269 1.34912 -18.2049
v -27.56327 1.35057 -18.2049
v -33.44784 0.1793 -25.26015
v -33.44784 0.1793 -13.49073
v -39.33255 0.17858 -19.37544
v -27.56312 0.18003 -19.37544
v -39.18962 1.34914 -21.11715
v -27.70634 1.35055 -21.11715
v -39.18962 1.34914 -17.63373
v -27.70634 1.35055 -17.63373
v -38.99126 1.34916 -21.67154
v -27.9047 1.35053 -21.67154
v -38.99126 1.34916 -17.07934
v -27.9047 1.35053 -17.07934
v -38.73951 1.3492 -22.20382
v -28.15645 1.3505 -22.20382
v -38.73951 1.3492 -16.54706
v -28.15645 1.3505 -16.54706
v -38.4368 1.34923 -22.70886
v -28.45916 1.35046 -22.70886
v -38.4368 1.34923 -16.04202
v -28.45916 1.35046 -16.04202
v -38.08604 1.34928 -23.1818
v -28.80992 1.35042 -23.1818
v -38.08604 1.34928 -15.56908
v -28.80992 1.35042 -15.56908
v -37.69062 1.34932 -23.61808
v -29.20534 1.35037 -23.61808
v -37.69062 1.34932 -15.1328
v -29.20534 1.35037 -15.1328
v -37.25434 1.34938 -24.0135
v -29.64162 1.35031 -24.0135
v -37.25434 1.34938 -14.73738
v -29.64162 1.35031 -14.73738
v -36.7814 1.34944 -24.36426
v -30.11456 1.35026 -24.36426
v -36.7814 1.34944 -14.38662
v -30.11456 1.35026 -14.38662
v -36.27636 1.3495 -24.66697
v -30.6196 1.35019 -24.66697
v -36.27636 1.3495 -14.08391
v -30.6196 1.35019 -14.08391
v -35.74408 1.34956 -24.91872
v -31.15188 1.35013 -24.91872
v -35.74408 1.34956 -13.83216
v -31.15188 1.35013 -13.83216
v -35.18969 1.34963 -25.11708
v -31.70627 1.35006 -25.11708
v -35.18969 1.34963 -13.6338
v -31.70627 1.35006 -13.6338
v -34.61852 1.3497 -25.26015
v -32.27744 1.34999 -25.26015
v -34.61852 1.3497 -13.49073
v -32.27744 1.34999 -13.49073
v -34.03608 1.34977 -25.34655
v -32.85988 1.34992 -25.34655
v -34.03608 1.34977 -13.40433
v -32.85988 1.34992 -13.40433
v -39.44798 1.34911 -19.37544
v -27.44798 1.35058 -19.37544
v -33.44798 1.34985 -25.37544
v -33.44798 1.34985 -13.37544
vn 0 -0 -1
vn 0 -0 -1
vn 1 0.00012 0
vn 1 0.00012 0
vn -0.00012 1 0
vn -0.00012 1 0
vn 0 -0 -1
vn 0 -0 -1
vn -1 -0.00012 0
vn -1 -0.00012 0
vn -0.00012 1 0
vn -0.00012 1 -0
vn 0 -0 -1
vn 0 -0 -1
vn 0.00012 -1 0
vn 0.00012 -1 -0
vn -1 -0.00012 0
vn -1 -0.00012 0
vn 0 -0 -1
vn 0 -0 -1
vn 1 0.00012 0
vn 1 0.00012 0
vn 0.00012 -1 -0
vn 0.00012 -1 -0
vn -0.00012 1 0
vn -0.00012 1 0
vn 1 0.00012 0
vn 1 0.00012 0
vn 0 0 1
vn 0 0 1
vn -1 -0.00012 0
vn -1 -0.00012 0
vn -0.00012 1 0
vn -0.00012 1 0
vn 0 0 1
vn 0 0 1
vn -1 -0.00012 0
vn -1 -0.00012 0
vn 0.00012 -1 -0
vn 0.00012 -1 -0
vn 0 0 1
vn 0 0 1
vn 1 0.00012 0
vn 1 0.00012 0
vn 0 0 1
vn 0 0 1
vn 0.00012 -1 -0
vn 0.00012 -1 -0
vn -0.00012 1 0
vn -0.00012 1 0
vn -0.00012 1 0
vn -0.00012 1 0
vn -1 -0.00012 0
vn -1 -0.00012 0
vn -1 -0.00012 0
vn -1 -0.00012 0
vn 0.00012 -1 -0
vn 0.00012 -1 -0
vn 0.00012 -1 -0
vn 0.00012 -1 -0
vn 1 0.00012 0
vn 1 0.00012 0
vn 1 0.00012 0
vn 1 0.00012 0
vn 0 -0 -1
vn 0 -0 -1
vn 0 -0 -1
vn 0 -0 -1
vn 0 0 1
vn 0 0 1
vn 0 0 1
vn 0 0 1
vn -0.00012 1 -0
vn -0.98783 -0.14743 0.04953
vn -0.98916 -0.14685 0
vn -0.00012 1 0
vn -0.00012 1 -0
vn -0.00012 1 -0
vn -0.94072 -0.15237 -0.30305
vn -0.92593 -0.15105 -0.34617
vn -0.00012 1 -0
vn 0.00012 -1 -0
vn -0.96861 0.24366 0.04917
vn 0.00012 -1 -0
vn -0.97006 0.24286 -0
vn 0.00012 -1 0
vn -0.91504 0.25708 -0.31082
vn 0.00012 -1 0
vn 0.00012 -1 0
vn -0.89987 0.25535 -0.35358
vn -0.97785 -0.14807 0.14795
vn -0.00012 1 0
vn -0.98381 -0.14848 0.10031
vn -0.00012 1 -0
vn 0.49392 -0.15752 0.85512
vn -0.00012 1 -0
vn -0.00012 1 -0
vn 0.52925 -0.15558 0.83408
vn -0.98783 -0.14743 -0.04953
vn -0.00012 1 0
vn -0.00012 1 0
vn 0.71526 -0.15042 0.68248
vn -0.00012 1 -0
vn -0.90173 -0.15693 -0.40281
vn -0.00012 1 -0
vn -0.88312 -0.15511 -0.44277
vn -0.00012 1 -0
vn 0.00012 -1 0
vn -0.95721 0.24718 0.15049
vn 0.00012 -1 -0
vn -0.96403 0.24585 0.101
vn 0.54062 0.26482 0.7985
vn 0.00012 -1 -0
vn 0.00012 -1 -0
vn 0.50008 0.26135 0.8256
vn 0.00012 -1 -0
vn -0.96861 0.24366 -0.04917
vn 0.00012 -1 0
vn 0.71845 0.25935 0.64542
vn 0.00012 -1 -0
vn 0.00012 -1 0
vn -0.8749 0.25956 -0.40888
vn 0.00012 -1 0
vn -0.85564 0.25791 -0.44873
vn -0.00012 1 0
vn -0.96848 -0.1496 0.19914
vn 0.44279 -0.15494 0.88314
vn -0.00012 1 -0
vn -0.00012 1 -0
vn -0.97785 -0.14807 -0.14795
vn -0.00012 1 0
vn -0.98381 -0.14848 -0.10031
vn -0.8551 -0.15769 -0.4939
vn -0.00012 1 -0
vn 0.00012 -1 -0
vn -0.93496 0.2508 0.25091
vn 0.00012 -1 0
vn -0.94581 0.25095 0.20606
vn 0.00012 -1 0
vn 0.40885 0.25972 0.87486
vn 0.44869 0.25807 0.85561
vn 0.00012 -1 -0
vn 0.00012 -1 -0
vn -0.95721 0.24718 -0.15049
vn -0.96403 0.24585 -0.101
vn 0.00012 -1 0
vn 0.00012 -1 0
vn -0.82563 0.26118 -0.50011
vn 0.74925 0.25869 0.60967
vn 0.00012 -1 0
vn -0.00012 1 -0
vn -0.95714 -0.15068 0.24736
vn -0.00012 1 -0
vn 0.57792 -0.15814 0.80063
vn -0.96848 -0.1496 -0.19914
vn -0.00012 1 -0
vn -0.00012 1 -0
vn 0.61639 -0.16171 0.77066
vn -0.00012 1 0
vn 0.77068 -0.16169 0.61637
vn -0.83406 -0.15575 -0.52923
vn -0.00012 1 0
vn -0.91504 0.25708 0.31082
vn 0.00012 -1 -0
vn 0.00012 -1 -0
vn 0.35355 0.25551 0.89984
vn -0.93496 0.2508 -0.25091
vn 0.00012 -1 0
vn -0.94581 0.25095 -0.20606
vn 0.00012 -1 -0
vn 0.60964 0.25867 0.74929
vn 0.00012 -1 -0
vn 0.00012 -1 -0
vn -0.79853 0.26466 -0.54065
vn -0.00012 1 -0
vn -0.94072 -0.15237 0.30305
vn 0.40283 -0.15677 0.90175
vn -0.00012 1 -0
vn -0.95714 -0.15068 -0.24736
vn -0.00012 1 -0
vn -0.00012 1 -0
vn 0.6825 -0.15042 0.71524
vn -0.00012 1 -0
vn 0.80065 -0.15811 0.5779
vn -0.00012 1 0
vn -0.80061 -0.15831 -0.5779
vn -0.89987 0.25535 0.35358
vn 0.00012 -1 -0
vn 0.64539 0.25934 0.71849
vn 0.00012 -1 0
vn 0.00012 -1 -0
vn -0.74932 0.2585 -0.60967
vn -0.00012 1 0
vn -0.92593 -0.15105 0.34617
vn -0.00012 1 -0
vn 0.8341 -0.15554 0.52923
vn -0.77064 -0.16188 -0.61637
vn -0.00012 1 -0
vn 0.00012 -1 0
vn 0.31079 0.25723 0.91501
vn -0.8749 0.25956 0.40888
vn 0.00012 -1 -0
vn 0.00012 -1 0
vn -0.71852 0.25917 -0.64542
vn 0.79846 0.26486 0.54065
vn 0.00012 -1 0
vn -0.00012 1 0
vn -0.90173 -0.15693 0.40281
vn 0.34619 -0.15089 0.92595
vn -0.00012 1 -0
vn -0.00012 1 0
vn 0.85514 -0.15748 0.4939
vn -0.71522 -0.15059 -0.68248
vn -0.00012 1 -0
vn -0.85564 0.25791 0.44873
vn 0.00012 -1 -0
vn 0.00012 -1 0
vn -0.64545 0.25918 -0.71849
vn 0.82557 0.26139 0.50011
vn 0.00012 -1 -0
vn -0.00012 1 0
vn -0.88312 -0.15511 0.44277
vn -0.00012 1 -0
vn 0.30307 -0.15222 0.94073
vn -0.68247 -0.15059 -0.71524
vn -0.00012 1 0
vn 0.20603 0.25109 0.94578
vn 0.00012 -1 0
vn 0.00012 -1 -0
vn 0.25088 0.25094 0.93493
vn -0.82563 0.26118 0.50011
vn 0.00012 -1 -0
vn 0.00012 -1 -0
vn -0.6097 0.25852 -0.74929
vn 0.85558 0.25812 0.44873
vn 0.00012 -1 -0
vn -0.00012 1 0
vn -0.8551 -0.15769 0.4939
vn 0.24738 -0.15053 0.95715
vn -0.00012 1 -0
vn -0.00012 1 0
vn -0.61635 -0.16186 -0.77066
vn -0.79853 0.26466 0.54065
vn 0.00012 -1 -0
vn 0.00012 -1 -0
vn -0.54069 0.26469 -0.7985
vn 0.00012 -1 0
vn 0.87483 0.25977 0.40888
vn -0.00012 1 0
vn -0.83406 -0.15575 0.52923
vn -0.00012 1 -0
vn 0.19916 -0.14946 0.9685
vn -0.00012 1 0
vn 0.88316 -0.15489 0.44277
vn -0.00012 1 -0
vn -0.57788 -0.15828 -0.80063
vn 0.00012 -1 0
vn 0.15046 0.24731 0.95718
vn -0.74932 0.2585 0.60967
vn 0.00012 -1 -0
vn 0.00012 -1 0
vn -0.50015 0.26122 -0.8256
vn 0.89981 0.25558 0.35358
vn 0.00012 -1 0
vn -0.00012 1 0
vn -0.80061 -0.15831 0.5779
vn 0.14797 -0.14794 0.97786
vn -0.00012 1 -0
vn -0.00012 1 0
vn 0.90177 -0.1567 0.40281
vn -0.52921 -0.15571 -0.83408
vn -0.00012 1 -0
vn 0.00012 -1 -0
vn 0.10097 0.24598 0.964
vn -0.71852 0.25917 0.64542
vn 0.00012 -1 -0
vn 0.00012 -1 0
vn -0.44876 0.25796 -0.85561
vn -0.00012 1 0
vn -0.77064 -0.16188 0.61637
vn -0.00012 1 0
vn 0.92597 -0.15082 0.34617
vn -0.00012 1 -0
vn 0.94075 -0.15214 0.30305
vn -0.00012 1 0
vn -0.49388 -0.15764 -0.85512
vn -0.00003 0.24298 0.97003
vn 0.00012 -1 0
vn 0.04914 0.24378 0.96858
vn 0.00012 -1 -0
vn -0.64545 0.25918 0.71849
vn 0.00012 -1 -0
vn 0.00012 -1 -0
vn -0.40892 0.25962 -0.87486
vn -0.00012 1 0
vn -0.71522 -0.15059 0.68248
vn -0.00012 1 -0
vn 0.10033 -0.14835 0.98383
vn -0.44275 -0.15505 -0.88314
vn -0.00012 1 0
vn -0.6097 0.25852 0.74929
vn 0.00012 -1 -0
vn 0.00012 -1 0
vn -0.35361 0.25542 -0.89984
vn 0.00012 -1 0
vn 0.91498 0.25731 0.31082
vn -0.00012 1 0
vn -0.68247 -0.15059 0.71524
vn -0.00012 1 -0
vn -0.40279 -0.15686 -0.90175
vn 0.00012 -1 -0
vn -0.0492 0.24377 0.96858
vn -0.54069 0.26469 0.7985
vn 0.00012 -1 0
vn 0.00012 -1 -0
vn -0.31085 0.25715 -0.91501
vn 0.9349 0.25103 0.25091
vn 0.00012 -1 0
vn -0.00012 1 0
vn -0.61635 -0.16186 0.77066
vn 0.00002 -0.14673 0.98918
vn -0.00012 1 -0
vn -0.00012 1 -0
vn -0.34615 -0.15098 -0.92595
vn -0.50015 0.26122 0.8256
vn 0.00012 -1 -0
vn 0.00012 -1 -0
vn -0.25094 0.25088 -0.93493
vn -0.00012 1 0
vn -0.57788 -0.15828 0.80063
vn -0.00012 1 0
vn 0.04955 -0.14731 0.98785
vn -0.00012 1 -0
vn 0.95717 -0.15044 0.24736
vn -0.00012 1 0
vn -0.30303 -0.15229 -0.94073
vn -0.15052 0.24728 0.95718
vn 0.00012 -1 -0
vn -0.10103 0.24596 0.964
vn 0.00012 -1 0
vn -0.44876 0.25796 0.85561
vn 0.00012 -1 -0
vn 0.00012 -1 0
vn -0.20609 0.25104 -0.94578
vn 0.94575 0.25118 0.20606
vn 0.00012 -1 -0
vn -0.00012 1 0
vn -0.52921 -0.15571 0.83408
vn -0.04951 -0.14732 0.98785
vn -0.00012 1 0
vn -0.24734 -0.15059 -0.95715
vn -0.00012 1 0
vn -0.40892 0.25962 0.87486
vn 0.00012 -1 0
vn 0.00012 -1 -0
vn -0.15052 0.24728 -0.95718
vn 0.95715 0.24741 0.15049
vn 0.00012 -1 -0
vn -0.00012 1 -0
vn -0.49388 -0.15764 0.85512
vn -0.00012 1 -0
vn -0.19912 -0.14951 -0.9685
vn 0.00012 -1 0
vn -0.20609 0.25104 0.94578
vn -0.35361 0.25542 0.89984
vn 0.00012 -1 0
vn 0.00012 -1 -0
vn -0.10103 0.24596 -0.964
vn -0.00012 1 -0
vn -0.44275 -0.15505 0.88314
vn -0.00012 1 -0
vn -0.14794 -0.14797 0.97786
vn -0.00012 1 0
vn -0.10029 -0.14837 0.98383
vn -0.00012 1 0
vn 0.96852 -0.14936 0.19914
vn -0.14794 -0.14797 -0.97786
vn -0.00012 1 -0
vn -0.31085 0.25715 0.91501
vn 0.00012 -1 0
vn -0.00003 0.24298 -0.97003
vn 0.00012 -1 -0
vn -0.0492 0.24377 -0.96858
vn 0.00012 -1 -0
vn 0.96397 0.24609 0.101
vn 0.00012 -1 -0
vn -0.00012 1 0
vn -0.40279 -0.15686 0.90175
vn -0.00012 1 0
vn 0.97788 -0.14783 0.14795
vn -0.00012 1 0
vn 0.98385 -0.14824 0.10031
vn -0.00012 1 -0
vn -0.10029 -0.14837 -0.98383
vn -0.25094 0.25088 0.93493
vn 0.00012 -1 0
vn 0.00012 -1 0
vn 0.04914 0.24378 -0.96858
vn 0.97 0.2431 0
vn 0.00012 -1 -0
vn 0.96855 0.2439 0.04917
vn 0.00012 -1 -0
vn -0.00012 1 0
vn -0.34615 -0.15098 0.92595
vn -0.00012 1 -0
vn -0.24734 -0.15059 0.95715
vn -0.00012 1 0
vn -0.19912 -0.14951 0.9685
vn 0.00002 -0.14673 -0.98918
vn -0.00012 1 -0
vn -0.00012 1 -0
vn -0.04951 -0.14732 -0.98785
vn 0.00012 -1 0
vn 0.10097 0.24598 -0.964
vn -0.00012 1 -0
vn -0.30303 -0.15229 0.94073
vn -0.00012 1 0
vn 0.98787 -0.14719 0.04953
vn -0.00012 1 0
vn 0.04955 -0.14731 -0.98785
vn -0.00012 1 -0
vn 0.98919 -0.14661 0
vn 0.00012 -1 0
vn 0.15046 0.24731 -0.95718
vn -0.00012 1 0
vn 0.10033 -0.14835 -0.98383
vn 0.00012 -1 0
vn 0.20603 0.25109 -0.94578
vn 0.96397 0.24609 -0.101
vn 0.00012 -1 0
vn -0.00012 1 -0
vn 0.98787 -0.14719 -0.04953
vn -0.00012 1 0
vn 0.14797 -0.14794 -0.97786
vn 0.00012 -1 -0
vn 0.25088 0.25094 -0.93493
vn 0.00012 -1 -0
vn 0.95715 0.24741 -0.15049
vn 0.00012 -1 0
vn 0.96855 0.2439 -0.04917
vn -0.00012 1 -0
vn 0.98385 -0.14824 -0.10031
vn 0.19916 -0.14946 -0.9685
vn -0.00012 1 0
vn 0.00012 -1 -0
vn 0.31079 0.25723 -0.91501
vn 0.00012 -1 -0
vn 0.9349 0.25103 -0.25091
vn 0.00012 -1 0
vn 0.94575 0.25118 -0.20606
vn -0.00012 1 -0
vn 0.24738 -0.15053 -0.95715
vn 0.00012 -1 -0
vn 0.35355 0.25551 -0.89984
vn -0.00012 1 0
vn 0.96852 -0.14936 -0.19914
vn 0.97788 -0.14783 -0.14795
vn -0.00012 1 0
vn -0.00012 1 -0
vn 0.30307 -0.15222 -0.94073
vn 0.00012 -1 0
vn 0.40885 0.25972 -0.87486
vn 0.34619 -0.15089 -0.92595
vn -0.00012 1 0
vn 0.00012 -1 0
vn 0.44869 0.25807 -0.85561
vn 0.91498 0.25731 -0.31082
vn 0.00012 -1 -0
vn -0.00012 1 -0
vn 0.95717 -0.15044 -0.24736
vn 0.40283 -0.15677 -0.90175
vn -0.00012 1 0
vn 0.00012 -1 0
vn 0.50008 0.26135 -0.8256
vn 0.00012 -1 -0
vn 0.89981 0.25558 -0.35358
vn -0.00012 1 -0
vn 0.44279 -0.15494 -0.88314
vn 0.00012 -1 -0
vn 0.54062 0.26482 -0.7985
vn 0.92597 -0.15082 -0.34617
vn -0.00012 1 0
vn -0.00012 1 -0
vn 0.94075 -0.15214 -0.30305
vn 0.49392 -0.15752 -0.85512
vn -0.00012 1 -0
vn 0.00012 -1 -0
vn 0.60964 0.25867 -0.74929
vn 0.87483 0.25977 -0.40888
vn 0.00012 -1 0
vn -0.00012 1 0
vn 0.52925 -0.15558 -0.83408
vn 0.00012 -1 0
vn 0.64539 0.25934 -0.71849
vn 0.00012 -1 -0
vn 0.85558 0.25812 -0.44873
vn -0.00012 1 -0
vn 0.90177 -0.1567 -0.40281
vn 0.57792 -0.15814 -0.80063
vn -0.00012 1 0
vn 0.00012 -1 0
vn 0.71845 0.25935 -0.64542
vn 0.00012 -1 -0
vn 0.79846 0.26486 -0.54065
vn 0.00012 -1 0
vn 0.82557 0.26139 -0.50011
vn -0.00012 1 0
vn 0.88316 -0.15489 -0.44277
vn -0.00012 1 0
vn 0.61639 -0.16171 -0.77066
vn 0.00012 -1 -0
vn 0.74925 0.25869 -0.60967
vn 0.8341 -0.15554 -0.52923
vn -0.00012 1 0
vn -0.00012 1 0
vn 0.85514 -0.15748 -0.4939
vn 0.6825 -0.15042 -0.71524
vn -0.00012 1 0
vn 0.71526 -0.15042 -0.68248
vn -0.00012 1 0
vn -0.00012 1 0
vn 0.77068 -0.16169 -0.61637
vn -0.00012 1 0
vn 0.80065 -0.15811 -0.5779
vn 0.9902 0.09881 0.09869
vn -0.99022 0.09857 0.09869
vn -0.99022 0.09857 -0.09869
vn 0.9902 0.09881 -0.09869
vn 0.99022 -0.09857 0.09869
vn -0.9902 -0.09881 0.09869
vn -0.9902 -0.09881 -0.09869
vn 0.99022 -0.09857 -0.09869
vn 0.9752 0.10001 0.19744
vn -0.97523 0.09977 0.19744
vn -0.97523 0.09977 -0.19744
vn 0.9752 0.10001 -0.19744
vn 0.97523 -0.09977 0.19744
vn -0.9752 -0.10001 0.19744
vn -0.9752 -0.10001 -0.19744
vn 0.97523 -0.09977 -0.19744
vn 0.97519 0.19756 0.09989
vn -0.97524 0.19732 0.09989
vn -0.97524 0.19732 -0.09989
vn 0.97519 0.19756 -0.09989
vn 0.95018 0.10139 0.29475
vn -0.9502 0.10115 0.29475
vn -0.9502 0.10115 -0.29475
vn 0.95018 0.10139 -0.29475
vn 0.9502 -0.10115 0.29475
vn -0.95018 -0.10139 0.29475
vn -0.95018 -0.10139 -0.29475
vn 0.9502 -0.10115 -0.29475
vn 0.95918 0.20002 0.1999
vn -0.95923 0.19978 0.1999
vn -0.95923 0.19978 -0.1999
vn 0.95918 0.20002 -0.1999
vn 0.91311 0.10542 0.39386
vn -0.91313 0.10519 0.39386
vn -0.91313 0.10519 -0.39386
vn 0.91311 0.10542 -0.39386
vn 0.91313 -0.10519 0.39386
vn -0.91311 -0.10542 0.39386
vn -0.91311 -0.10542 -0.39386
vn 0.91313 -0.10519 -0.39386
vn 0.93037 0.20573 0.30344
vn -0.93043 0.20551 0.30344
vn -0.93043 0.20551 -0.30344
vn 0.93037 0.20573 -0.30344
vn 0.86829 0.10571 0.48466
vn -0.86832 0.10549 0.48466
vn -0.86832 0.10549 -0.48466
vn 0.86829 0.10571 -0.48466
vn 0.86832 -0.10549 0.48466
vn -0.86829 -0.10571 0.48466
vn -0.86829 -0.10571 -0.48466
vn 0.86832 -0.10549 -0.48466
vn 0.89111 0.20922 0.40267
vn -0.89117 0.209 0.40267
vn -0.89117 0.209 -0.40267
vn 0.89111 0.20922 -0.40267
vn 0.81517 0.10647 0.56936
vn -0.81519 0.10627 0.56936
vn -0.81519 0.10627 -0.56936
vn 0.81517 0.10647 -0.56936
vn 0.81519 -0.10627 0.56936
vn -0.81517 -0.10647 0.56936
vn -0.81517 -0.10647 -0.56936
vn 0.81519 -0.10627 -0.56936
vn 0.84382 0.21074 0.49352
vn -0.84387 0.21053 0.49352
vn -0.84387 0.21053 -0.49352
vn 0.84382 0.21074 -0.49352
vn 0.74849 0.1114 0.65373
vn -0.74851 0.11122 0.65373
vn -0.74851 0.11122 -0.65373
vn 0.74849 0.1114 -0.65373
vn 0.74851 -0.11122 0.65373
vn -0.74849 -0.1114 0.65373
vn -0.74849 -0.1114 -0.65373
vn 0.74851 -0.11122 -0.65373
vn 0.78288 0.21632 0.58336
vn -0.78293 0.21612 0.58336
vn -0.78293 0.21612 -0.58336
vn 0.78288 0.21632 -0.58336
vn 0.65371 0.11139 0.7485
vn -0.65374 0.11123 0.7485
vn -0.65374 0.11123 -0.7485
vn 0.65371 0.11139 -0.7485
vn 0.65374 -0.11123 0.7485
vn -0.65371 -0.11139 0.7485
vn -0.65371 -0.11139 -0.7485
vn 0.65374 -0.11123 -0.7485
vn 0.69059 0.21481 0.69061
vn -0.69064 0.21464 0.69061
vn -0.69064 0.21464 -0.69061
vn 0.69059 0.21481 -0.69061
vn 0.56934 0.10644 0.81518
vn -0.56937 0.1063 0.81518
vn -0.56937 0.1063 -0.81518
vn 0.56934 0.10644 -0.81518
vn 0.56937 -0.1063 0.81518
vn -0.56934 -0.10644 0.81518
vn -0.56934 -0.10644 -0.81518
vn 0.56937 -0.1063 -0.81518
vn 0.58334 0.21629 0.7829
vn -0.58339 0.21615 0.7829
vn -0.58339 0.21615 -0.7829
vn 0.58334 0.21629 -0.7829
vn 0.48465 0.10566 0.8683
vn -0.48467 0.10554 0.8683
vn -0.48467 0.10554 -0.8683
vn 0.48465 0.10566 -0.8683
vn 0.48467 -0.10554 0.8683
vn -0.48465 -0.10566 0.8683
vn -0.48465 -0.10566 -0.8683
vn 0.48467 -0.10554 -0.8683
vn 0.49349 0.2107 0.84385
vn -0.49354 0.21058 0.84385
vn -0.49354 0.21058 -0.84385
vn 0.49349 0.2107 -0.84385
vn 0.39384 0.10535 0.91312
vn -0.39387 0.10526 0.91312
vn -0.39387 0.10526 -0.91312
vn 0.39384 0.10535 -0.91312
vn 0.39387 -0.10526 0.91312
vn -0.39384 -0.10535 0.91312
vn -0.39384 -0.10535 -0.91312
vn 0.39387 -0.10526 -0.91312
vn 0.40264 0.20916 0.89114
vn -0.4027 0.20906 0.89114
vn -0.4027 0.20906 -0.89114
vn 0.40264 0.20916 -0.89114
vn 0.29474 0.10131 0.95019
vn -0.29477 0.10123 0.95019
vn -0.29477 0.10123 -0.95019
vn 0.29474 0.10131 -0.95019
vn 0.29477 -0.10123 0.95019
vn -0.29474 -0.10131 0.95019
vn -0.29474 -0.10131 -0.95019
vn 0.29477 -0.10123 -0.95019
vn 0.30341 0.20566 0.9304
vn -0.30347 0.20558 0.9304
vn -0.30347 0.20558 -0.9304
vn 0.30341 0.20566 -0.9304
vn 0.19742 0.09992 0.97521
vn -0.19745 0.09987 0.97521
vn -0.19745 0.09987 -0.97521
vn 0.19742 0.09992 -0.97521
vn 0.19745 -0.09987 0.97521
vn -0.19742 -0.09992 0.97521
vn -0.19742 -0.09992 -0.97521
vn 0.19745 -0.09987 -0.97521
vn 0.19987 0.19992 0.95921
vn -0.19992 0.19987 0.95921
vn -0.19992 0.19987 -0.95921
vn 0.19987 0.19992 -0.95921
vn 0.09868 0.0987 0.99021
vn -0.0987 0.09868 0.99021
vn -0.0987 0.09868 -0.99021
vn 0.09868 0.0987 -0.99021
vn 0.0987 -0.09868 0.99021
vn -0.09868 -0.0987 0.99021
vn -0.09868 -0.0987 -0.99021
vn 0.0987 -0.09868 -0.99021
vn 0.09987 0.19745 0.97521
vn -0.09992 0.19742 0.97521
vn -0.09992 0.19742 -0.97521
vn 0.09987 0.19745 -0.97521
vn 0.9952 0.00012 0.0979
vn -0.9952 -0.00012 0.0979
vn 0.9952 0.00012 -0.0979
vn -0.9952 -0.00012 -0.0979
vn -0.00001 0.0979 0.9952
vn -0.00001 0.0979 -0.9952
vn 0.00001 -0.0979 0.9952
vn 0.00001 -0.0979 -0.9952
vn 0.99518 0.09802 -0
vn -0.99521 0.09777 0
vn 0.99521 -0.09777 0
vn -0.99518 -0.09802 0
vn 0.98087 0.00012 0.19469
vn -0.98087 -0.00012 0.19469
vn 0.98087 0.00012 -0.19469
vn -0.98087 -0.00012 -0.19469
vn -0.00002 0.19469 0.98087
vn -0.00002 0.19469 -0.98087
vn 0.98084 0.19481 0
vn -0.98089 0.19457 -0
vn 0.95704 0.00012 0.28996
vn -0.95704 -0.00012 0.28996
vn 0.95704 0.00012 -0.28996
vn -0.95704 -0.00012 -0.28996
vn 0.92436 0.00011 0.38152
vn -0.92436 -0.00011 0.38152
vn 0.92436 0.00011 -0.38152
vn -0.92436 -0.00011 -0.38152
vn 0.88222 0.00011 0.47084
vn -0.88222 -0.00011 0.47084
vn 0.88222 0.00011 -0.47084
vn -0.88222 -0.00011 -0.47084
vn 0.83189 0.0001 0.55494
vn -0.83189 -0.0001 0.55494
vn 0.83189 0.0001 -0.55494
vn -0.83189 -0.0001 -0.55494
vn 0.77341 0.0001 0.6339
vn -0.77341 -0.0001 0.6339
vn 0.77341 0.0001 -0.6339
vn -0.77341 -0.0001 -0.6339
vn 0.70711 0.00009 0.70711
vn -0.70711 -0.00009 0.70711
vn 0.70711 0.00009 -0.70711
vn -0.70711 -0.00009 -0.70711
vn 0.6339 0.00008 0.77341
vn -0.6339 -0.00008 0.77341
vn 0.6339 0.00008 -0.77341
vn -0.6339 -0.00008 -0.77341
vn 0.55494 0.00007 0.83189
vn -0.55494 -0.00007 0.83189
vn 0.55494 0.00007 -0.83189
vn -0.55494 -0.00007 -0.83189
vn 0.47084 0.00006 0.88222
vn -0.47084 -0.00006 0.88222
vn 0.47084 0.00006 -0.88222
vn -0.47084 -0.00006 -0.88222
vn 0.38152 0.00005 0.92436
vn -0.38152 -0.00005 0.92436
vn 0.38152 0.00005 -0.92436
vn -0.38152 -0.00005 -0.92436
vn 0.28996 0.00004 0.95704
vn -0.28996 -0.00004 0.95704
vn 0.28996 0.00004 -0.95704
vn -0.28996 -0.00004 -0.95704
vn 0.19469 0.00002 0.98087
vn -0.19469 -0.00002 0.98087
vn 0.19469 0.00002 -0.98087
vn -0.19469 -0.00002 -0.98087
vn 0.0979 0.00001 0.9952
vn -0.0979 -0.00001 0.9952
vn 0.0979 0.00001 -0.9952
vn -0.0979 -0.00001 -0.9952
vn 1 0.00012 0
vn -1 -0.00012 0
vn 0 0 1
vn 0 -0 -1
f 82//367 81//361 93//425
f 83//373 82//368 93//428
f 84//379 83//374 93//427
f 81//362 84//380 93//426
f 82//369 83//378 90//413
f 83//377 87//398 90//414
f 87//397 86//391 90//415
f 86//392 82//370 90//416
f 86//394 85//385 89//409
f 85//386 81//365 89//410
f 84//381 81//363 92//421
f 81//364 85//387 92//422
f 85//388 88//404 92//423
f 88//403 84//382 92//424
f 85//390 86//395 94//429
f 86//396 87//402 94//430
f 87//401 88//406 94//431
f 88//405 85//389 94//432
f 84//383 88//408 91//417
f 88//407 87//400 91//418
f 81//366 95//433 96//436
f 81//366 96//436 89//411
f 89//412 97//438 98//441
f 84//384 100//444 99//442
f 84//384 91//420 100//444
f 101//446 91//419 102//449
f 81//366 103//452 104//454
f 81//366 104//454 95//433
f 105//456 82//372 106//457
f 89//411 96//436 107//460
f 439//1005 168//584 161//569
f 86//393 109//465 110//467
f 86//393 89//412 109//465
f 89//412 98//441 109//465
f 84//384 112//470 111//468
f 84//384 99//442 112//470
f 113//473 83//375 114//474
f 100//444 91//420 115//476
f 254//755 456//1022 238//724
f 102//449 91//419 117//481
f 91//419 87//399 117//481
f 416//982 221//690 230//708
f 103//452 81//366 119//485
f 282//812 466//1032 454//1020
f 455//1021 171//590 170//587
f 381//947 149//546 137//521
f 89//411 122//491 121//489
f 89//411 107//460 122//491
f 232//711 453//1019 237//722
f 86//393 110//467 123//494
f 175//598 380//946 368//934
f 84//384 125//497 124//495
f 84//384 111//468 125//497
f 83//375 126//499 127//502
f 191//630 355//921 183//614
f 91//420 128//503 129//506
f 91//420 129//506 115//476
f 216//680 416//982 404//970
f 87//399 118//483 117//481
f 118//483 87//399 130//507
f 131//510 83//376 116//480
f 119//485 81//366 132//511
f 189//626 392//958 380//946
f 120//488 82//372 105//456
f 106//457 82//372 133//513
f 89//411 121//489 134//516
f 133//513 82//372 135//517
f 309//866 386//952 308//864
f 108//461 82//371 136//519
f 261//769 490//1056 266//780
f 86//393 123//494 137//522
f 84//384 124//495 138//524
f 451//1017 182//612 176//599
f 102//450 373//939 101//447
f 83//375 127//502 114//474
f 91//420 140//528 141//530
f 91//420 141//530 128//503
f 292//831 442//1008 295//838
f 266//780 490//1056 478//1044
f 83//375 113//473 142//532
f 130//507 87//399 143//533
f 359//925 209//666 188//623
f 132//511 81//366 144//535
f 145//538 82//372 120//488
f 394//960 317//882 316//879
f 206//659 429//995 211//670
f 371//937 180//608 174//595
f 89//411 134//516 146//540
f 135//517 82//372 147//541
f 156//560 443//1009 139//526
f 136//519 82//371 148//543
f 86//393 137//522 149//545
f 310//868 358//924 305//858
f 84//384 138//524 150//548
f 83//375 139//525 126//499
f 278//803 466//1032 282//812
f 140//528 91//420 101//448
f 83//375 142//532 151//550
f 281//810 350//916 280//808
f 431//997 127//501 126//500
f 143//533 87//399 152//551
f 264//776 452//1018 258//764
f 144//535 81//366 153//553
f 367//933 154//556 162//572
f 285//817 334//900 277//802
f 89//411 146//540 97//437
f 82//372 108//463 147//541
f 148//543 82//371 154//555
f 273//794 478//1044 466//1032
f 86//393 149//545 155//558
f 139//525 83//375 156//559
f 84//384 150//548 157//562
f 199//646 417//983 429//995
f 245//737 465//1031 253//754
f 428//994 236//720 241//730
f 116//478 83//375 151//550
f 152//551 87//399 158//563
f 405//971 177//602 169//585
f 83//376 131//510 159//566
f 153//553 81//366 160//567
f 346//912 291//830 298//844
f 326//892 493//1059 272//792
f 380//946 181//610 189//626
f 346//912 298//844 297//841
f 154//555 82//371 162//571
f 86//393 155//558 163//574
f 148//544 379//945 136//520
f 84//384 157//562 164//576
f 338//904 275//798 271//789
f 393//959 163//573 155//557
f 158//563 87//399 165//577
f 83//376 159//566 166//580
f 196//640 392//958 189//626
f 160//567 81//366 167//581
f 168//583 82//372 161//570
f 161//570 82//372 145//538
f 477//1043 262//772 253//754
f 478//1044 269//786 266//780
f 86//393 163//574 169//586
f 83//375 170//588 171//589
f 84//384 164//576 172//592
f 165//577 87//399 173//593
f 465//1031 245//737 237//722
f 83//376 166//580 174//596
f 167//581 81//366 175//597
f 190//627 463//1029 205//658
f 358//924 346//912 297//841
f 262//772 477//1043 261//769
f 86//393 169//586 177//601
f 83//375 171//589 156//559
f 323//889 251//750 252//752
f 84//384 172//592 178//604
f 173//593 87//399 179//605
f 83//376 174//596 180//607
f 177//602 405//971 184//616
f 175//597 81//366 181//609
f 182//611 82//372 176//600
f 176//600 82//372 168//583
f 162//571 82//371 183//613
f 290//827 362//928 294//836
f 86//393 177//601 184//615
f 370//936 358//924 310//868
f 441//1007 218//684 211//670
f 84//384 178//604 186//620
f 179//605 87//399 187//621
f 218//684 441//1007 224//696
f 83//376 180//607 188//624
f 181//609 81//366 189//625
f 190//628 82//372 182//611
f 299//845 430//996 302//852
f 370//936 314//876 313//873
f 183//613 82//371 191//629
f 86//393 184//615 192//632
f 83//375 185//617 170//588
f 185//617 83//375 193//633
f 84//384 186//620 194//636
f 187//621 87//399 195//637
f 315//877 406//972 316//879
f 394//960 382//948 317//882
f 189//625 81//366 196//639
f 476//1042 464//1030 242//732
f 357//923 369//935 109//464
f 191//629 82//371 197//641
f 197//641 82//371 198//643
f 86//393 192//632 199//645
f 169//585 393//959 405//971
f 83//375 200//648 201//650
f 84//384 194//636 202//652
f 195//637 87//399 203//653
f 454//1020 286//820 282//812
f 196//639 81//366 204//655
f 205//657 82//372 190//628
f 211//670 429//995 441//1007
f 429//995 206//659 199//646
f 86//393 199//645 206//660
f 83//375 201//650 193//633
f 149//546 381//947 155//557
f 84//384 202//652 207//662
f 203//653 87//399 208//663
f 83//376 188//624 209//665
f 204//655 81//366 210//667
f 479//1045 201//649 200//647
f 440//1006 250//748 258//764
f 241//730 440//1006 428//994
f 86//393 206//660 211//669
f 193//634 467//1033 185//618
f 83//375 212//671 200//648
f 84//384 207//662 213//674
f 208//663 87//399 214//675
f 430//996 299//845 295//838
f 83//376 209//665 215//678
f 210//667 81//366 216//679
f 204//656 404//970 392//958
f 224//696 441//1007 453//1019
f 86//393 211//669 218//683
f 137//521 369//935 381//947
f 427//993 145//537 120//487
f 84//384 213//674 219//686
f 214//675 87//399 220//687
f 230//708 428//994 416//982
f 442//1008 292//831 288//823
f 216//679 81//366 221//689
f 221//690 416//982 216//680
f 217//682 82//372 222//691
f 198//643 82//371 223//693
f 116//479 395//961 131//509
f 86//393 218//683 224//695
f 308//864 398//964 312//872
f 83//375 225//698 226//700
f 84//384 219//686 227//702
f 220//687 87//399 228//703
f 83//376 215//678 229//706
f 221//689 81//366 230//707
f 231//710 82//372 217//682
f 222//691 82//372 205//657
f 326//892 272//792 277//802
f 466//1032 278//803 273//794
f 86//393 224//695 232//712
f 212//671 83//375 226//700
f 480//1046 226//699 225//697
f 84//384 227//702 233//714
f 228//703 87//399 234//715
f 83//376 229//706 235//718
f 382//948 370//936 313//873
f 230//707 81//366 236//719
f 464//1030 452//1018 259//766
f 311//870 418//984 406//972
f 374//940 304//856 301//849
f 86//393 232//712 237//721
f 356//922 153//554 160//568
f 286//820 454//1020 288//823
f 84//384 233//714 239//726
f 234//715 87//399 240//727
f 383//949 166//579 159//565
f 121//490 325//891 333//899
f 236//719 81//366 241//729
f 242//731 82//372 243//733
f 243//733 82//372 231//710
f 223//693 82//371 244//735
f 86//393 237//721 245//738
f 225//698 83//375 238//723
f 135//518 403//969 133//514
f 83//375 84//384 246//740
f 84//384 239//726 246//740
f 87//399 247//742 248//744
f 87//399 248//744 240//727
f 83//376 235//718 249//746
f 241//729 81//366 250//747
f 261//769 477//1043 490//1056
f 357//923 109//464 98//440
f 244//735 82//371 251//749
f 251//749 82//371 252//751
f 86//393 245//738 253//753
f 83//375 246//740 254//756
f 247//742 87//399 255//757
f 295//838 442//1008 430//996
f 258//764 452//1018 440//1006
f 257//762 83//376 249//746
f 250//747 81//366 258//763
f 259//765 82//372 260//767
f 369//935 123//493 110//466
f 231//709 476//1042 243//734
f 86//393 262//771 261//770
f 86//393 253//753 262//771
f 238//723 83//375 254//756
f 255//757 87//399 263//773
f 291//830 334//900 284//816
f 256//760 83//376 257//762
f 258//763 81//366 264//775
f 81//366 82//372 264//775
f 250//748 440//1006 241//730
f 260//767 82//372 242//731
f 252//751 82//371 265//777
f 86//393 261//770 266//779
f 358//924 297//841 305//858
f 288//823 454//1020 442//1008
f 263//773 87//399 268//783
f 382//948 313//873 318//884
f 404//970 210//668 216//680
f 264//775 82//372 259//765
f 182//612 463//1029 190//627
f 82//371 267//781 265//777
f 407//973 151//549 142//531
f 86//393 266//779 269//785
f 268//783 87//399 270//787
f 181//610 380//946 175//598
f 452//1018 264//776 259//766
f 82//371 272//791 267//781
f 335//901 249//745 235//717
f 86//393 269//785 273//793
f 270//787 87//399 274//795
f 275//797 83//376 271//790
f 271//790 83//376 276//799
f 370//936 310//868 314//876
f 86//393 273//793 278//804
f 274//795 87//399 279//805
f 280//807 83//376 281//809
f 83//376 256//760 276//799
f 82//371 277//801 272//791
f 345//911 97//439 146//539
f 86//393 278//804 282//811
f 279//805 87//399 283//813
f 260//768 464//1030 259//766
f 281//809 83//376 275//797
f 269//786 478//1044 273//794
f 82//371 284//815 285//818
f 86//393 282//811 286//819
f 283//813 87//399 287//821
f 155//557 381//947 393//959
f 325//891 122//492 107//459
f 277//801 82//371 285//818
f 302//852 430//996 418//984
f 86//393 286//819 288//824
f 287//821 87//399 289//825
f 290//828 83//376 280//807
f 184//616 405//971 417//983
f 382//948 318//884 317//882
f 284//815 82//371 291//829
f 86//393 288//824 292//832
f 289//825 87//399 293//833
f 294//835 83//376 290//828
f 243//734 476//1042 242//732
f 86//393 292//832 295//837
f 293//833 87//399 296//839
f 357//923 98//440 97//439
f 343//909 197//642 198//644
f 82//371 297//842 298//843
f 86//393 295//837 299//846
f 296//839 87//399 300//847
f 345//911 357//923 97//439
f 82//371 298//843 291//829
f 333//899 134//515 121//490
f 86//393 299//846 302//851
f 300//847 87//399 303//853
f 304//855 83//376 301//850
f 301//850 83//376 294//835
f 489//1055 231//709 217//681
f 453//1019 232//711 224//696
f 86//393 302//851 306//860
f 303//853 87//399 307//861
f 308//863 83//376 309//865
f 236//720 428//994 230//708
f 82//371 305//857 297//842
f 305//857 82//371 310//867
f 86//393 306//860 311//869
f 307//861 87//399 312//871
f 87//399 83//376 312//871
f 312//871 83//376 308//863
f 309//865 83//376 304//855
f 134//515 333//899 146//539
f 82//371 313//874 314//875
f 86//393 311//869 315//878
f 493//1059 267//782 272//792
f 167//582 368//934 160//568
f 107//459 494//1060 325//891
f 82//371 314//875 310//867
f 347//913 229//705 215//677
f 86//393 315//878 316//880
f 253//754 465//1031 477//1043
f 82//371 317//881 318//883
f 82//371 86//393 317//881
f 86//393 316//880 317//881
f 82//371 318//883 313//874
f 237//722 453//1019 465//1031
f 418//984 306//859 302//852
f 483//1049 555//1121 491//1057
f 495//1061 483//1049 319//885
f 319//885 483//1049 491//1057
f 319//885 491//1057 501//1067
f 503//1069 495//1061 327//893
f 327//893 495//1061 319//885
f 327//893 319//885 335//901
f 335//901 319//885 501//1067
f 507//1073 503//1069 339//905
f 339//905 503//1069 327//893
f 339//905 327//893 347//913
f 347//913 327//893 335//901
f 511//1077 507//1073 351//917
f 351//917 507//1073 339//905
f 351//917 339//905 359//925
f 359//925 339//905 347//913
f 515//1081 511//1077 363//929
f 363//929 511//1077 351//917
f 363//929 351//917 371//937
f 371//937 351//917 359//925
f 519//1085 515//1081 375//941
f 375//941 515//1081 363//929
f 375//941 363//929 383//949
f 383//949 363//929 371//937
f 523//1089 519//1085 387//953
f 387//953 519//1085 375//941
f 387//953 375//941 395//961
f 395//961 375//941 383//949
f 527//1093 523//1089 399//965
f 399//965 523//1089 387//953
f 399//965 387//953 407//973
f 407//973 387//953 395//961
f 531//1097 527//1093 411//977
f 411//977 527//1093 399//965
f 411//977 399//965 419//985
f 419//985 399//965 407//973
f 535//1101 531//1097 423//989
f 423//989 531//1097 411//977
f 423//989 411//977 431//997
f 431//997 411//977 419//985
f 539//1105 535//1101 435//1001
f 435//1001 535//1101 423//989
f 435//1001 423//989 443//1009
f 443//1009 423//989 431//997
f 543//1109 539//1105 447//1013
f 447//1013 539//1105 435//1001
f 447//1013 435//1001 455//1021
f 455//1021 435//1001 443//1009
f 547//1113 543//1109 459//1025
f 459//1025 543//1109 447//1013
f 459//1025 447//1013 467//1033
f 467//1033 447//1013 455//1021
f 551//1117 547//1113 471//1037
f 471//1037 547//1113 459//1025
f 471//1037 459//1025 479//1045
f 479//1045 459//1025 467//1033
f 557//1123 551//1117 487//1053
f 487//1053 551//1117 471//1037
f 487//1053 471//1037 499//1065
f 499//1065 471//1037 479//1045
f 492//1058 556//1122 484//1050
f 320//886 484//1050 496//1062
f 492//1058 484//1050 320//886
f 502//1068 492//1058 320//886
f 328//894 496//1062 504//1070
f 320//886 496//1062 328//894
f 336//902 320//886 328//894
f 502//1068 320//886 336//902
f 340//906 504//1070 508//1074
f 328//894 504//1070 340//906
f 348//914 328//894 340//906
f 336//902 328//894 348//914
f 352//918 508//1074 512//1078
f 340//906 508//1074 352//918
f 360//926 340//906 352//918
f 348//914 340//906 360//926
f 364//930 512//1078 516//1082
f 352//918 512//1078 364//930
f 372//938 352//918 364//930
f 360//926 352//918 372//938
f 376//942 516//1082 520//1086
f 364//930 516//1082 376//942
f 384//950 364//930 376//942
f 372//938 364//930 384//950
f 388//954 520//1086 524//1090
f 376//942 520//1086 388//954
f 396//962 376//942 388//954
f 384//950 376//942 396//962
f 400//966 524//1090 528//1094
f 388//954 524//1090 400//966
f 408//974 388//954 400//966
f 396//962 388//954 408//974
f 412//978 528//1094 532//1098
f 400//966 528//1094 412//978
f 420//986 400//966 412//978
f 408//974 400//966 420//986
f 424//990 532//1098 536//1102
f 412//978 532//1098 424//990
f 432//998 412//978 424//990
f 420//986 412//978 432//998
f 436//1002 536//1102 540//1106
f 424//990 536//1102 436//1002
f 444//1010 424//990 436//1002
f 432//998 424//990 444//1010
f 448//1014 540//1106 544//1110
f 436//1002 540//1106 448//1014
f 456//1022 436//1002 448//1014
f 444//1010 436//1002 456//1022
f 460//1026 544//1110 548//1114
f 448//1014 544//1110 460//1026
f 468//1034 448//1014 460//1026
f 456//1022 448//1014 468//1034
f 472//1038 548//1114 552//1118
f 460//1026 548//1114 472//1038
f 480//1046 460//1026 472//1038
f 468//1034 460//1026 480//1046
f 487//1053 552//1118 557//1123
f 472//1038 552//1118 487//1053
f 499//1065 472//1038 487//1053
f 480//1046 472//1038 499//1065
f 486//1052 556//1122 492//1058
f 498//1064 486//1052 321//887
f 321//887 486//1052 492//1058
f 321//887 492//1058 502//1068
f 506//1072 498//1064 329//895
f 329//895 498//1064 321//887
f 329//895 321//887 337//903
f 337//903 321//887 502//1068
f 510//1076 506//1072 341//907
f 341//907 506//1072 329//895
f 341//907 329//895 349//915
f 349//915 329//895 337//903
f 514//1080 510//1076 353//919
f 353//919 510//1076 341//907
f 353//919 341//907 361//927
f 361//927 341//907 349//915
f 518//1084 514//1080 365//931
f 365//931 514//1080 353//919
f 365//931 353//919 373//939
f 373//939 353//919 361//927
f 522//1088 518//1084 377//943
f 377//943 518//1084 365//931
f 377//943 365//931 385//951
f 385//951 365//931 373//939
f 526//1092 522//1088 389//955
f 389//955 522//1088 377//943
f 389//955 377//943 397//963
f 397//963 377//943 385//951
f 530//1096 526//1092 401//967
f 401//967 526//1092 389//955
f 401//967 389//955 409//975
f 409//975 389//955 397//963
f 534//1100 530//1096 413//979
f 413//979 530//1096 401//967
f 413//979 401//967 421//987
f 421//987 401//967 409//975
f 538//1104 534//1100 425//991
f 425//991 534//1100 413//979
f 425//991 413//979 433//999
f 433//999 413//979 421//987
f 542//1108 538//1104 437//1003
f 437//1003 538//1104 425//991
f 437//1003 425//991 445//1011
f 445//1011 425//991 433//999
f 546//1112 542//1108 449//1015
f 449//1015 542//1108 437//1003
f 449//1015 437//1003 457//1023
f 457//1023 437//1003 445//1011
f 550//1116 546//1112 461//1027
f 461//1027 546//1112 449//1015
f 461//1027 449//1015 469//1035
f 469//1035 449//1015 457//1023
f 554//1120 550//1116 473//1039
f 473//1039 550//1116 461//1027
f 473//1039 461//1027 481//1047
f 481//1047 461//1027 469//1035
f 558//1124 554//1120 488//1054
f 488//1054 554//1120 473//1039
f 488//1054 473//1039 500//1066
f 500//1066 473//1039 481//1047
f 491//1057 555//1121 485//1051
f 322//888 485//1051 497//1063
f 491//1057 485//1051 322//888
f 501//1067 491//1057 322//888
f 330//896 497//1063 505//1071
f 322//888 497//1063 330//896
f 338//904 322//888 330//896
f 501//1067 322//888 338//904
f 342//908 505//1071 509//1075
f 330//896 505//1071 342//908
f 350//916 330//896 342//908
f 338//904 330//896 350//916
f 354//920 509//1075 513//1079
f 342//908 509//1075 354//920
f 362//928 342//908 354//920
f 350//916 342//908 362//928
f 366//932 513//1079 517//1083
f 354//920 513//1079 366//932
f 374//940 354//920 366//932
f 362//928 354//920 374//940
f 378//944 517//1083 521//1087
f 366//932 517//1083 378//944
f 386//952 366//932 378//944
f 374//940 366//932 386//952
f 390//956 521//1087 525//1091
f 378//944 521//1087 390//956
f 398//964 378//944 390//956
f 386//952 378//944 398//964
f 402//968 525//1091 529//1095
f 390//956 525//1091 402//968
f 410//976 390//956 402//968
f 398//964 390//956 410//976
f 414//980 529//1095 533//1099
f 402//968 529//1095 414//980
f 422//988 402//968 414//980
f 410//976 402//968 422//988
f 426//992 533//1099 537//1103
f 414//980 533//1099 426//992
f 434//1000 414//980 426//992
f 422//988 414//980 434//1000
f 438//1004 537//1103 541//1107
f 426//992 537//1103 438//1004
f 446//1012 426//992 438//1004
f 434//1000 426//992 446//1012
f 450//1016 541//1107 545//1111
f 438//1004 541//1107 450//1016
f 458//1024 438//1004 450//1016
f 446//1012 438//1004 458//1024
f 462//1028 545//1111 549//1115
f 450//1016 545//1111 462//1028
f 470//1036 450//1016 462//1028
f 458//1024 450//1016 470//1036
f 474//1040 549//1115 553//1119
f 462//1028 549//1115 474//1040
f 482//1048 462//1028 474//1040
f 470//1036 462//1028 482//1048
f 488//1054 553//1119 558//1124
f 474//1040 553//1119 488//1054
f 500//1066 474//1040 488//1054
f 482//1048 474//1040 500//1066
f 493//1059 555//1121 483//1049
f 323//889 483//1049 495//1061
f 493//1059 483//1049 323//889
f 331//897 495//1061 503//1069
f 323//889 495//1061 331//897
f 343//909 503//1069 507//1073
f 331//897 503//1069 343//909
f 355//921 507//1073 511//1077
f 343//909 507//1073 355//921
f 367//933 511//1077 515//1081
f 355//921 511//1077 367//933
f 379//945 515//1081 519//1085
f 367//933 515//1081 379//945
f 391//957 519//1085 523//1089
f 379//945 519//1085 391//957
f 403//969 523//1089 527//1093
f 391//957 523//1089 403//969
f 415//981 527//1093 531//1097
f 403//969 527//1093 415//981
f 427//993 531//1097 535//1101
f 415//981 531//1097 427//993
f 439//1005 535//1101 539//1105
f 427//993 535//1101 439//1005
f 451//1017 539//1105 543//1109
f 439//1005 539//1105 451//1017
f 463//1029 543//1109 547//1113
f 451//1017 543//1109 463//1029
f 475//1041 547//1113 551//1117
f 463//1029 547//1113 475//1041
f 489//1055 551//1117 557//1123
f 475//1041 551//1117 489//1055
f 484//1050 556//1122 494//1060
f 496//1062 484//1050 324//890
f 324//890 484//1050 494//1060
f 504//1070 496//1062 332//898
f 332//898 496//1062 324//890
f 508//1074 504//1070 344//910
f 344//910 504//1070 332//898
f 512//1078 508//1074 356//922
f 356//922 508//1074 344//910
f 516//1082 512//1078 368//934
f 368//934 512//1078 356//922
f 520//1086 516//1082 380//946
f 380//946 516//1082 368//934
f 524//1090 520//1086 392//958
f 392//958 520//1086 380//946
f 528//1094 524//1090 404//970
f 404//970 524//1090 392//958
f 532//1098 528//1094 416//982
f 416//982 528//1094 404//970
f 536//1102 532//1098 428//994
f 428//994 532//1098 416//982
f 540//1106 536//1102 440//1006
f 440//1006 536//1102 428//994
f 544//1110 540//1106 452//1018
f 452//1018 540//1106 440//1006
f 548//1114 544//1110 464//1030
f 464//1030 544//1110 452//1018
f 552//1118 548//1114 476//1042
f 476//1042 548//1114 464//1030
f 557//1123 552//1118 489//1055
f 489//1055 552//1118 476//1042
f 494//1060 556//1122 486//1052
f 325//891 486//1052 498//1064
f 494//1060 486//1052 325//891
f 333//899 498//1064 506//1072
f 325//891 498//1064 333//899
f 345//911 506//1072 510//1076
f 333//899 506//1072 345//911
f 357//923 510//1076 514//1080
f 345//911 510//1076 357//923
f 369//935 514//1080 518//1084
f 357//923 514//1080 369//935
f 381//947 518//1084 522//1088
f 369//935 518//1084 381//947
f 393//959 522//1088 526//1092
f 381//947 522//1088 393//959
f 405//971 526//1092 530//1096
f 393//959 526//1092 405//971
f 417//983 530//1096 534//1100
f 405//971 530//1096 417//983
f 429//995 534//1100 538//1104
f 417//983 534//1100 429//995
f 441//1007 538//1104 542//1108
f 429//995 538//1104 441//1007
f 453//1019 542//1108 546//1112
f 441//1007 542//1108 453//1019
f 465//1031 546//1112 550//1116
f 453//1019 546//1112 465//1031
f 477//1043 550//1116 554//1120
f 465//1031 550//1116 477//1043
f 490//1056 554//1120 558//1124
f 477//1043 554//1120 490//1056
f 485//1051 555//1121 493//1059
f 497//1063 485//1051 326//892
f 326//892 485//1051 493//1059
f 505//1071 497//1063 334//900
f 334//900 497//1063 326//892
f 509//1075 505//1071 346//912
f 346//912 505//1071 334//900
f 513//1079 509//1075 358//924
f 358//924 509//1075 346//912
f 517//1083 513//1079 370//936
f 370//936 513//1079 358//924
f 521//1087 517//1083 382//948
f 382//948 517//1083 370//936
f 525//1091 521//1087 394//960
f 394//960 521//1087 382//948
f 529//1095 525//1091 406//972
f 406//972 525//1091 394//960
f 533//1099 529//1095 418//984
f 418//984 529//1095 406//972
f 537//1103 533//1099 430//996
f 430//996 533//1099 418//984
f 541//1107 537//1103 442//1008
f 442//1008 537//1103 430//996
f 545//1111 541//1107 454//1020
f 454//1020 541//1107 442//1008
f 549//1115 545//1111 466//1032
f 466//1032 545//1111 454//1020
f 553//1119 549//1115 478//1044
f 478//1044 549//1115 466//1032
f 558//1124 553//1119 490//1056
f 490//1056 553//1119 478//1044
f 257//761 335//901 256//759
f 335//901 501//1067 256//759
f 122//492 325//891 121//490
f 347//913 335//901 235//717
f 249//745 335//901 257//761
f 359//925 347//913 215//677
f 163//573 393//959 169//585
f 371//937 359//925 188//623
f 359//925 215//677 209//666
f 383//949 371//937 174//595
f 371//937 188//623 180//608
f 368//934 167//582 175//598
f 395//961 383//949 159//565
f 383//949 174//595 166//579
f 407//973 395//961 116//479
f 395//961 159//565 131//509
f 114//475 419//985 113//472
f 419//985 407//973 142//531
f 151//549 407//973 116//479
f 431//997 419//985 114//475
f 419//985 142//531 113//472
f 443//1009 431//997 126//500
f 431//997 114//475 127//501
f 455//1021 443//1009 156//560
f 443//1009 126//500 139//526
f 467//1033 455//1021 170//587
f 455//1021 156//560 171//590
f 479//1045 467//1033 193//634
f 467//1033 170//587 185//618
f 499//1065 479//1045 200//647
f 479//1045 193//634 201//649
f 100//445 502//1068 99//443
f 99//443 502//1068 336//902
f 112//471 336//902 111//469
f 111//469 336//902 348//914
f 336//902 112//471 99//443
f 125//498 348//914 124//496
f 124//496 348//914 360//926
f 348//914 125//498 111//469
f 138//523 360//926 150//547
f 150//547 360//926 372//938
f 360//926 138//523 124//496
f 157//561 372//938 164//575
f 164//575 372//938 384//950
f 372//938 157//561 150//547
f 172//591 384//950 178//603
f 178//603 384//950 396//962
f 384//950 172//591 164//575
f 186//619 396//962 194//635
f 194//635 396//962 408//974
f 396//962 186//619 178//603
f 202//651 408//974 207//661
f 207//661 408//974 420//986
f 408//974 202//651 194//635
f 213//673 420//986 219//685
f 219//685 420//986 432//998
f 420//986 213//673 207//661
f 227//701 432//998 233//713
f 233//713 432//998 444//1010
f 432//998 227//701 219//685
f 239//725 444//1010 246//739
f 246//739 444//1010 456//1022
f 444//1010 239//725 233//713
f 456//1022 468//1034 238//724
f 456//1022 254//755 246//739
f 160//568 368//934 356//922
f 468//1034 480//1046 225//697
f 238//724 468//1034 225//697
f 415//981 105//455 106//458
f 480//1046 499//1065 212//672
f 226//699 480//1046 212//672
f 115//477 337//903 100//445
f 100//445 337//903 502//1068
f 128//504 349//915 129//505
f 129//505 349//915 337//903
f 337//903 115//477 129//505
f 140//527 361//927 141//529
f 141//529 361//927 349//915
f 349//915 128//504 141//529
f 146//539 333//899 345//911
f 373//939 361//927 101//447
f 361//927 140//527 101//447
f 373//939 117//482 118//484
f 385//951 373//939 118//484
f 373//939 102//450 117//482
f 143//534 397//963 130//508
f 130//508 397//963 385//951
f 385//951 118//484 130//508
f 158//564 409//975 152//552
f 152//552 409//975 397//963
f 397//963 143//534 152//552
f 173//594 421//987 165//578
f 165//578 421//987 409//975
f 409//975 158//564 165//578
f 187//622 433//999 179//606
f 179//606 433//999 421//987
f 421//987 173//594 179//606
f 203//654 445//1011 195//638
f 195//638 445//1011 433//999
f 433//999 187//622 195//638
f 214//676 457//1023 208//664
f 208//664 457//1023 445//1011
f 445//1011 203//654 208//664
f 228//704 469//1035 220//688
f 220//688 469//1035 457//1023
f 457//1023 214//676 220//688
f 240//728 481//1047 234//716
f 234//716 481//1047 469//1035
f 469//1035 228//704 234//716
f 247//741 500//1066 248//743
f 248//743 500//1066 481//1047
f 481//1047 240//728 248//743
f 338//904 276//800 256//759
f 501//1067 338//904 256//759
f 334//900 285//817 284//816
f 338//904 350//916 275//798
f 338//904 271//789 276//800
f 210//668 404//970 204//656
f 350//916 362//928 280//808
f 350//916 281//810 275//798
f 244//736 331//897 223//694
f 362//928 374//940 294//836
f 369//935 110//466 109//464
f 96//435 494//1060 107//459
f 374//940 386//952 304//856
f 374//940 301//849 294//836
f 344//910 132//512 144//536
f 386//952 398//964 308//864
f 386//952 309//866 304//856
f 312//872 398//964 307//862
f 307//862 398//964 410//976
f 392//958 196//640 204//656
f 303//854 410//976 300//848
f 300//848 410//976 422//988
f 410//976 303//854 307//862
f 296//840 422//988 293//834
f 293//834 422//988 434//1000
f 422//988 296//840 300//848
f 289//826 434//1000 287//822
f 287//822 434//1000 446//1012
f 434//1000 289//826 293//834
f 283//814 446//1012 279//806
f 279//806 446//1012 458//1024
f 446//1012 283//814 287//822
f 274//796 458//1024 270//788
f 270//788 458//1024 470//1036
f 458//1024 274//796 279//806
f 268//784 470//1036 263//774
f 263//774 470//1036 482//1048
f 470//1036 268//784 270//788
f 255//758 482//1048 247//741
f 247//741 482//1048 500//1066
f 482//1048 255//758 263//774
f 323//889 265//778 267//782
f 493//1059 323//889 267//782
f 123//493 369//935 137//521
f 323//889 331//897 251//750
f 323//889 252//752 265//778
f 334//900 326//892 277//802
f 331//897 343//909 223//694
f 331//897 244//736 251//750
f 362//928 290//827 280//808
f 343//909 355//921 197//642
f 343//909 198//644 223//694
f 346//912 334//900 291//830
f 355//921 367//933 183//614
f 355//921 191//630 197//642
f 347//913 235//717 229//705
f 367//933 379//945 154//556
f 367//933 162//572 183//614
f 499//1065 200//647 212//672
f 379//945 391//957 136//520
f 379//945 148//544 154//556
f 403//969 147//542 108//462
f 391//957 403//969 108//462
f 391//957 108//462 136//520
f 417//983 192//631 184//616
f 403//969 415//981 133//514
f 403//969 135//518 147//542
f 316//879 406//972 394//960
f 415//981 427//993 105//455
f 415//981 106//458 133//514
f 192//631 417//983 199//646
f 427//993 439//1005 145//537
f 427//993 120//487 105//455
f 406//972 315//877 311//870
f 439//1005 451//1017 168//584
f 439//1005 161//569 145//537
f 489//1055 476//1042 231//709
f 451//1017 463//1029 182//612
f 451//1017 176//599 168//584
f 306//859 418//984 311//870
f 463//1029 475//1041 205//658
f 464//1030 260//768 242//732
f 222//692 475//1041 217//681
f 217//681 475//1041 489//1055
f 475//1041 222//692 205//658
f 95//434 324//890 96//435
f 96//435 324//890 494//1060
f 103//451 332//898 104//453
f 104//453 332//898 324//890
f 324//890 95//434 104//453
f 132//512 344//910 119//486
f 119//486 344//910 332//898
f 332//898 103//451 119//486
f 153//554 356//922 144//536
f 144//536 356//922 344//910
