#Produced by Art of Illusion 2.9.2, Fri Apr 05 13:54:28 EDT 2013
g Boolean_8
v -0 -17.73436 17.758
v 20.18144 -17.74804 -18.70209
v 10.25649 -17.74804 -18.70209
v -25 -17.73967 3.60964
v -25 -17.73664 11.6904
v 14.59269 -17.72447 44.12137
v 6.79924 -17.72447 44.12137
v 25 -17.73956 3.90809
v 25 -17.73664 11.6904
v -10.25649 -17.74804 -18.70209
v -25 -17.74804 -18.70209
v -24.02348 -17.74804 -18.70209
v -25 -17.73539 15.02602
v -25 -17.73552 14.68079
v -14.59269 -17.72447 44.12137
v -6.79924 -17.72447 44.12137
v 25 -17.74804 -18.70209
v 25 -17.73618 12.91235
v -20.18144 -17.74804 -18.70209
v -25 -17.74331 -6.10463
v -25 -17.73011 29.09941
v 25 -17.74331 -6.10463
v 25 -17.73583 13.83775
v 25 -17.73599 13.42116
v -25 -17.72447 44.12137
v 25 -17.74283 -4.81813
v 25 -17.73576 14.04035
v 25 -17.73539 15.02602
v 25 -17.73552 14.68079
v 25 -17.73011 29.09941
v 25 -17.72447 44.12137
v -25 -2.37757 33.12392
v 25 -2.37757 33.12392
v 0 -14.44303 41.76992
v -8.45417 -16.32041 13.66674
v 8.45417 -16.32041 13.66674
v -25 -16.32041 13.66674
v 25 -16.32041 13.66674
v 25 -16.88434 12.87979
v -22.97756 -16.32041 13.66674
v 21.55086 -16.32041 13.66674
v 22.97756 -16.32041 13.66674
v 11.16218 -16.32041 13.66674
v 25 -16.9786 14.13839
v -11.16218 -16.32041 13.66674
v 24.12496 -16.32041 13.66674
v 11.42264 -16.32041 13.66674
v -11.42264 -16.32041 13.66674
v -0 -1.67727 -19.75399
v -21.85571 33.53435 -22.05874
v -19.5046 33.53435 -22.05874
v -25 33.53435 -22.05874
v 25 33.53435 -22.05874
v 21.85571 33.53435 -22.05874
v -25 -0.36461 2.23295
v 25 -0.36461 2.23295
v 25 -2.16464 3.52284
v 19.5046 33.53435 -22.05874
v -22.45805 -3.43699 31.64551
v -22.45805 -3.28235 31.86131
v -7.78812 -16.04282 14.05412
v -1.31429 -16.04282 14.05412
v -22.45805 -15.96215 14.16669
v -22.45805 -14.83774 15.7358
v 23.03041 -16.04282 14.05412
v 24.29188 -16.04282 14.05412
v -22.45805 -16.04282 14.05412
v 21.1673 -16.04282 14.05412
v 19.853 -16.04282 14.05412
v 10.28279 -16.04282 14.05412
v 7.78812 -16.04282 14.05412
v -10.28279 -16.04282 14.05412
v 10.52272 -16.04282 14.05412
v -10.52272 -16.04282 14.05412
v -21.1673 -16.04282 14.05412
v 17.06844 29.5739 -19.22071
v -17.06844 29.5739 -19.22071
v -19.12589 29.5739 -19.22071
v -22.45805 27.04048 -17.40529
v -22.45805 -0.14189 2.07335
v 21.87745 29.5739 -19.22071
v 23.13997 29.5739 -19.22071
v 19.12589 29.5739 -19.22071
v -22.45805 29.5739 -19.22071
v 24.29188 -2.05161 3.44184
v 24.29188 -0.30257 2.18849
v -22.45805 -15.91014 13.37274
v -22.45805 -14.77794 12.56142
v -8.32495 -16.04304 13.46797
v -1.72347 -16.04304 13.46797
v -22.45805 -16.04304 13.46797
v -11.24804 -16.04304 13.46797
v -10.99157 -16.04304 13.46797
v 21.22145 -16.04304 13.46797
v 22.62633 -16.04304 13.46797
v 10.99157 -16.04304 13.46797
v 11.24804 -16.04304 13.46797
v 23.7562 -16.04304 13.46797
v 24.29188 -16.04304 13.46797
v 24.29188 -14.77794 12.56142
v 8.32495 -16.04304 13.46797
v -20.08065 -3.28235 31.86131
v 3.14813 -16.04282 14.05412
v 24.29188 -3.28235 31.86131
v 24.29188 -14.83774 15.7358
v -21.92655 29.5739 -19.22071
v -22.22306 29.5739 -19.22071
v -21.30613 29.5739 -19.22071
v 24.29188 11.03301 -5.93448
v 24.29188 29.5739 -19.22071
v 3.5573 -16.04304 13.46797
v 24.29188 -15.80643 13.29842
v 21.91449 -3.28235 31.86131
v 22.8291 -3.28235 31.86131
v -6.89275 -16.04282 14.05412
v -22.45805 -15.91396 14.23395
v 23.76761 -16.04282 14.05412
v 22.6618 -16.04282 14.05412
v 8.6649 -16.04282 14.05412
v -9.36285 -16.04282 14.05412
v 11.27474 -16.04282 14.05412
v 21.22777 -16.04304 13.46797
v 23.77775 -16.04304 13.46797
v 23.05482 -16.04304 13.46797
v 10.55389 -16.04304 13.46797
v 19.93891 -16.04304 13.46797
v 24.29188 -15.8152 14.37177
v -0.81876 -16.04304 13.46797
v -21.19228 -16.04304 13.46797
v 8.10751 -16.04304 13.46797
v -9.14612 -16.04282 14.05412
v 11.52575 -16.04282 14.05412
v 10.78918 -16.04304 13.46797
v 0.91692 -16.04162 17.25031
v 24.29188 -16.05419 -16.23416
v -22.45805 -16.05419 -16.23416
v 24.29188 -16.03271 40.99811
v -22.45805 -16.03271 40.99811
v 0.91692 -13.03683 38.85129
v 0.91692 -0.57348 -17.24744
vn 0 -1 0.00038
vn 0 -1 0.00038
vn -0 -1 0.00038
vn 0 -1 0.00038
vn 0 -1 0.00038
vn -0 -0.06531 -0.99786
vn 0 -1 0.00038
vn 0 -1 0.00038
vn -0 -0.06531 -0.99786
vn 0 -0.06531 -0.99786
vn -1 0 0
vn 0 -1 0.00038
vn 0 -1 0.00038
vn -1 0 0
vn -1 0 0
vn -0 -1 0.00038
vn 0 0.58248 0.81285
vn 0 -1 0.00038
vn 0 0.58248 0.81285
vn 0 0.58248 0.81285
vn 0 -1 0.00038
vn 0 -1 0.00038
vn 1 0 0
vn 1 0 0
vn 1 0 0
vn 1 0 0
vn 0 -1 0.00038
vn 0 -0.06531 -0.99786
vn -0 -0.06531 -0.99786
vn 0 -1 0.00038
vn 0 -0.06531 -0.99786
vn -1 0 0
vn -0 -0.06531 -0.99786
vn -0 -1 0.00038
vn -1 0 -0
vn 0 -1 0.00038
vn -1 0 0
vn -1 0 0
vn 0 -1 0.00038
vn 0 -1 0.00038
vn 0 0.58248 0.81285
vn 0 -1 0.00038
vn -0 -1 0.00038
vn 0 0.58248 0.81285
vn 0 0.58248 0.81285
vn -0 -0.06531 -0.99786
vn 1 0 -0
vn 0 -1 0.00038
vn 1 0 -0
vn 1 0 -0
vn 1 0 -0
vn 0 -1 0.00038
vn -0 -1 0.00038
vn -0 -0.06531 -0.99786
vn -0 -1 0.00038
vn -1 0 0
vn -1 0 0
vn 0 -1 0.00038
vn -1 0 0
vn -1 0 -0
vn 1 0 -0
vn 1 -0 0
vn -0 -1 0.00038
vn 1 0 0
vn 0 -1 0.00038
vn 1 -0 0
vn 1 0 -0
vn 0 -1 0.00038
vn 1 -0 -0
vn 1 0 -0
vn 0 -1 0.00038
vn -0 0.58248 0.81285
vn -1 0 0
vn -0 -1 0.00038
vn 1 -0 0
vn 1 -0 0
vn 1 -0 0
vn 1 -0 0
vn 1 -0 0
vn 1 -0 0
vn 1 -0 0
vn 1 -0 0
vn 1 -0 0
vn 0 -1 0.00038
vn 1 0 0
vn 1 0 0
vn 1 0 0
vn 1 0 0
vn 1 0 0
vn 1 0 0
vn 1 0 0
vn 1 -0 0
vn 1 -0 0
vn 0 -1 0.00038
vn 0 -1 0.00038
vn 1 -0 0
vn -0 0.58248 0.81285
vn 0 0.58248 0.81285
vn -0 0.58248 0.81285
vn -1 0 0
vn -1 0 -0
vn 0 0.81285 -0.58248
vn 0 0.81285 -0.58248
vn 0 0.58248 0.81285
vn 0 0.58248 0.81285
vn 1 -0 0
vn 1 -0 0
vn -0 0.81285 -0.58248
vn 0 0.81285 -0.58248
vn 0 0.58248 0.81285
vn 0 0.58248 0.81285
vn 0 0.58248 0.81285
vn 0 0.58248 0.81285
vn -0 0.81285 -0.58248
vn 0 0.81285 -0.58248
vn 0 0.58248 0.81285
vn -0 0.81285 -0.58248
vn 0 0.81285 -0.58248
vn 0 0.58248 0.81285
vn -0 0.58248 0.81285
vn 0 0.81285 -0.58248
vn -1 0 0
vn -1 0 0
vn -1 0 0
vn 0 0.81285 -0.58248
vn 1 0 0
vn 1 0 0
vn 1 0 0
vn -0 0.58248 0.81285
vn 0 0.58248 0.81285
vn 1 0 -0
vn 1 -0 -0
vn 1 0 0
vn 1 0 0
vn 0 0.81285 -0.58248
vn -0 0.58248 0.81285
vn 0 0.58248 0.81285
vn -0 0.81285 -0.58248
vn 0 0.58248 0.81285
vn -0 0.81285 -0.58248
vn -0 0.58248 0.81285
vn -0 0.58248 0.81285
vn 0 0.81285 -0.58248
vn 1 0 0
vn 1 0 0
vn 1 0 0
vn 1 0 0
vn 1 0 0
vn 0 0.58248 0.81285
vn 0 0.58248 0.81285
vn 0 0.81285 -0.58248
vn -0 0.58248 0.81285
vn -0 0.58248 0.81285
vn -0 0.81285 -0.58248
vn 0 0.58248 0.81285
vn 0 0.81285 -0.58248
vn 0 -0.06531 -0.99786
vn -0 -0.06531 -0.99786
vn -0 -0.06531 -0.99786
vn 0 -0.06531 -0.99786
vn -0 0.58248 0.81285
vn 0 -0.06531 -0.99786
vn 0 -0.06531 -0.99786
vn 0 0.58248 0.81285
vn 0 0.58248 0.81285
vn 0 -0.06531 -0.99786
vn 0 -0.06531 -0.99786
vn -1 0 0
vn -0 0.58248 0.81285
vn -0 -0.06531 -0.99786
vn 1 -0 0
vn -0 0.58248 0.81285
vn 0 -0.06531 -0.99786
vn -0 -0.06531 -0.99786
vn -0 0.58248 0.81285
vn -0 0.58248 0.81285
vn -1 0 -0
vn -1 0 0
vn 1 0 -0
vn -0 0.58248 0.81285
vn 1 0 0
vn 1 0 0
vn 1 0 0
vn 0 0.58248 0.81285
vn -0 -0.06531 -0.99786
vn 0 0.58248 0.81285
vn -0 0.58248 0.81285
vn 0 0.81285 -0.58248
vn 1 0 0
vn 0 0.81285 -0.58248
vn 0 0.81285 -0.58248
vn -0 -0.58248 -0.81285
vn 1 0 0
vn -0 0.81285 -0.58248
vn 0 1 -0.00038
vn -0 0.81285 -0.58248
vn 0 1 -0.00038
vn 0 0.81285 -0.58248
vn 0 0.81285 -0.58248
vn 1 0 0
vn 1 0 0
vn 1 0 0
vn 0 0.81285 -0.58248
vn 0 1 -0.00038
vn -0 0.81285 -0.58248
vn 0 0.81285 -0.58248
vn 0 1 -0.00038
vn -1 -0 0
vn 1 0 0
vn -0 1 -0.00038
vn 0 0.81285 -0.58248
vn 0 0.81285 -0.58248
vn -0 1 -0.00038
vn 0 0.81285 -0.58248
vn -0 1 -0.00038
vn 0 1 -0.00038
vn -0 0.81285 -0.58248
vn -0 0.81285 -0.58248
vn -0 1 -0.00038
vn 0 0.81285 -0.58248
vn 0 0.81285 -0.58248
vn -0 1 -0.00038
vn -0 1 -0.00038
vn -0 0.81285 -0.58248
vn 0 0.81285 -0.58248
vn -0 1 -0.00038
vn 0 0.81285 -0.58248
vn -0 1 -0.00038
vn 0 0.58248 0.81285
vn -0 0.58248 0.81285
vn 0 0.06531 0.99786
vn 0 0.58248 0.81285
vn 0 0.58248 0.81285
vn 0 0.06531 0.99786
vn 0 0.58248 0.81285
vn 0 0.06531 0.99786
vn 1 -0 -0
vn 0 0.58248 0.81285
vn -0 0.58248 0.81285
vn 1 -0 0
vn 0 0.58248 0.81285
vn -0 0.06531 0.99786
vn 0 0.06531 0.99786
vn 0 0.06531 0.99786
vn -0 0.58248 0.81285
vn -0 0.58248 0.81285
vn 0 0.06531 0.99786
vn 1 -0 -0
vn -0 0.06531 0.99786
vn -0 0.58248 0.81285
vn 0 0.58248 0.81285
vn -1 0 0
vn -0 0.58248 0.81285
vn -1 0 0
vn 1 0 0
vn -0 0.58248 0.81285
vn 1 0 0
vn 1 0 0
vn -0 0.58248 0.81285
vn -0 1 -0.00038
vn 0 0.58248 0.81285
vn -0 0.58248 0.81285
vn -0 1 -0.00038
vn 0 0.58248 0.81285
vn -0 1 -0.00038
vn 1 0 0
vn 0 0.58248 0.81285
vn 0 1 -0.00038
vn 0 0.58248 0.81285
vn 0 0.58248 0.81285
vn -0 1 -0.00038
vn 0 0 0
vn -0 0.58248 0.81285
vn 0 1 -0.00038
vn 0 0 0
vn 0 0 0
vn 0 0 0
vn 0 0 0
vn 0 0 0
vn 0 0 0
vn 0 0 0
vn -0 0.58248 0.81285
vn -0 0.58248 0.81285
vn 0 1 -0.00038
vn -0 0.58248 0.81285
vn 0 1 -0.00038
vn 0 0.58248 0.81285
vn 0 1 -0.00038
vn -1 -0 0
vn -0 1 -0.00038
vn 0 0.58248 0.81285
vn -1 -0 0
vn -0 0.58248 0.81285
vn -0 1 -0.00038
vn 0 0.58248 0.81285
vn 0 0.81285 -0.58248
vn 0 -0.58248 -0.81285
vn -0 -0.58248 -0.81285
vn 0 1 -0.00038
vn 0 0.81285 -0.58248
vn 0 0.81285 -0.58248
vn 0 -0.58248 -0.81285
vn -1 -0 0
vn -1 0 0
vn -1 -0 0
vn 0 0.81285 -0.58248
vn 0 0.06531 0.99786
vn 0 0.58248 0.81285
vn -0 0.58248 0.81285
vn -0 0.06531 0.99786
vn 0 0.06531 0.99786
vn 0 0.06531 0.99786
vn 0 0.58248 0.81285
vn -0 0.58248 0.81285
vn -1 -0 0
vn 0 0.06531 0.99786
vn -1 -0 0
vn 0 0.58248 0.81285
vn -0 0.58248 0.81285
vn 0 1 -0.00038
vn -0 0.58248 0.81285
vn -1 -0 0
vn 0 0.81285 -0.58248
vn 0 -0.58248 -0.81285
vn 0 -0.58248 -0.81285
vn -0 0.81285 -0.58248
vn 0 -0.58248 -0.81285
vn 0 0.81285 -0.58248
vn -0 1 -0.00038
vn 0 0.81285 -0.58248
vn 1 0 0
vn 0 0.81285 -0.58248
vn 0 1 -0.00038
vn 0 0.81285 -0.58248
vn 0 1 -0.00038
vn -0 0.81285 -0.58248
vn -0 1 -0.00038
vn 0 0.81285 -0.58248
vn -0 1 -0.00038
vn 0 0.81285 -0.58248
vn 0 1 -0.00038
vn -0 0.81285 -0.58248
vn 0 0.58366 0.812
vn -0 0.58248 0.81285
vn 0 1 -0.00038
vn 0 1 -0.00038
vn 0 0.58248 0.81285
vn -0 1 -0.00038
vn -0 0.58248 0.81285
vn 0 0.58248 0.81285
vn -0 1 -0.00038
vn 0 1 -0.00038
vn -0 0.58248 0.81285
vn -1 0 0
vn -0 1 -0.00038
vn -0 0.58248 0.81285
vn -0 1 -0.00038
vn -0 0.58248 0.81285
vn -0 1 -0.00038
vn 0 0.58248 0.81285
vn -0 1 -0.00038
vn -0 0.81285 -0.58248
vn 0 1 -0.00038
vn 0 0.81285 -0.58248
vn 0 1 -0.00038
vn -0 0.58248 0.81285
vn 0 1 -0.00038
vn 0 0.06531 0.99786
vn 0 0.06531 0.99786
vn -1 -0 0
vn 0 1 -0.00038
vn 0 1 -0.00038
vn 1 0 0
vn 1 -0 -0
vn 0 0.06531 0.99786
vn 0 1 -0.00038
vn -0 -0.58248 -0.81285
vn -1 -0 0
vn -1 0 0
vn 0 1 -0.00038
vn 0 1 -0.00038
vn 1 0 0
vn 1 0 0
vn -0 -0.58248 -0.81285
vn -0 -0.58248 -0.81285
vn -0 -0.58248 -0.81285
vn 0 -0.58248 -0.81285
vn -0 -0.58248 -0.81285
vn 0 0.06531 0.99786
vn 0 0.06531 0.99786
vn 0 0.06531 0.99786
f 2//5 1//1 3//8
f 4//12 1//2 5//13
f 1//3 6//18 7//21
f 9//1 1//4 8//22
f 3//8 1//1 10//27
f 1//2 4//12 12//34
f 14//39 1//2 13//36
f 5//13 1//2 14//39
f 15//40 1//3 16//43
f 1//3 7//21 16//43
f 1//4 2//7 17//48
f 1//4 9//1 18//1
f 1//1 19//52 10//27
f 20//55 11//30 12//34
f 4//12 20//55 12//34
f 19//53 1//2 12//34
f 13//36 1//2 21//58
f 17//48 22//63 1//4
f 23//65 1//4 24//68
f 24//68 1//4 18//1
f 21//58 1//2 25//71
f 26//74 8//22 1//4
f 22//63 26//74 1//4
f 1//4 23//65 27//1
f 1//2 15//42 25//71
f 28//84 1//4 29//1
f 29//1 1//4 27//1
f 1//4 28//84 30//94
f 6//16 1//4 31//95
f 1//4 30//94 31//95
f 33//104 32//98 34//110
f 38//126 33//107 44//147
f 49//160 50//162 51//166
f 49//159 54//173 53//170
f 54//174 49//160 58//185
f 49//160 51//166 58//185
f 39//134 57//182 38//128
f 55//176 37//120 40//136
f 25//73 32//100 21//59
f 16//45 34//111 15//41
f 34//111 32//99 15//41
f 7//20 34//112 16//44
f 34//113 7//19 6//17
f 33//105 34//113 6//17
f 30//93 33//106 31//96
f 21//60 32//101 13//35
f 28//83 33//107 30//92
f 37//122 14//37 13//35
f 37//122 13//35 32//101
f 14//38 37//123 5//14
f 44//1 18//51 9//26
f 44//1 9//26 38//1
f 33//107 28//83 29//1
f 33//107 29//1 44//147
f 44//1 23//1 24//67
f 10//29 49//158 3//9
f 50//163 12//33 11//31
f 50//163 11//31 52//167
f 12//33 50//163 19//54
f 50//163 49//157 19//54
f 3//10 49//159 2//6
f 49//159 53//170 2//6
f 52//168 11//32 20//57
f 52//168 20//57 55//177
f 56//179 22//61 17//47
f 56//179 17//47 53//171
f 27//1 44//1 29//91
f 57//183 26//75 22//62
f 57//183 22//62 56//181
f 4//11 55//178 20//56
f 38//127 23//64 24//70
f 38//127 24//70 39//131
f 44//144 27//82 23//64
f 44//146 23//64 38//127
f 26//75 57//183 8//23
f 55//178 4//11 5//15
f 55//178 5//15 37//124
f 39//133 9//1 8//23
f 39//133 8//23 57//183
f 9//1 39//132 18//1
f 32//99 25//72 15//41
f 31//97 33//105 6//17
f 18//51 44//1 24//67
f 23//66 44//146 27//1
f 49//157 10//28 19//54
f 53//170 17//46 2//6
f 39//132 24//69 18//1
f 44//148 29//1 27//1
f 59//188 32//103 60//191
f 32//103 33//109 60//191
f 36//117 35//114 62//198
f 37//121 32//102 64//203
f 33//108 38//125 66//206
f 37//121 63//199 67//211
f 40//135 37//121 67//211
f 41//138 69//214 68//212
f 41//138 68//212 42//140
f 42//140 65//205 38//125
f 36//118 70//217 43//143
f 45//151 61//194 35//115
f 47//154 69//214 41//138
f 43//143 70//217 73//224
f 43//143 73//224 47//154
f 48//156 74//225 72//221
f 48//156 72//221 45//151
f 40//135 75//227 74//225
f 40//135 74//225 48//156
f 51//165 77//232 76//229
f 51//165 76//229 58//186
f 50//161 78//235 77//233
f 50//161 77//233 51//164
f 79//238 55//176 80//239
f 53//172 81//241 82//245
f 54//175 83//246 81//241
f 54//175 81//241 53//172
f 55//176 79//238 84//250
f 50//161 52//169 84//250
f 52//169 55//176 84//250
f 56//180 86//253 85//251
f 56//180 85//251 57//184
f 58//187 76//230 83//246
f 58//187 83//246 54//175
f 40//136 87//256 88//259
f 55//176 40//136 88//259
f 89//261 35//116 90//262
f 35//116 36//119 90//262
f 87//256 40//136 91//264
f 40//136 48//155 91//264
f 45//149 93//269 92//267
f 45//149 92//267 48//155
f 42//139 94//273 41//137
f 47//153 97//285 96//282
f 47//153 96//282 43//142
f 46//152 38//130 99//291
f 57//184 85//251 100//293
f 38//129 57//184 100//293
f 46//152 95//1 42//139
f 35//116 89//261 93//270
f 35//116 93//270 45//150
f 43//141 101//295 36//119
f 41//137 97//285 47//153
f 60//191 33//109 102//296
f 36//117 62//198 103//300
f 32//102 59//190 64//203
f 33//108 105//306 104//301
f 33//108 66//206 105//306
f 75//227 40//135 67//211
f 106//308 50//161 107//309
f 50//161 106//308 108//313
f 86//253 56//180 109//314
f 56//180 53//172 110//318
f 53//172 82//245 110//318
f 107//309 50//161 84//250
f 80//239 55//176 88//259
f 38//129 112//321 99//291
f 112//321 38//129 100//293
f 102//296 33//109 113//323
f 71//218 36//117 103//300
f 114//326 33//108 104//301
f 78//235 50//161 108//313
f 109//314 56//180 110//318
f 33//109 114//328 113//323
f 61//196 115//330 35//114
f 115//330 62//198 35//114
f 64//203 116//332 37//121
f 116//332 63//199 37//121
f 65//205 117//334 38//125
f 117//334 66//206 38//125
f 68//212 118//336 42//140
f 118//336 65//205 42//140
f 71//220 119//338 36//118
f 119//338 70//217 36//118
f 72//221 120//340 45//151
f 73//224 121//342 47//154
f 94//273 42//139 122//344
f 42//139 95//1 122//344
f 95//281 94//272 122//343
f 99//291 123//347 46//152
f 123//347 98//287 46//152
f 98//287 124//349 46//152
f 124//349 95//1 46//152
f 125//350 101//295 43//141
f 94//273 126//353 41//137
f 126//353 97//285 41//137
f 111//319 128//356 36//119
f 128//356 90//262 36//119
f 92//267 129//358 48//155
f 129//358 91//264 48//155
f 101//295 130//360 36//119
f 130//360 111//319 36//119
f 120//340 131//362 45//151
f 131//362 61//194 45//151
f 121//342 132//364 47//154
f 132//364 69//214 47//154
f 96//283 133//366 43//141
f 133//366 125//350 43//141
f 137//376 134//367 138//381
f 138//385 139//388 137//377
f 135//368 140//391 136//375
f 136//373 88//257 87//255
f 80//240 136//374 79//237
f 103//299 134//367 71//219
f 134//367 137//380 71//219
f 134//367 103//299 62//197
f 60//193 138//383 59//189
f 136//375 140//391 107//310
f 82//244 140//389 110//316
f 110//316 140//389 135//369
f 67//210 138//381 75//228
f 138//381 134//367 75//228
f 137//378 104//303 105//305
f 135//370 99//289 112//322
f 139//388 113//324 114//327
f 137//377 139//388 114//327
f 86//254 135//370 85//252
f 102//298 139//386 60//192
f 60//192 139//386 138//384
f 139//387 102//297 113//325
f 108//312 140//390 78//236
f 91//266 136//373 87//255
f 138//382 116//331 64//202
f 136//374 84//248 79//237
f 88//258 136//374 80//240
f 135//371 111//320 130//359
f 135//371 130//359 101//294
f 135//371 128//355 111//320
f 128//355 135//371 90//263
f 90//263 135//371 136//372
f 138//383 64//201 59//189
f 107//310 140//391 106//307
f 84//249 136//375 107//310
f 136//372 91//265 129//357
f 136//372 129//357 92//268
f 137//379 127//354 66//208
f 100//292 135//370 112//322
f 137//379 105//304 127//354
f 104//302 137//377 114//327
f 135//370 100//292 85//252
f 135//370 86//254 109//315
f 78//236 140//390 77//234
f 116//331 138//382 63//200
f 119//337 137//380 70//216
f 137//380 119//337 71//219
f 140//391 108//311 106//307
f 136//372 92//268 93//271
f 75//228 134//367 74//226
f 110//317 135//370 109//315
f 77//234 140//390 76//231
f 138//382 67//209 63//200
f 125//351 135//371 101//294
f 70//216 137//380 73//223
f 136//372 93//271 89//260
f 134//367 131//361 120//339
f 74//226 134//367 72//222
f 76//231 140//390 83//247
f 135//371 125//351 133//365
f 135//371 133//365 96//284
f 90//263 136//372 89//260
f 131//361 134//367 61//195
f 134//367 120//339 72//222
f 83//247 140//390 81//242
f 135//371 96//284 97//286
f 137//380 121//341 73//223
f 134//367 62//197 115//329
f 134//367 115//329 61//195
f 140//390 82//243 81//242
f 132//363 137//380 69//215
f 137//380 132//363 121//341
f 126//352 135//371 97//286
f 69//215 137//380 68//213
f 135//371 126//352 94//274
f 135//371 122//345 95//1
f 122//345 135//371 94//1
f 118//335 137//380 65//204
f 137//380 118//335 68//213
f 124//348 135//371 95//1
f 135//371 124//348 98//288
f 137//380 66//207 117//333
f 137//380 117//333 65//204
f 135//371 123//346 99//290
f 123//346 135//371 98//288
