#Produced by Art of Illusion 2.9.2, Fri Apr 05 12:13:23 EDT 2013
s 0
g Cube_4
v 15 -19 -35
v -15 -19 -35
v 0 -18 -35
v 15 -17 -35
v -15 -17 -35
v 15 -18 -33
v 15 -17 -31
v 15 -19 -31
v 0 -19 -33
v -15 -19 -31
v -15 -18 -33
v -15 -17 -31
v 0 -18 -31
v 0 -17 -33
f 1 2 3
f 4 1 3
f 5 4 3
f 2 5 3
f 1 4 6
f 4 7 6
f 7 8 6
f 8 1 6
f 2 1 9
f 1 8 9
f 8 10 9
f 10 2 9
f 5 2 11
f 2 10 11
f 10 12 11
f 12 5 11
f 10 8 13
f 8 7 13
f 7 12 13
f 12 10 13
f 4 5 14
f 5 12 14
f 12 7 14
f 7 4 14
s 0
g Cube_3
v 55 -19 -15
v 51 -19 -15
v 53 -18 -15
v 55 -17 -15
v 51 -17 -15
v 55 -18 -0
v 55 -17 15
v 55 -19 15
v 53 -19 -0
v 51 -19 15
v 51 -18 -0
v 51 -17 15
v 53 -18 15
v 53 -17 -0
f 15 16 17
f 18 15 17
f 19 18 17
f 16 19 17
f 15 18 20
f 18 21 20
f 21 22 20
f 22 15 20
f 16 15 23
f 15 22 23
f 22 24 23
f 24 16 23
f 19 16 25
f 16 24 25
f 24 26 25
f 26 19 25
f 24 22 27
f 22 21 27
f 21 26 27
f 26 24 27
f 18 19 28
f 19 26 28
f 26 21 28
f 21 18 28
s 0
g Cube_2
v -50.26234 -19 -15
v -54.26234 -19 -15
v -52.26234 -18 -15
v -50.26234 -17 -15
v -54.26234 -17 -15
v -50.26234 -18 -0
v -50.26234 -17 15
v -50.26234 -19 15
v -52.26234 -19 -0
v -54.26234 -19 15
v -54.26234 -18 -0
v -54.26234 -17 15
v -52.26234 -18 15
v -52.26234 -17 -0
f 29 30 31
f 32 29 31
f 33 32 31
f 30 33 31
f 29 32 34
f 32 35 34
f 35 36 34
f 36 29 34
f 30 29 37
f 29 36 37
f 36 38 37
f 38 30 37
f 33 30 39
f 30 38 39
f 38 40 39
f 40 33 39
f 38 36 41
f 36 35 41
f 35 40 41
f 40 38 41
f 32 33 42
f 33 40 42
f 40 35 42
f 35 32 42
s 0
g Cube_1
v 15 -19 31
v -15 -19 31
v 0 -18 31
v 15 -17 31
v -15 -17 31
v 15 -18 33
v 15 -17 35
v 15 -19 35
v 0 -19 33
v -15 -19 35
v -15 -18 33
v -15 -17 35
v 0 -18 35
v 0 -17 33
f 43 44 45
f 46 43 45
f 47 46 45
f 44 47 45
f 43 46 48
f 46 49 48
f 49 50 48
f 50 43 48
f 44 43 51
f 43 50 51
f 50 52 51
f 52 44 51
f 47 44 53
f 44 52 53
f 52 54 53
f 54 47 53
f 52 50 55
f 50 49 55
f 49 54 55
f 54 52 55
f 46 47 56
f 47 54 56
f 54 49 56
f 49 46 56
g Pin_4
v -41.5 1.5 28
v -41.59607 1.5 27.02455
v -41.8806 1.5 26.08658
v -42.34265 1.5 25.22215
v -42.96447 1.5 24.46447
v -43.72215 1.5 23.84265
v -44.58658 1.5 23.3806
v -45.52455 1.5 23.09607
v -46.5 1.5 23
v -47.47545 1.5 23.09607
v -48.41342 1.5 23.3806
v -49.27785 1.5 23.84265
v -50.03553 1.5 24.46447
v -50.65735 1.5 25.22215
v -51.1194 1.5 26.08658
v -51.40393 1.5 27.02455
v -51.5 1.5 28
v -51.40393 1.5 28.97545
v -51.1194 1.5 29.91342
v -50.65735 1.5 30.77785
v -50.03553 1.5 31.53553
v -49.27785 1.5 32.15735
v -48.41342 1.5 32.6194
v -47.47545 1.5 32.90393
v -46.5 1.5 33
v -45.52455 1.5 32.90393
v -44.58658 1.5 32.6194
v -43.72215 1.5 32.15735
v -42.96447 1.5 31.53553
v -42.34265 1.5 30.77785
v -41.8806 1.5 29.91342
v -41.59607 1.5 28.97545
v -41.5 13.5 28
v -41.59607 13.5 27.02455
v -41.8806 13.5 26.08658
v -42.34265 13.5 25.22215
v -42.96447 13.5 24.46447
v -43.72215 13.5 23.84265
v -44.58658 13.5 23.3806
v -45.52455 13.5 23.09607
v -46.5 13.5 23
v -47.47545 13.5 23.09607
v -48.41342 13.5 23.3806
v -49.27785 13.5 23.84265
v -50.03553 13.5 24.46447
v -50.65735 13.5 25.22215
v -51.1194 13.5 26.08658
v -51.40393 13.5 27.02455
v -51.5 13.5 28
v -51.40393 13.5 28.97545
v -51.1194 13.5 29.91342
v -50.65735 13.5 30.77785
v -50.03553 13.5 31.53553
v -49.27785 13.5 32.15735
v -48.41342 13.5 32.6194
v -47.47545 13.5 32.90393
v -46.5 13.5 33
v -45.52455 13.5 32.90393
v -44.58658 13.5 32.6194
v -43.72215 13.5 32.15735
v -42.96447 13.5 31.53553
v -42.34265 13.5 30.77785
v -41.8806 13.5 29.91342
v -41.59607 13.5 28.97545
v -46.5 13.5 28
v -45.5 1.5 28
v -45.57612 1.5 27.61732
v -45.79289 1.5 27.29289
v -46.5 1.5 27
v -46.11732 1.5 27.07612
v -46.88268 1.5 27.07612
v -47.20711 1.5 27.29289
v -47.42388 1.5 27.61732
v -47.42388 1.5 28.38268
v -47.5 1.5 28
v -47.20711 1.5 28.70711
v -46.88268 1.5 28.92388
v -46.5 1.5 29
v -46.11732 1.5 28.92388
v -45.79289 1.5 28.70711
v -45.57612 1.5 28.38268
v -46.5 -3.5 28
v -45.5 -3.5 28
v -45.57612 -3.5 27.61732
v -45.79289 -3.5 27.29289
v -46.11732 -3.5 27.07612
v -46.5 -3.5 27
v -46.88268 -3.5 27.07612
v -47.20711 -3.5 27.29289
v -47.42388 -3.5 27.61732
v -47.5 -3.5 28
v -47.42388 -3.5 28.38268
v -47.20711 -3.5 28.70711
v -46.88268 -3.5 28.92388
v -46.5 -3.5 29
v -46.11732 -3.5 28.92388
v -45.79289 -3.5 28.70711
v -45.57612 -3.5 28.38268
vn 0 -1 0
vn 1 0 0
vn 0 -1 0
vn 0.98079 0 -0.19509
vn 0 -1 0
vn 0.92388 0 -0.38268
vn 0 -1 0
vn 0.83147 0 -0.55557
vn 0 -1 0
vn 0.70711 0 -0.70711
vn 0 -1 0
vn 0.55557 0 -0.83147
vn 0 -1 0
vn 0.38268 0 -0.92388
vn 0 -1 0
vn 0.19509 0 -0.98079
vn 0 -1 0
vn 0 0 -1
vn 0 -1 0
vn -0.19509 0 -0.98079
vn 0 -1 0
vn -0.38268 0 -0.92388
vn 0 -1 0
vn -0.55557 0 -0.83147
vn 0 -1 0
vn -0.70711 0 -0.70711
vn 0 -1 0
vn -0.83147 0 -0.55557
vn 0 -1 0
vn -0.92388 0 -0.38268
vn 0 -1 0
vn -0.98079 0 -0.19509
vn 0 -1 0
vn -1 0 0
vn 0 -1 -0
vn -0.98079 0 0.19509
vn 0 -1 -0
vn -0.92388 0 0.38268
vn 0 -1 0
vn -0.83147 0 0.55557
vn -0 -1 0
vn -0.70711 0 0.70711
vn -0 -1 0
vn -0.55557 0 0.83147
vn 0 -1 0
vn -0.38268 0 0.92388
vn 0 -1 0
vn -0.19509 0 0.98079
vn 0 -1 0
vn -0 0 1
vn 0 -1 0
vn 0.19509 0 0.98079
vn -0 -1 0
vn 0.38268 0 0.92388
vn 0 -1 0
vn 0.55557 0 0.83147
vn 0 -1 0
vn 0.70711 0 0.70711
vn 0 -1 0
vn 0.83147 0 0.55557
vn 0 -1 0
vn 0.92388 0 0.38268
vn 0 -1 0
vn 0.98079 0 0.19509
vn 0 1 0
vn 1 0 0
vn 0 1 0
vn 0.98079 0 -0.19509
vn 0 1 0
vn 0.92388 0 -0.38268
vn 0 1 0
vn 0.83147 0 -0.55557
vn 0 1 0
vn 0.70711 0 -0.70711
vn 0 1 0
vn 0.55557 0 -0.83147
vn 0 1 0
vn 0.38268 0 -0.92388
vn 0 1 0
vn 0.19509 0 -0.98079
vn 0 1 0
vn -0 0 -1
vn 0 1 0
vn -0.19509 0 -0.98079
vn 0 1 0
vn -0.38268 0 -0.92388
vn 0 1 0
vn -0.55557 0 -0.83147
vn 0 1 0
vn -0.70711 0 -0.70711
vn 0 1 0
vn -0.83147 0 -0.55557
vn 0 1 0
vn -0.92388 0 -0.38268
vn 0 1 0
vn -0.98079 0 -0.19509
vn 0 1 0
vn -1 0 0
vn 0 1 0
vn -0.98079 0 0.19509
vn 0 1 0
vn -0.92388 0 0.38268
vn 0 1 0
vn -0.83147 0 0.55557
vn 0 1 0
vn -0.70711 0 0.70711
vn 0 1 0
vn -0.55557 0 0.83147
vn 0 1 0
vn -0.38268 0 0.92388
vn 0 1 0
vn -0.19509 0 0.98079
vn 0 1 0
vn -0 0 1
vn 0 1 0
vn 0.19509 0 0.98079
vn 0 1 0
vn 0.38268 0 0.92388
vn 0 1 0
vn 0.55557 0 0.83147
vn 0 1 0
vn 0.70711 0 0.70711
vn 0 1 0
vn 0.83147 0 0.55557
vn 0 1 0
vn 0.92388 0 0.38268
vn 0 1 0
vn 0.98079 0 0.19509
vn 0 1 0
vn 1 0 -0
vn 0 -1 0
vn 0 -1 0
vn 0.92388 0 -0.38268
vn 0 -1 0
vn 0.70711 0 -0.70711
vn 0 -1 0
vn -0 0 -1
vn 0 -1 0
vn 0.38268 -0 -0.92388
vn -0 -1 0
vn -0.38268 0 -0.92388
vn -0.70711 0 -0.70711
vn -0 -1 -0
vn -0.92388 0 -0.38268
vn 0 -1 -0
vn -0.92388 0 0.38268
vn -0 -1 -0
vn -0 -1 0
vn -1 0 0
vn -0 -1 -0
vn -0.70711 0 0.70711
vn -0.38268 0 0.92388
vn 0 -1 -0
vn 0 -1 0
vn 0 0 1
vn 0.38268 0 0.92388
vn -0 -1 0
vn -0 -1 -0
vn 0.70711 0 0.70711
vn 0 -1 -0
vn 0.92388 -0 0.38268
vn 0 -1 0
vn 0 -1 0
vn 1 -0 0
vn 0 -1 0
vn 0.92388 0 -0.38268
vn 0 -1 0
vn 0.70711 0 -0.70711
vn 0 -1 0
vn 0.38268 0 -0.92388
vn 0 -1 0
vn -0 0 -1
vn 0 -1 0
vn -0.38268 0 -0.92388
vn 0 -1 0
vn -0.70711 0 -0.70711
vn 0 -1 0
vn -0.92388 0 -0.38268
vn 0 -1 0
vn -1 0 -0
vn 0 -1 0
vn -0.92388 0 0.38268
vn 0 -1 0
vn -0.70711 0 0.70711
vn 0 -1 0
vn -0.38268 0 0.92388
vn 0 -1 0
vn -0 0 1
vn 0 -1 0
vn 0.38268 0 0.92388
vn 0 -1 0
vn 0.70711 0 0.70711
vn 0 -1 0
vn 0.92388 -0 0.38268
f 89//66 57//2 58//4
f 90//68 58//4 59//6
f 91//70 59//6 60//8
f 92//72 60//8 61//10
f 93//74 61//10 62//12
f 94//76 62//12 63//14
f 95//78 63//14 64//16
f 96//80 64//16 65//18
f 97//82 65//18 66//20
f 98//84 66//20 67//22
f 99//86 67//22 68//24
f 100//88 68//24 69//26
f 101//90 69//26 70//28
f 102//92 70//28 71//30
f 103//94 71//30 72//32
f 104//96 72//32 73//34
f 105//98 73//34 74//36
f 106//100 74//36 75//38
f 107//102 75//38 76//40
f 108//104 76//40 77//42
f 109//106 77//42 78//44
f 110//108 78//44 79//46
f 111//110 79//46 80//48
f 112//112 80//48 81//50
f 113//114 81//50 82//52
f 114//116 82//52 83//54
f 115//118 83//54 84//56
f 116//120 84//56 85//58
f 117//122 85//58 86//60
f 118//124 86//60 87//62
f 119//126 87//62 88//64
f 120//128 88//64 57//2
f 89//66 58//4 90//68
f 90//68 59//6 91//70
f 91//70 60//8 92//72
f 92//72 61//10 93//74
f 93//74 62//12 94//76
f 94//76 63//14 95//78
f 95//78 64//16 96//80
f 96//80 65//18 97//82
f 97//82 66//20 98//84
f 98//84 67//22 99//86
f 99//86 68//24 100//88
f 100//88 69//26 101//90
f 101//90 70//28 102//92
f 102//92 71//30 103//94
f 103//94 72//32 104//96
f 104//96 73//34 105//98
f 105//98 74//36 106//100
f 106//100 75//38 107//102
f 107//102 76//40 108//104
f 108//104 77//42 109//106
f 109//106 78//44 110//108
f 110//108 79//46 111//110
f 111//110 80//48 112//112
f 112//112 81//50 113//114
f 113//114 82//52 114//116
f 114//116 83//54 115//118
f 115//118 84//56 116//120
f 116//120 85//58 117//122
f 117//122 86//60 118//124
f 118//124 87//62 119//126
f 119//126 88//64 120//128
f 120//128 57//2 89//66
f 121//129 89//65 90//67
f 121//129 90//67 91//69
f 121//129 91//69 92//71
f 121//129 92//71 93//73
f 121//129 93//73 94//75
f 121//129 94//75 95//77
f 121//129 95//77 96//79
f 121//129 96//79 97//81
f 121//129 97//81 98//83
f 121//129 98//83 99//85
f 121//129 99//85 100//87
f 121//129 100//87 101//89
f 121//129 101//89 102//91
f 121//129 102//91 103//93
f 121//129 103//93 104//95
f 121//129 104//95 105//97
f 121//129 105//97 106//99
f 121//129 106//99 107//101
f 121//129 107//101 108//103
f 121//129 108//103 109//105
f 121//129 109//105 110//107
f 121//129 110//107 111//109
f 121//129 111//109 112//111
f 121//129 112//111 113//113
f 121//129 113//113 114//115
f 121//129 114//115 115//117
f 121//129 115//117 116//119
f 121//129 116//119 117//121
f 121//129 117//121 118//123
f 121//129 118//123 119//125
f 121//129 119//125 120//127
f 121//129 120//127 89//65
f 140//166 123//133 122//130
f 57//1 122//131 58//3
f 58//3 122//131 123//132
f 59//5 58//3 123//132
f 141//168 142//170 124//135
f 59//5 123//132 60//7
f 60//7 123//132 124//134
f 61//9 60//7 124//134
f 153//192 154//194 136//159
f 61//9 124//134 62//11
f 141//168 124//135 123//133
f 63//13 62//11 124//134
f 63//13 126//138 125//136
f 63//13 125//136 64//15
f 144//174 127//141 125//137
f 65//17 64//15 125//136
f 139//164 122//130 137//161
f 65//17 125//136 66//19
f 66//19 125//136 127//140
f 67//21 66//19 127//140
f 130//146 148//182 132//151
f 67//21 127//140 68//23
f 68//23 127//140 128//143
f 69//25 68//23 128//143
f 154//194 137//161 136//159
f 69//25 128//143 70//27
f 70//27 128//143 129//145
f 71//29 70//27 129//145
f 135//156 152//190 136//159
f 71//29 129//145 72//31
f 129//144 147//180 131//149
f 73//33 72//31 129//145
f 73//33 131//148 130//147
f 73//33 130//147 74//35
f 139//164 140//166 122//130
f 75//37 74//35 130//147
f 75//37 130//147 132//150
f 75//37 132//150 76//39
f 131//149 147//180 130//146
f 77//41 76//39 132//150
f 77//41 132//150 133//153
f 77//41 133//153 78//43
f 133//152 150//186 134//155
f 79//45 78//43 133//153
f 79//45 133//153 134//154
f 79//45 134//154 80//47
f 152//190 135//156 134//155
f 81//49 80//47 134//154
f 145//176 128//142 127//141
f 81//49 134//154 82//51
f 82//51 134//154 135//157
f 83//53 82//51 135//157
f 83//53 135//157 136//158
f 83//53 136//158 84//55
f 142//170 143//172 125//137
f 85//57 84//55 136//158
f 152//190 153//192 136//159
f 85//57 136//158 86//59
f 86//59 136//158 137//160
f 87//61 86//59 137//160
f 151//188 152//190 134//155
f 87//61 137//160 88//63
f 88//63 137//160 122//131
f 57//1 88//63 122//131
f 150//186 151//188 134//155
f 149//184 150//186 133//152
f 126//138 63//13 124//134
f 132//151 149//184 133//152
f 124//135 142//170 126//139
f 146//178 129//144 128//142
f 148//182 149//184 132//151
f 131//148 73//33 129//145
f 147//180 148//182 130//146
f 146//178 147//180 129//144
f 145//176 146//178 128//142
f 140//166 141//168 123//133
f 144//174 145//176 127//141
f 143//172 144//174 125//137
f 154//194 139//164 137//161
f 126//139 142//170 125//137
f 140//165 139//163 138//162
f 141//167 140//165 138//162
f 142//169 141//167 138//162
f 143//171 142//169 138//162
f 144//173 143//171 138//162
f 145//175 144//173 138//162
f 146//177 145//175 138//162
f 147//179 146//177 138//162
f 148//181 147//179 138//162
f 149//183 148//181 138//162
f 150//185 149//183 138//162
f 151//187 150//185 138//162
f 152//189 151//187 138//162
f 153//191 152//189 138//162
f 154//193 153//191 138//162
f 139//163 154//193 138//162
g Pin_3
v 51.5 1.5 28
v 51.40393 1.5 27.02455
v 51.1194 1.5 26.08658
v 50.65735 1.5 25.22215
v 50.03553 1.5 24.46447
v 49.27785 1.5 23.84265
v 48.41342 1.5 23.3806
v 47.47545 1.5 23.09607
v 46.5 1.5 23
v 45.52455 1.5 23.09607
v 44.58658 1.5 23.3806
v 43.72215 1.5 23.84265
v 42.96447 1.5 24.46447
v 42.34265 1.5 25.22215
v 41.8806 1.5 26.08658
v 41.59607 1.5 27.02455
v 41.5 1.5 28
v 41.59607 1.5 28.97545
v 41.8806 1.5 29.91342
v 42.34265 1.5 30.77785
v 42.96447 1.5 31.53553
v 43.72215 1.5 32.15735
v 44.58658 1.5 32.6194
v 45.52455 1.5 32.90393
v 46.5 1.5 33
v 47.47545 1.5 32.90393
v 48.41342 1.5 32.6194
v 49.27785 1.5 32.15735
v 50.03553 1.5 31.53553
v 50.65735 1.5 30.77785
v 51.1194 1.5 29.91342
v 51.40393 1.5 28.97545
v 51.5 13.5 28
v 51.40393 13.5 27.02455
v 51.1194 13.5 26.08658
v 50.65735 13.5 25.22215
v 50.03553 13.5 24.46447
v 49.27785 13.5 23.84265
v 48.41342 13.5 23.3806
v 47.47545 13.5 23.09607
v 46.5 13.5 23
v 45.52455 13.5 23.09607
v 44.58658 13.5 23.3806
v 43.72215 13.5 23.84265
v 42.96447 13.5 24.46447
v 42.34265 13.5 25.22215
v 41.8806 13.5 26.08658
v 41.59607 13.5 27.02455
v 41.5 13.5 28
v 41.59607 13.5 28.97545
v 41.8806 13.5 29.91342
v 42.34265 13.5 30.77785
v 42.96447 13.5 31.53553
v 43.72215 13.5 32.15735
v 44.58658 13.5 32.6194
v 45.52455 13.5 32.90393
v 46.5 13.5 33
v 47.47545 13.5 32.90393
v 48.41342 13.5 32.6194
v 49.27785 13.5 32.15735
v 50.03553 13.5 31.53553
v 50.65735 13.5 30.77785
v 51.1194 13.5 29.91342
v 51.40393 13.5 28.97545
v 46.5 13.5 28
v 47.5 1.5 28
v 47.42388 1.5 27.61732
v 47.20711 1.5 27.29289
v 46.5 1.5 27
v 46.88268 1.5 27.07612
v 46.11732 1.5 27.07612
v 45.79289 1.5 27.29289
v 45.57612 1.5 27.61732
v 45.57612 1.5 28.38268
v 45.5 1.5 28
v 45.79289 1.5 28.70711
v 46.11732 1.5 28.92388
v 46.5 1.5 29
v 46.88268 1.5 28.92388
v 47.20711 1.5 28.70711
v 47.42388 1.5 28.38268
v 46.5 -3.5 28
v 47.5 -3.5 28
v 47.42388 -3.5 27.61732
v 47.20711 -3.5 27.29289
v 46.88268 -3.5 27.07612
v 46.5 -3.5 27
v 46.11732 -3.5 27.07612
v 45.79289 -3.5 27.29289
v 45.57612 -3.5 27.61732
v 45.5 -3.5 28
v 45.57612 -3.5 28.38268
v 45.79289 -3.5 28.70711
v 46.11732 -3.5 28.92388
v 46.5 -3.5 29
v 46.88268 -3.5 28.92388
v 47.20711 -3.5 28.70711
v 47.42388 -3.5 28.38268
vn 0 -1 0
vn 1 0 0
vn 0 -1 0
vn 0.98079 0 -0.19509
vn 0 -1 0
vn 0.92388 0 -0.38268
vn 0 -1 0
vn 0.83147 0 -0.55557
vn 0 -1 0
vn 0.70711 0 -0.70711
vn 0 -1 0
vn 0.55557 0 -0.83147
vn 0 -1 0
vn 0.38268 0 -0.92388
vn 0 -1 0
vn 0.19509 0 -0.98079
vn 0 -1 0
vn 0 0 -1
vn 0 -1 0
vn -0.19509 0 -0.98079
vn 0 -1 0
vn -0.38268 0 -0.92388
vn 0 -1 0
vn -0.55557 0 -0.83147
vn 0 -1 0
vn -0.70711 0 -0.70711
vn 0 -1 0
vn -0.83147 0 -0.55557
vn 0 -1 0
vn -0.92388 0 -0.38268
vn 0 -1 0
vn -0.98079 0 -0.19509
vn 0 -1 0
vn -1 0 0
vn 0 -1 -0
vn -0.98079 0 0.19509
vn 0 -1 -0
vn -0.92388 0 0.38268
vn 0 -1 0
vn -0.83147 0 0.55557
vn -0 -1 0
vn -0.70711 0 0.70711
vn -0 -1 0
vn -0.55557 0 0.83147
vn 0 -1 0
vn -0.38268 0 0.92388
vn 0 -1 0
vn -0.19509 0 0.98079
vn 0 -1 0
vn -0 0 1
vn 0 -1 0
vn 0.19509 0 0.98079
vn -0 -1 0
vn 0.38268 0 0.92388
vn 0 -1 0
vn 0.55557 0 0.83147
vn 0 -1 0
vn 0.70711 0 0.70711
vn 0 -1 0
vn 0.83147 0 0.55557
vn 0 -1 0
vn 0.92388 0 0.38268
vn 0 -1 0
vn 0.98079 0 0.19509
vn 0 1 0
vn 1 0 0
vn 0 1 0
vn 0.98079 0 -0.19509
vn 0 1 0
vn 0.92388 0 -0.38268
vn 0 1 0
vn 0.83147 0 -0.55557
vn 0 1 0
vn 0.70711 0 -0.70711
vn 0 1 0
vn 0.55557 0 -0.83147
vn 0 1 0
vn 0.38268 0 -0.92388
vn 0 1 0
vn 0.19509 0 -0.98079
vn 0 1 0
vn -0 0 -1
vn 0 1 0
vn -0.19509 0 -0.98079
vn 0 1 0
vn -0.38268 0 -0.92388
vn 0 1 0
vn -0.55557 0 -0.83147
vn 0 1 0
vn -0.70711 0 -0.70711
vn 0 1 0
vn -0.83147 0 -0.55557
vn 0 1 0
vn -0.92388 0 -0.38268
vn 0 1 0
vn -0.98079 0 -0.19509
vn 0 1 0
vn -1 0 0
vn 0 1 0
vn -0.98079 0 0.19509
vn 0 1 0
vn -0.92388 0 0.38268
vn 0 1 0
vn -0.83147 0 0.55557
vn 0 1 0
vn -0.70711 0 0.70711
vn 0 1 0
vn -0.55557 0 0.83147
vn 0 1 0
vn -0.38268 0 0.92388
vn 0 1 0
vn -0.19509 0 0.98079
vn 0 1 0
vn -0 0 1
vn 0 1 0
vn 0.19509 0 0.98079
vn 0 1 0
vn 0.38268 0 0.92388
vn 0 1 0
vn 0.55557 0 0.83147
vn 0 1 0
vn 0.70711 0 0.70711
vn 0 1 0
vn 0.83147 0 0.55557
vn 0 1 0
vn 0.92388 0 0.38268
vn 0 1 0
vn 0.98079 0 0.19509
vn 0 1 0
vn 1 0 -0
vn 0 -1 0
vn 0 -1 0
vn 0.92388 0 -0.38268
vn 0 -1 0
vn 0.70711 0 -0.70711
vn 0 -1 0
vn -0 0 -1
vn 0 -1 0
vn 0.38268 -0 -0.92388
vn -0 -1 0
vn -0.38268 0 -0.92388
vn -0.70711 0 -0.70711
vn -0 -1 -0
vn -0.92388 0 -0.38268
vn 0 -1 -0
vn -0.92388 0 0.38268
vn -0 -1 -0
vn -0 -1 0
vn -1 0 0
vn -0 -1 -0
vn -0.70711 0 0.70711
vn -0.38268 0 0.92388
vn 0 -1 -0
vn 0 -1 0
vn 0 0 1
vn 0.38268 0 0.92388
vn -0 -1 0
vn -0 -1 -0
vn 0.70711 0 0.70711
vn 0 -1 -0
vn 0.92388 -0 0.38268
vn 0 -1 0
vn 0 -1 0
vn 1 -0 0
vn 0 -1 0
vn 0.92388 0 -0.38268
vn 0 -1 0
vn 0.70711 0 -0.70711
vn 0 -1 0
vn 0.38268 0 -0.92388
vn 0 -1 0
vn -0 0 -1
vn 0 -1 0
vn -0.38268 0 -0.92388
vn 0 -1 0
vn -0.70711 0 -0.70711
vn 0 -1 0
vn -0.92388 0 -0.38268
vn 0 -1 0
vn -1 0 -0
vn 0 -1 0
vn -0.92388 0 0.38268
vn 0 -1 0
vn -0.70711 0 0.70711
vn 0 -1 0
vn -0.38268 0 0.92388
vn 0 -1 0
vn -0 0 1
vn 0 -1 0
vn 0.38268 0 0.92388
vn 0 -1 0
vn 0.70711 0 0.70711
vn 0 -1 0
vn 0.92388 -0 0.38268
f 187//260 155//196 156//198
f 188//262 156//198 157//200
f 189//264 157//200 158//202
f 190//266 158//202 159//204
f 191//268 159//204 160//206
f 192//270 160//206 161//208
f 193//272 161//208 162//210
f 194//274 162//210 163//212
f 195//276 163//212 164//214
f 196//278 164//214 165//216
f 197//280 165//216 166//218
f 198//282 166//218 167//220
f 199//284 167//220 168//222
f 200//286 168//222 169//224
f 201//288 169//224 170//226
f 202//290 170//226 171//228
f 203//292 171//228 172//230
f 204//294 172//230 173//232
f 205//296 173//232 174//234
f 206//298 174//234 175//236
f 207//300 175//236 176//238
f 208//302 176//238 177//240
f 209//304 177//240 178//242
f 210//306 178//242 179//244
f 211//308 179//244 180//246
f 212//310 180//246 181//248
f 213//312 181//248 182//250
f 214//314 182//250 183//252
f 215//316 183//252 184//254
f 216//318 184//254 185//256
f 217//320 185//256 186//258
f 218//322 186//258 155//196
f 187//260 156//198 188//262
f 188//262 157//200 189//264
f 189//264 158//202 190//266
f 190//266 159//204 191//268
f 191//268 160//206 192//270
f 192//270 161//208 193//272
f 193//272 162//210 194//274
f 194//274 163//212 195//276
f 195//276 164//214 196//278
f 196//278 165//216 197//280
f 197//280 166//218 198//282
f 198//282 167//220 199//284
f 199//284 168//222 200//286
f 200//286 169//224 201//288
f 201//288 170//226 202//290
f 202//290 171//228 203//292
f 203//292 172//230 204//294
f 204//294 173//232 205//296
f 205//296 174//234 206//298
f 206//298 175//236 207//300
f 207//300 176//238 208//302
f 208//302 177//240 209//304
f 209//304 178//242 210//306
f 210//306 179//244 211//308
f 211//308 180//246 212//310
f 212//310 181//248 213//312
f 213//312 182//250 214//314
f 214//314 183//252 215//316
f 215//316 184//254 216//318
f 216//318 185//256 217//320
f 217//320 186//258 218//322
f 218//322 155//196 187//260
f 219//323 187//259 188//261
f 219//323 188//261 189//263
f 219//323 189//263 190//265
f 219//323 190//265 191//267
f 219//323 191//267 192//269
f 219//323 192//269 193//271
f 219//323 193//271 194//273
f 219//323 194//273 195//275
f 219//323 195//275 196//277
f 219//323 196//277 197//279
f 219//323 197//279 198//281
f 219//323 198//281 199//283
f 219//323 199//283 200//285
f 219//323 200//285 201//287
f 219//323 201//287 202//289
f 219//323 202//289 203//291
f 219//323 203//291 204//293
f 219//323 204//293 205//295
f 219//323 205//295 206//297
f 219//323 206//297 207//299
f 219//323 207//299 208//301
f 219//323 208//301 209//303
f 219//323 209//303 210//305
f 219//323 210//305 211//307
f 219//323 211//307 212//309
f 219//323 212//309 213//311
f 219//323 213//311 214//313
f 219//323 214//313 215//315
f 219//323 215//315 216//317
f 219//323 216//317 217//319
f 219//323 217//319 218//321
f 219//323 218//321 187//259
f 238//360 221//327 220//324
f 155//195 220//325 156//197
f 156//197 220//325 221//326
f 157//199 156//197 221//326
f 239//362 240//364 222//329
f 157//199 221//326 158//201
f 158//201 221//326 222//328
f 159//203 158//201 222//328
f 251//386 252//388 234//353
f 159//203 222//328 160//205
f 239//362 222//329 221//327
f 161//207 160//205 222//328
f 161//207 224//332 223//330
f 161//207 223//330 162//209
f 242//368 225//335 223//331
f 163//211 162//209 223//330
f 237//358 220//324 235//355
f 163//211 223//330 164//213
f 164//213 223//330 225//334
f 165//215 164//213 225//334
f 228//340 246//376 230//345
f 165//215 225//334 166//217
f 166//217 225//334 226//337
f 167//219 166//217 226//337
f 252//388 235//355 234//353
f 167//219 226//337 168//221
f 168//221 226//337 227//339
f 169//223 168//221 227//339
f 233//350 250//384 234//353
f 169//223 227//339 170//225
f 227//338 245//374 229//343
f 171//227 170//225 227//339
f 171//227 229//342 228//341
f 171//227 228//341 172//229
f 237//358 238//360 220//324
f 173//231 172//229 228//341
f 173//231 228//341 230//344
f 173//231 230//344 174//233
f 229//343 245//374 228//340
f 175//235 174//233 230//344
f 175//235 230//344 231//347
f 175//235 231//347 176//237
f 231//346 248//380 232//349
f 177//239 176//237 231//347
f 177//239 231//347 232//348
f 177//239 232//348 178//241
f 250//384 233//350 232//349
f 179//243 178//241 232//348
f 243//370 226//336 225//335
f 179//243 232//348 180//245
f 180//245 232//348 233//351
f 181//247 180//245 233//351
f 181//247 233//351 234//352
f 181//247 234//352 182//249
f 240//364 241//366 223//331
f 183//251 182//249 234//352
f 250//384 251//386 234//353
f 183//251 234//352 184//253
f 184//253 234//352 235//354
f 185//255 184//253 235//354
f 249//382 250//384 232//349
f 185//255 235//354 186//257
f 186//257 235//354 220//325
f 155//195 186//257 220//325
f 248//380 249//382 232//349
f 247//378 248//380 231//346
f 224//332 161//207 222//328
f 230//345 247//378 231//346
f 222//329 240//364 224//333
f 244//372 227//338 226//336
f 246//376 247//378 230//345
f 229//342 171//227 227//339
f 245//374 246//376 228//340
f 244//372 245//374 227//338
f 243//370 244//372 226//336
f 238//360 239//362 221//327
f 242//368 243//370 225//335
f 241//366 242//368 223//331
f 252//388 237//358 235//355
f 224//333 240//364 223//331
f 238//359 237//357 236//356
f 239//361 238//359 236//356
f 240//363 239//361 236//356
f 241//365 240//363 236//356
f 242//367 241//365 236//356
f 243//369 242//367 236//356
f 244//371 243//369 236//356
f 245//373 244//371 236//356
f 246//375 245//373 236//356
f 247//377 246//375 236//356
f 248//379 247//377 236//356
f 249//381 248//379 236//356
f 250//383 249//381 236//356
f 251//385 250//383 236//356
f 252//387 251//385 236//356
f 237//357 252//387 236//356
g Pin_2
v -41.5 1.5 -28
v -41.59607 1.5 -28.97545
v -41.8806 1.5 -29.91342
v -42.34265 1.5 -30.77785
v -42.96447 1.5 -31.53553
v -43.72215 1.5 -32.15735
v -44.58658 1.5 -32.6194
v -45.52455 1.5 -32.90393
v -46.5 1.5 -33
v -47.47545 1.5 -32.90393
v -48.41342 1.5 -32.6194
v -49.27785 1.5 -32.15735
v -50.03553 1.5 -31.53553
v -50.65735 1.5 -30.77785
v -51.1194 1.5 -29.91342
v -51.40393 1.5 -28.97545
v -51.5 1.5 -28
v -51.40393 1.5 -27.02455
v -51.1194 1.5 -26.08658
v -50.65735 1.5 -25.22215
v -50.03553 1.5 -24.46447
v -49.27785 1.5 -23.84265
v -48.41342 1.5 -23.3806
v -47.47545 1.5 -23.09607
v -46.5 1.5 -23
v -45.52455 1.5 -23.09607
v -44.58658 1.5 -23.3806
v -43.72215 1.5 -23.84265
v -42.96447 1.5 -24.46447
v -42.34265 1.5 -25.22215
v -41.8806 1.5 -26.08658
v -41.59607 1.5 -27.02455
v -41.5 13.5 -28
v -41.59607 13.5 -28.97545
v -41.8806 13.5 -29.91342
v -42.34265 13.5 -30.77785
v -42.96447 13.5 -31.53553
v -43.72215 13.5 -32.15735
v -44.58658 13.5 -32.6194
v -45.52455 13.5 -32.90393
v -46.5 13.5 -33
v -47.47545 13.5 -32.90393
v -48.41342 13.5 -32.6194
v -49.27785 13.5 -32.15735
v -50.03553 13.5 -31.53553
v -50.65735 13.5 -30.77785
v -51.1194 13.5 -29.91342
v -51.40393 13.5 -28.97545
v -51.5 13.5 -28
v -51.40393 13.5 -27.02455
v -51.1194 13.5 -26.08658
v -50.65735 13.5 -25.22215
v -50.03553 13.5 -24.46447
v -49.27785 13.5 -23.84265
v -48.41342 13.5 -23.3806
v -47.47545 13.5 -23.09607
v -46.5 13.5 -23
v -45.52455 13.5 -23.09607
v -44.58658 13.5 -23.3806
v -43.72215 13.5 -23.84265
v -42.96447 13.5 -24.46447
v -42.34265 13.5 -25.22215
v -41.8806 13.5 -26.08658
v -41.59607 13.5 -27.02455
v -46.5 13.5 -28
v -45.5 1.5 -28
v -45.57612 1.5 -28.38268
v -45.79289 1.5 -28.70711
v -46.5 1.5 -29
v -46.11732 1.5 -28.92388
v -46.88268 1.5 -28.92388
v -47.20711 1.5 -28.70711
v -47.42388 1.5 -28.38268
v -47.42388 1.5 -27.61732
v -47.5 1.5 -28
v -47.20711 1.5 -27.29289
v -46.88268 1.5 -27.07612
v -46.5 1.5 -27
v -46.11732 1.5 -27.07612
v -45.79289 1.5 -27.29289
v -45.57612 1.5 -27.61732
v -46.5 -3.5 -28
v -45.5 -3.5 -28
v -45.57612 -3.5 -28.38268
v -45.79289 -3.5 -28.70711
v -46.11732 -3.5 -28.92388
v -46.5 -3.5 -29
v -46.88268 -3.5 -28.92388
v -47.20711 -3.5 -28.70711
v -47.42388 -3.5 -28.38268
v -47.5 -3.5 -28
v -47.42388 -3.5 -27.61732
v -47.20711 -3.5 -27.29289
v -46.88268 -3.5 -27.07612
v -46.5 -3.5 -27
v -46.11732 -3.5 -27.07612
v -45.79289 -3.5 -27.29289
v -45.57612 -3.5 -27.61732
vn 0 -1 0
vn 1 0 0
vn 0 -1 0
vn 0.98079 0 -0.19509
vn 0 -1 0
vn 0.92388 0 -0.38268
vn 0 -1 0
vn 0.83147 0 -0.55557
vn 0 -1 0
vn 0.70711 0 -0.70711
vn 0 -1 0
vn 0.55557 0 -0.83147
vn 0 -1 0
vn 0.38268 0 -0.92388
vn 0 -1 0
vn 0.19509 0 -0.98079
vn 0 -1 0
vn 0 0 -1
vn 0 -1 0
vn -0.19509 0 -0.98079
vn 0 -1 0
vn -0.38268 0 -0.92388
vn 0 -1 0
vn -0.55557 0 -0.83147
vn 0 -1 0
vn -0.70711 0 -0.70711
vn 0 -1 0
vn -0.83147 0 -0.55557
vn 0 -1 0
vn -0.92388 0 -0.38268
vn 0 -1 0
vn -0.98079 0 -0.19509
vn 0 -1 0
vn -1 0 0
vn 0 -1 -0
vn -0.98079 0 0.19509
vn 0 -1 -0
vn -0.92388 0 0.38268
vn 0 -1 0
vn -0.83147 0 0.55557
vn -0 -1 0
vn -0.70711 0 0.70711
vn -0 -1 0
vn -0.55557 0 0.83147
vn 0 -1 0
vn -0.38268 0 0.92388
vn 0 -1 0
vn -0.19509 0 0.98079
vn 0 -1 0
vn -0 0 1
vn 0 -1 0
vn 0.19509 0 0.98079
vn -0 -1 0
vn 0.38268 0 0.92388
vn 0 -1 0
vn 0.55557 0 0.83147
vn 0 -1 0
vn 0.70711 0 0.70711
vn 0 -1 0
vn 0.83147 0 0.55557
vn 0 -1 0
vn 0.92388 0 0.38268
vn 0 -1 0
vn 0.98079 0 0.19509
vn 0 1 0
vn 1 0 0
vn 0 1 0
vn 0.98079 0 -0.19509
vn 0 1 0
vn 0.92388 0 -0.38268
vn 0 1 0
vn 0.83147 0 -0.55557
vn 0 1 0
vn 0.70711 0 -0.70711
vn 0 1 0
vn 0.55557 0 -0.83147
vn 0 1 0
vn 0.38268 0 -0.92388
vn 0 1 0
vn 0.19509 0 -0.98079
vn 0 1 0
vn -0 0 -1
vn 0 1 0
vn -0.19509 0 -0.98079
vn 0 1 0
vn -0.38268 0 -0.92388
vn 0 1 0
vn -0.55557 0 -0.83147
vn 0 1 0
vn -0.70711 0 -0.70711
vn 0 1 0
vn -0.83147 0 -0.55557
vn 0 1 0
vn -0.92388 0 -0.38268
vn 0 1 0
vn -0.98079 0 -0.19509
vn 0 1 0
vn -1 0 0
vn 0 1 0
vn -0.98079 0 0.19509
vn 0 1 0
vn -0.92388 0 0.38268
vn 0 1 0
vn -0.83147 0 0.55557
vn 0 1 0
vn -0.70711 0 0.70711
vn 0 1 0
vn -0.55557 0 0.83147
vn 0 1 0
vn -0.38268 0 0.92388
vn 0 1 0
vn -0.19509 0 0.98079
vn 0 1 0
vn -0 0 1
vn 0 1 0
vn 0.19509 0 0.98079
vn 0 1 0
vn 0.38268 0 0.92388
vn 0 1 0
vn 0.55557 0 0.83147
vn 0 1 0
vn 0.70711 0 0.70711
vn 0 1 0
vn 0.83147 0 0.55557
vn 0 1 0
vn 0.92388 0 0.38268
vn 0 1 0
vn 0.98079 0 0.19509
vn 0 1 0
vn 1 0 -0
vn 0 -1 0
vn 0 -1 0
vn 0.92388 0 -0.38268
vn 0 -1 0
vn 0.70711 0 -0.70711
vn 0 -1 0
vn -0 0 -1
vn 0 -1 0
vn 0.38268 -0 -0.92388
vn -0 -1 0
vn -0.38268 0 -0.92388
vn -0.70711 0 -0.70711
vn -0 -1 -0
vn -0.92388 0 -0.38268
vn 0 -1 -0
vn -0.92388 0 0.38268
vn -0 -1 -0
vn -0 -1 0
vn -1 0 0
vn -0 -1 -0
vn -0.70711 0 0.70711
vn -0.38268 0 0.92388
vn 0 -1 -0
vn 0 -1 0
vn 0 0 1
vn 0.38268 0 0.92388
vn -0 -1 0
vn -0 -1 -0
vn 0.70711 0 0.70711
vn 0 -1 -0
vn 0.92388 -0 0.38268
vn 0 -1 0
vn 0 -1 0
vn 1 -0 0
vn 0 -1 0
vn 0.92388 0 -0.38268
vn 0 -1 0
vn 0.70711 0 -0.70711
vn 0 -1 0
vn 0.38268 0 -0.92388
vn 0 -1 0
vn -0 0 -1
vn 0 -1 0
vn -0.38268 0 -0.92388
vn 0 -1 0
vn -0.70711 0 -0.70711
vn 0 -1 0
vn -0.92388 0 -0.38268
vn 0 -1 0
vn -1 0 -0
vn 0 -1 0
vn -0.92388 0 0.38268
vn 0 -1 0
vn -0.70711 0 0.70711
vn 0 -1 0
vn -0.38268 0 0.92388
vn 0 -1 0
vn -0 0 1
vn 0 -1 0
vn 0.38268 0 0.92388
vn 0 -1 0
vn 0.70711 0 0.70711
vn 0 -1 0
vn 0.92388 -0 0.38268
f 285//454 253//390 254//392
f 286//456 254//392 255//394
f 287//458 255//394 256//396
f 288//460 256//396 257//398
f 289//462 257//398 258//400
f 290//464 258//400 259//402
f 291//466 259//402 260//404
f 292//468 260//404 261//406
f 293//470 261//406 262//408
f 294//472 262//408 263//410
f 295//474 263//410 264//412
f 296//476 264//412 265//414
f 297//478 265//414 266//416
f 298//480 266//416 267//418
f 299//482 267//418 268//420
f 300//484 268//420 269//422
f 301//486 269//422 270//424
f 302//488 270//424 271//426
f 303//490 271//426 272//428
f 304//492 272//428 273//430
f 305//494 273//430 274//432
f 306//496 274//432 275//434
f 307//498 275//434 276//436
f 308//500 276//436 277//438
f 309//502 277//438 278//440
f 310//504 278//440 279//442
f 311//506 279//442 280//444
f 312//508 280//444 281//446
f 313//510 281//446 282//448
f 314//512 282//448 283//450
f 315//514 283//450 284//452
f 316//516 284//452 253//390
f 285//454 254//392 286//456
f 286//456 255//394 287//458
f 287//458 256//396 288//460
f 288//460 257//398 289//462
f 289//462 258//400 290//464
f 290//464 259//402 291//466
f 291//466 260//404 292//468
f 292//468 261//406 293//470
f 293//470 262//408 294//472
f 294//472 263//410 295//474
f 295//474 264//412 296//476
f 296//476 265//414 297//478
f 297//478 266//416 298//480
f 298//480 267//418 299//482
f 299//482 268//420 300//484
f 300//484 269//422 301//486
f 301//486 270//424 302//488
f 302//488 271//426 303//490
f 303//490 272//428 304//492
f 304//492 273//430 305//494
f 305//494 274//432 306//496
f 306//496 275//434 307//498
f 307//498 276//436 308//500
f 308//500 277//438 309//502
f 309//502 278//440 310//504
f 310//504 279//442 311//506
f 311//506 280//444 312//508
f 312//508 281//446 313//510
f 313//510 282//448 314//512
f 314//512 283//450 315//514
f 315//514 284//452 316//516
f 316//516 253//390 285//454
f 317//517 285//453 286//455
f 317//517 286//455 287//457
f 317//517 287//457 288//459
f 317//517 288//459 289//461
f 317//517 289//461 290//463
f 317//517 290//463 291//465
f 317//517 291//465 292//467
f 317//517 292//467 293//469
f 317//517 293//469 294//471
f 317//517 294//471 295//473
f 317//517 295//473 296//475
f 317//517 296//475 297//477
f 317//517 297//477 298//479
f 317//517 298//479 299//481
f 317//517 299//481 300//483
f 317//517 300//483 301//485
f 317//517 301//485 302//487
f 317//517 302//487 303//489
f 317//517 303//489 304//491
f 317//517 304//491 305//493
f 317//517 305//493 306//495
f 317//517 306//495 307//497
f 317//517 307//497 308//499
f 317//517 308//499 309//501
f 317//517 309//501 310//503
f 317//517 310//503 311//505
f 317//517 311//505 312//507
f 317//517 312//507 313//509
f 317//517 313//509 314//511
f 317//517 314//511 315//513
f 317//517 315//513 316//515
f 317//517 316//515 285//453
f 336//554 319//521 318//518
f 253//389 318//519 254//391
f 254//391 318//519 319//520
f 255//393 254//391 319//520
f 337//556 338//558 320//523
f 255//393 319//520 256//395
f 256//395 319//520 320//522
f 257//397 256//395 320//522
f 349//580 350//582 332//547
f 257//397 320//522 258//399
f 337//556 320//523 319//521
f 259//401 258//399 320//522
f 259//401 322//526 321//524
f 259//401 321//524 260//403
f 340//562 323//529 321//525
f 261//405 260//403 321//524
f 335//552 318//518 333//549
f 261//405 321//524 262//407
f 262//407 321//524 323//528
f 263//409 262//407 323//528
f 326//534 344//570 328//539
f 263//409 323//528 264//411
f 264//411 323//528 324//531
f 265//413 264//411 324//531
f 350//582 333//549 332//547
f 265//413 324//531 266//415
f 266//415 324//531 325//533
f 267//417 266//415 325//533
f 331//544 348//578 332//547
f 267//417 325//533 268//419
f 325//532 343//568 327//537
f 269//421 268//419 325//533
f 269//421 327//536 326//535
f 269//421 326//535 270//423
f 335//552 336//554 318//518
f 271//425 270//423 326//535
f 271//425 326//535 328//538
f 271//425 328//538 272//427
f 327//537 343//568 326//534
f 273//429 272//427 328//538
f 273//429 328//538 329//541
f 273//429 329//541 274//431
f 329//540 346//574 330//543
f 275//433 274//431 329//541
f 275//433 329//541 330//542
f 275//433 330//542 276//435
f 348//578 331//544 330//543
f 277//437 276//435 330//542
f 341//564 324//530 323//529
f 277//437 330//542 278//439
f 278//439 330//542 331//545
f 279//441 278//439 331//545
f 279//441 331//545 332//546
f 279//441 332//546 280//443
f 338//558 339//560 321//525
f 281//445 280//443 332//546
f 348//578 349//580 332//547
f 281//445 332//546 282//447
f 282//447 332//546 333//548
f 283//449 282//447 333//548
f 347//576 348//578 330//543
f 283//449 333//548 284//451
f 284//451 333//548 318//519
f 253//389 284//451 318//519
f 346//574 347//576 330//543
f 345//572 346//574 329//540
f 322//526 259//401 320//522
f 328//539 345//572 329//540
f 320//523 338//558 322//527
f 342//566 325//532 324//530
f 344//570 345//572 328//539
f 327//536 269//421 325//533
f 343//568 344//570 326//534
f 342//566 343//568 325//532
f 341//564 342//566 324//530
f 336//554 337//556 319//521
f 340//562 341//564 323//529
f 339//560 340//562 321//525
f 350//582 335//552 333//549
f 322//527 338//558 321//525
f 336//553 335//551 334//550
f 337//555 336//553 334//550
f 338//557 337//555 334//550
f 339//559 338//557 334//550
f 340//561 339//559 334//550
f 341//563 340//561 334//550
f 342//565 341//563 334//550
f 343//567 342//565 334//550
f 344//569 343//567 334//550
f 345//571 344//569 334//550
f 346//573 345//571 334//550
f 347//575 346//573 334//550
f 348//577 347//575 334//550
f 349//579 348//577 334//550
f 350//581 349//579 334//550
f 335//551 350//581 334//550
g Pin_1
v 51.5 1.5 -28
v 51.40393 1.5 -28.97545
v 51.1194 1.5 -29.91342
v 50.65735 1.5 -30.77785
v 50.03553 1.5 -31.53553
v 49.27785 1.5 -32.15735
v 48.41342 1.5 -32.6194
v 47.47545 1.5 -32.90393
v 46.5 1.5 -33
v 45.52455 1.5 -32.90393
v 44.58658 1.5 -32.6194
v 43.72215 1.5 -32.15735
v 42.96447 1.5 -31.53553
v 42.34265 1.5 -30.77785
v 41.8806 1.5 -29.91342
v 41.59607 1.5 -28.97545
v 41.5 1.5 -28
v 41.59607 1.5 -27.02455
v 41.8806 1.5 -26.08658
v 42.34265 1.5 -25.22215
v 42.96447 1.5 -24.46447
v 43.72215 1.5 -23.84265
v 44.58658 1.5 -23.3806
v 45.52455 1.5 -23.09607
v 46.5 1.5 -23
v 47.47545 1.5 -23.09607
v 48.41342 1.5 -23.3806
v 49.27785 1.5 -23.84265
v 50.03553 1.5 -24.46447
v 50.65735 1.5 -25.22215
v 51.1194 1.5 -26.08658
v 51.40393 1.5 -27.02455
v 51.5 13.5 -28
v 51.40393 13.5 -28.97545
v 51.1194 13.5 -29.91342
v 50.65735 13.5 -30.77785
v 50.03553 13.5 -31.53553
v 49.27785 13.5 -32.15735
v 48.41342 13.5 -32.6194
v 47.47545 13.5 -32.90393
v 46.5 13.5 -33
v 45.52455 13.5 -32.90393
v 44.58658 13.5 -32.6194
v 43.72215 13.5 -32.15735
v 42.96447 13.5 -31.53553
v 42.34265 13.5 -30.77785
v 41.8806 13.5 -29.91342
v 41.59607 13.5 -28.97545
v 41.5 13.5 -28
v 41.59607 13.5 -27.02455
v 41.8806 13.5 -26.08658
v 42.34265 13.5 -25.22215
v 42.96447 13.5 -24.46447
v 43.72215 13.5 -23.84265
v 44.58658 13.5 -23.3806
v 45.52455 13.5 -23.09607
v 46.5 13.5 -23
v 47.47545 13.5 -23.09607
v 48.41342 13.5 -23.3806
v 49.27785 13.5 -23.84265
v 50.03553 13.5 -24.46447
v 50.65735 13.5 -25.22215
v 51.1194 13.5 -26.08658
v 51.40393 13.5 -27.02455
v 46.5 13.5 -28
v 47.5 1.5 -28
v 47.42388 1.5 -28.38268
v 47.20711 1.5 -28.70711
v 46.5 1.5 -29
v 46.88268 1.5 -28.92388
v 46.11732 1.5 -28.92388
v 45.79289 1.5 -28.70711
v 45.57612 1.5 -28.38268
v 45.57612 1.5 -27.61732
v 45.5 1.5 -28
v 45.79289 1.5 -27.29289
v 46.11732 1.5 -27.07612
v 46.5 1.5 -27
v 46.88268 1.5 -27.07612
v 47.20711 1.5 -27.29289
v 47.42388 1.5 -27.61732
v 46.5 -3.5 -28
v 47.5 -3.5 -28
v 47.42388 -3.5 -28.38268
v 47.20711 -3.5 -28.70711
v 46.88268 -3.5 -28.92388
v 46.5 -3.5 -29
v 46.11732 -3.5 -28.92388
v 45.79289 -3.5 -28.70711
v 45.57612 -3.5 -28.38268
v 45.5 -3.5 -28
v 45.57612 -3.5 -27.61732
v 45.79289 -3.5 -27.29289
v 46.11732 -3.5 -27.07612
v 46.5 -3.5 -27
v 46.88268 -3.5 -27.07612
v 47.20711 -3.5 -27.29289
v 47.42388 -3.5 -27.61732
vn 0 -1 0
vn 1 0 0
vn 0 -1 0
vn 0.98079 0 -0.19509
vn 0 -1 0
vn 0.92388 0 -0.38268
vn 0 -1 0
vn 0.83147 0 -0.55557
vn 0 -1 0
vn 0.70711 0 -0.70711
vn 0 -1 0
vn 0.55557 0 -0.83147
vn 0 -1 0
vn 0.38268 0 -0.92388
vn 0 -1 0
vn 0.19509 0 -0.98079
vn 0 -1 0
vn 0 0 -1
vn 0 -1 0
vn -0.19509 0 -0.98079
vn 0 -1 0
vn -0.38268 0 -0.92388
vn 0 -1 0
vn -0.55557 0 -0.83147
vn 0 -1 0
vn -0.70711 0 -0.70711
vn 0 -1 0
vn -0.83147 0 -0.55557
vn 0 -1 0
vn -0.92388 0 -0.38268
vn 0 -1 0
vn -0.98079 0 -0.19509
vn 0 -1 0
vn -1 0 0
vn 0 -1 -0
vn -0.98079 0 0.19509
vn 0 -1 -0
vn -0.92388 0 0.38268
vn 0 -1 0
vn -0.83147 0 0.55557
vn -0 -1 0
vn -0.70711 0 0.70711
vn -0 -1 0
vn -0.55557 0 0.83147
vn 0 -1 0
vn -0.38268 0 0.92388
vn 0 -1 0
vn -0.19509 0 0.98079
vn 0 -1 0
vn -0 0 1
vn 0 -1 0
vn 0.19509 0 0.98079
vn -0 -1 0
vn 0.38268 0 0.92388
vn 0 -1 0
vn 0.55557 0 0.83147
vn 0 -1 0
vn 0.70711 0 0.70711
vn 0 -1 0
vn 0.83147 0 0.55557
vn 0 -1 0
vn 0.92388 0 0.38268
vn 0 -1 0
vn 0.98079 0 0.19509
vn 0 1 0
vn 1 0 0
vn 0 1 0
vn 0.98079 0 -0.19509
vn 0 1 0
vn 0.92388 0 -0.38268
vn 0 1 0
vn 0.83147 0 -0.55557
vn 0 1 0
vn 0.70711 0 -0.70711
vn 0 1 0
vn 0.55557 0 -0.83147
vn 0 1 0
vn 0.38268 0 -0.92388
vn 0 1 0
vn 0.19509 0 -0.98079
vn 0 1 0
vn -0 0 -1
vn 0 1 0
vn -0.19509 0 -0.98079
vn 0 1 0
vn -0.38268 0 -0.92388
vn 0 1 0
vn -0.55557 0 -0.83147
vn 0 1 0
vn -0.70711 0 -0.70711
vn 0 1 0
vn -0.83147 0 -0.55557
vn 0 1 0
vn -0.92388 0 -0.38268
vn 0 1 0
vn -0.98079 0 -0.19509
vn 0 1 0
vn -1 0 0
vn 0 1 0
vn -0.98079 0 0.19509
vn 0 1 0
vn -0.92388 0 0.38268
vn 0 1 0
vn -0.83147 0 0.55557
vn 0 1 0
vn -0.70711 0 0.70711
vn 0 1 0
vn -0.55557 0 0.83147
vn 0 1 0
vn -0.38268 0 0.92388
vn 0 1 0
vn -0.19509 0 0.98079
vn 0 1 0
vn -0 0 1
vn 0 1 0
vn 0.19509 0 0.98079
vn 0 1 0
vn 0.38268 0 0.92388
vn 0 1 0
vn 0.55557 0 0.83147
vn 0 1 0
vn 0.70711 0 0.70711
vn 0 1 0
vn 0.83147 0 0.55557
vn 0 1 0
vn 0.92388 0 0.38268
vn 0 1 0
vn 0.98079 0 0.19509
vn 0 1 0
vn 1 0 -0
vn 0 -1 0
vn 0 -1 0
vn 0.92388 0 -0.38268
vn 0 -1 0
vn 0.70711 0 -0.70711
vn 0 -1 0
vn -0 0 -1
vn 0 -1 0
vn 0.38268 -0 -0.92388
vn -0 -1 0
vn -0.38268 0 -0.92388
vn -0.70711 0 -0.70711
vn -0 -1 -0
vn -0.92388 0 -0.38268
vn 0 -1 -0
vn -0.92388 0 0.38268
vn -0 -1 -0
vn -0 -1 0
vn -1 0 0
vn -0 -1 -0
vn -0.70711 0 0.70711
vn -0.38268 0 0.92388
vn 0 -1 -0
vn 0 -1 0
vn 0 0 1
vn 0.38268 0 0.92388
vn -0 -1 0
vn -0 -1 -0
vn 0.70711 0 0.70711
vn 0 -1 -0
vn 0.92388 -0 0.38268
vn 0 -1 0
vn 0 -1 0
vn 1 -0 0
vn 0 -1 0
vn 0.92388 0 -0.38268
vn 0 -1 0
vn 0.70711 0 -0.70711
vn 0 -1 0
vn 0.38268 0 -0.92388
vn 0 -1 0
vn -0 0 -1
vn 0 -1 0
vn -0.38268 0 -0.92388
vn 0 -1 0
vn -0.70711 0 -0.70711
vn 0 -1 0
vn -0.92388 0 -0.38268
vn 0 -1 0
vn -1 0 -0
vn 0 -1 0
vn -0.92388 0 0.38268
vn 0 -1 0
vn -0.70711 0 0.70711
vn 0 -1 0
vn -0.38268 0 0.92388
vn 0 -1 0
vn -0 0 1
vn 0 -1 0
vn 0.38268 0 0.92388
vn 0 -1 0
vn 0.70711 0 0.70711
vn 0 -1 0
vn 0.92388 -0 0.38268
f 383//648 351//584 352//586
f 384//650 352//586 353//588
f 385//652 353//588 354//590
f 386//654 354//590 355//592
f 387//656 355//592 356//594
f 388//658 356//594 357//596
f 389//660 357//596 358//598
f 390//662 358//598 359//600
f 391//664 359//600 360//602
f 392//666 360//602 361//604
f 393//668 361//604 362//606
f 394//670 362//606 363//608
f 395//672 363//608 364//610
f 396//674 364//610 365//612
f 397//676 365//612 366//614
f 398//678 366//614 367//616
f 399//680 367//616 368//618
f 400//682 368//618 369//620
f 401//684 369//620 370//622
f 402//686 370//622 371//624
f 403//688 371//624 372//626
f 404//690 372//626 373//628
f 405//692 373//628 374//630
f 406//694 374//630 375//632
f 407//696 375//632 376//634
f 408//698 376//634 377//636
f 409//700 377//636 378//638
f 410//702 378//638 379//640
f 411//704 379//640 380//642
f 412//706 380//642 381//644
f 413//708 381//644 382//646
f 414//710 382//646 351//584
f 383//648 352//586 384//650
f 384//650 353//588 385//652
f 385//652 354//590 386//654
f 386//654 355//592 387//656
f 387//656 356//594 388//658
f 388//658 357//596 389//660
f 389//660 358//598 390//662
f 390//662 359//600 391//664
f 391//664 360//602 392//666
f 392//666 361//604 393//668
f 393//668 362//606 394//670
f 394//670 363//608 395//672
f 395//672 364//610 396//674
f 396//674 365//612 397//676
f 397//676 366//614 398//678
f 398//678 367//616 399//680
f 399//680 368//618 400//682
f 400//682 369//620 401//684
f 401//684 370//622 402//686
f 402//686 371//624 403//688
f 403//688 372//626 404//690
f 404//690 373//628 405//692
f 405//692 374//630 406//694
f 406//694 375//632 407//696
f 407//696 376//634 408//698
f 408//698 377//636 409//700
f 409//700 378//638 410//702
f 410//702 379//640 411//704
f 411//704 380//642 412//706
f 412//706 381//644 413//708
f 413//708 382//646 414//710
f 414//710 351//584 383//648
f 415//711 383//647 384//649
f 415//711 384//649 385//651
f 415//711 385//651 386//653
f 415//711 386//653 387//655
f 415//711 387//655 388//657
f 415//711 388//657 389//659
f 415//711 389//659 390//661
f 415//711 390//661 391//663
f 415//711 391//663 392//665
f 415//711 392//665 393//667
f 415//711 393//667 394//669
f 415//711 394//669 395//671
f 415//711 395//671 396//673
f 415//711 396//673 397//675
f 415//711 397//675 398//677
f 415//711 398//677 399//679
f 415//711 399//679 400//681
f 415//711 400//681 401//683
f 415//711 401//683 402//685
f 415//711 402//685 403//687
f 415//711 403//687 404//689
f 415//711 404//689 405//691
f 415//711 405//691 406//693
f 415//711 406//693 407//695
f 415//711 407//695 408//697
f 415//711 408//697 409//699
f 415//711 409//699 410//701
f 415//711 410//701 411//703
f 415//711 411//703 412//705
f 415//711 412//705 413//707
f 415//711 413//707 414//709
f 415//711 414//709 383//647
f 434//748 417//715 416//712
f 351//583 416//713 352//585
f 352//585 416//713 417//714
f 353//587 352//585 417//714
f 435//750 436//752 418//717
f 353//587 417//714 354//589
f 354//589 417//714 418//716
f 355//591 354//589 418//716
f 447//774 448//776 430//741
f 355//591 418//716 356//593
f 435//750 418//717 417//715
f 357//595 356//593 418//716
f 357//595 420//720 419//718
f 357//595 419//718 358//597
f 438//756 421//723 419//719
f 359//599 358//597 419//718
f 433//746 416//712 431//743
f 359//599 419//718 360//601
f 360//601 419//718 421//722
f 361//603 360//601 421//722
f 424//728 442//764 426//733
f 361//603 421//722 362//605
f 362//605 421//722 422//725
f 363//607 362//605 422//725
f 448//776 431//743 430//741
f 363//607 422//725 364//609
f 364//609 422//725 423//727
f 365//611 364//609 423//727
f 429//738 446//772 430//741
f 365//611 423//727 366//613
f 423//726 441//762 425//731
f 367//615 366//613 423//727
f 367//615 425//730 424//729
f 367//615 424//729 368//617
f 433//746 434//748 416//712
f 369//619 368//617 424//729
f 369//619 424//729 426//732
f 369//619 426//732 370//621
f 425//731 441//762 424//728
f 371//623 370//621 426//732
f 371//623 426//732 427//735
f 371//623 427//735 372//625
f 427//734 444//768 428//737
f 373//627 372//625 427//735
f 373//627 427//735 428//736
f 373//627 428//736 374//629
f 446//772 429//738 428//737
f 375//631 374//629 428//736
f 439//758 422//724 421//723
f 375//631 428//736 376//633
f 376//633 428//736 429//739
f 377//635 376//633 429//739
f 377//635 429//739 430//740
f 377//635 430//740 378//637
f 436//752 437//754 419//719
f 379//639 378//637 430//740
f 446//772 447//774 430//741
f 379//639 430//740 380//641
f 380//641 430//740 431//742
f 381//643 380//641 431//742
f 445//770 446//772 428//737
f 381//643 431//742 382//645
f 382//645 431//742 416//713
f 351//583 382//645 416//713
f 444//768 445//770 428//737
f 443//766 444//768 427//734
f 420//720 357//595 418//716
f 426//733 443//766 427//734
f 418//717 436//752 420//721
f 440//760 423//726 422//724
f 442//764 443//766 426//733
f 425//730 367//615 423//727
f 441//762 442//764 424//728
f 440//760 441//762 423//726
f 439//758 440//760 422//724
f 434//748 435//750 417//715
f 438//756 439//758 421//723
f 437//754 438//756 419//719
f 448//776 433//746 431//743
f 420//721 436//752 419//719
f 434//747 433//745 432//744
f 435//749 434//747 432//744
f 436//751 435//749 432//744
f 437//753 436//751 432//744
f 438//755 437//753 432//744
f 439//757 438//755 432//744
f 440//759 439//757 432//744
f 441//761 440//759 432//744
f 442//763 441//761 432//744
f 443//765 442//763 432//744
f 444//767 443//765 432//744
f 445//769 444//767 432//744
f 446//771 445//769 432//744
f 447//773 446//771 432//744
f 448//775 447//773 432//744
f 433//745 448//775 432//744
g Shell
v 42.86957 14.27174 -15.95963
v 42.86957 11.35507 -15.95963
v 42.86957 14.27174 -12.75963
v 42.86957 11.35507 -9.55963
v 42.86957 14.27174 12.84037
v 42.86957 11.35507 9.64037
v 42.86957 14.27174 3.24037
v 42.86957 14.27174 16.04037
v 42.86957 11.35507 16.04037
v 34.54265 14.27174 16.04037
v 26.21572 11.35507 16.04037
v 34.36957 14.27174 16.04037
v 25.86957 11.35507 16.04037
v -8.13043 14.27174 16.04037
v -24.77329 14.27174 16.04037
v -25.13043 11.35507 16.04037
v 25.51243 14.27174 16.04037
v -33.63043 14.27174 16.04037
v -33.80351 14.27174 16.04037
v -25.47658 11.35507 16.04037
v -42.13043 14.27174 16.04037
v -42.13043 11.35507 16.04037
v -42.13043 14.27174 12.84037
v -42.13043 11.35507 9.64037
v -42.13043 14.27174 -12.75963
v -42.13043 11.35507 -9.55963
v -42.13043 14.27174 -3.15963
v -42.13043 14.27174 -15.95963
v -42.13043 11.35507 -15.95963
v -33.80351 14.27174 -15.95963
v -25.47658 11.35507 -15.95963
v -33.63043 14.27174 -15.95963
v -25.13043 11.35507 -15.95963
v 25.86957 11.35507 -15.95963
v 34.36957 14.27174 -15.95963
v 25.51243 14.27174 -15.95963
v 8.86957 14.27174 -15.95963
v -24.77329 14.27174 -15.95963
v 34.54265 14.27174 -15.95963
v 26.21572 11.35507 -15.95963
v 42.86957 14.27174 4.43095
v -42.13043 14.27174 -4.35021
v -42.13043 14.27174 -4.60249
v 52.86957 8.4384 -32.45963
v 52.86957 8.4384 32.54037
v 52.86957 -14.89493 0.04037
v -52.13043 8.4384 32.54037
v 0.36957 -14.89493 32.54037
v -52.13043 8.4384 -32.45963
v -52.13043 -14.89493 0.04037
v 0.36957 -14.89493 -32.45963
v 52.86957 -17.8116 -4.02213
v 52.86957 -20.72826 -8.08463
v 52.86957 -17.8116 4.10287
v 52.86957 -20.72826 8.16537
v 52.86957 -17.8116 -16.20963
v 52.86957 -20.72826 -32.45963
v 52.86957 -17.8116 -32.45963
v 52.86957 -17.8116 10.60287
v 52.86957 -17.8116 32.54037
v 52.86957 -20.72826 32.54037
v 6.93207 -17.8116 32.54037
v 13.49457 -20.72826 32.54037
v -6.19293 -17.8116 32.54037
v -12.75543 -20.72826 32.54037
v 25.90528 -17.8116 32.54037
v 51.441 -20.72826 32.54037
v 51.58386 -17.8116 32.54037
v -25.16614 -17.8116 32.54037
v -50.70186 -20.72826 32.54037
v -50.84472 -17.8116 32.54037
v -52.13043 -17.8116 4.10287
v -52.13043 -20.72826 8.16537
v -52.13043 -17.8116 -4.02213
v -52.13043 -20.72826 -8.08463
v -52.13043 -17.8116 16.29037
v -52.13043 -20.72826 32.54037
v -52.13043 -17.8116 32.54037
v -52.13043 -17.8116 -10.52213
v -52.13043 -17.8116 -32.45963
v -52.13043 -20.72826 -32.45963
v -6.19293 -17.8116 -32.45963
v -12.75543 -20.72826 -32.45963
v 6.93207 -17.8116 -32.45963
v 13.49457 -20.72826 -32.45963
v -25.16614 -17.8116 -32.45963
v -50.70186 -20.72826 -32.45963
v -50.84472 -17.8116 -32.45963
v 51.58386 -17.8116 -32.45963
v 51.441 -20.72826 -32.45963
v 25.90528 -17.8116 -32.45963
v 55.36957 -20.72826 35.04037
v 55.36957 -20.72826 -34.95963
v 55.36957 -3.22826 0.04037
v 55.36957 14.27174 -34.95963
v 55.36957 14.27174 35.04037
v -54.63043 -20.72826 35.04037
v 0.36957 -3.22826 35.04037
v -54.63043 14.27174 35.04037
v -54.63043 -20.72826 -34.95963
v -54.63043 -3.22826 0.04037
v -54.63043 14.27174 -34.95963
v 0.36957 -3.22826 -34.95963
v 52.86957 11.35507 -32.45963
v 52.86957 8.4384 -25.95963
v 52.86957 8.4384 26.04037
v 52.86957 11.35507 32.54037
v 42.36957 8.4384 32.54037
v -41.63043 8.4384 32.54037
v -52.13043 11.35507 32.54037
v -52.13043 8.4384 26.04037
v -52.13043 8.4384 -25.95963
v -52.13043 11.35507 -32.45963
v -41.63043 8.4384 -32.45963
v 42.36957 8.4384 -32.45963
v -52.13043 -10 -23.67826
v -52.13043 -10 -22.32174
v -52.13043 -6.47055 -20
v -52.13043 -6 -20
v -54.63043 -10 -25.17826
v -54.63043 -10 -20.82174
v -52.13043 -8.45217 -26
v -52.13043 -7.54783 -26
v -52.13043 -6 -24.52104
v -52.13043 -6 -25.58328
v -52.13043 -8.45217 -20
v -52.13043 -7.54783 -20
v -52.13043 -6 -20.39325
v -54.63043 -7.96091 -26
v -54.63043 -9.45217 -26
v -54.63043 -6.54783 -26
v -54.63043 -6.54783 -20
v -54.63043 -9.45217 -20
v -54.63043 -10 -20
v -52.13043 -10 -26
v -52.13043 -6 -26
v -52.13043 -10 -20
v -52.13043 -6 -23.67826
v -52.13043 -6 -22.32174
v -54.63043 -10 -26
v -54.63043 -6 -23.15167
v -54.63043 -6 -25.17826
v -54.63043 -6 -20
v -54.63043 -6 -22.17684
v -54.63043 -6 -20.82174
v -54.63043 -9.73327 -20
v -52.13043 -6 -21.20637
v -54.63043 -6 -26
v -54.63043 -6 -20.39363
v -52.13043 -6.38914 -20
v -52.13043 -7.98783 -26
v -52.13043 -6 -25.4163
v -52.13043 -6 -20.27961
v -52.13043 -10 -23.93413
v -52.13043 -9.61086 -26
v -52.13043 -7.37725 -26
v -52.13043 -10 -20.5837
v -52.13043 -8.5397 -20
v -52.13043 -6 -23.04723
v -52.13043 -6 -22.18844
v -52.13043 -9.81053 -20
v -52.13043 -6 -22.74369
vn -1 0 0
vn 0 0 1
vn 0 1 0
vn 0 -1 0
vn 0 0 1
vn -1 0 0
vn -1 0 0
vn 0 1 0
vn 0 -1 0
vn -1 0 0
vn 0 1 0
vn -1 0 0
vn 0 -1 0
vn -1 0 0
vn -1 0 0
vn 0 1 0
vn -1 0 0
vn 0 0 -1
vn 0 1 0
vn -1 0 0
vn 0 -1 0
vn 0 0 -1
vn 0 0 -1
vn 0 1 0
vn 0 -1 0
vn 0 0 -1
vn 0 0 -1
vn 0 1 0
vn 0 -1 0
vn 0 0 -1
vn 0 1 0
vn 0 0 -1
vn 0 0 -1
vn 0 1 0
vn 0 -1 0
vn 0 0 -1
vn 0 1 0
vn 0 0 -1
vn 0 1 0
vn 0 0 -1
vn 0 0 -1
vn 0 1 0
vn 0 -1 0
vn 0 0 -1
vn 1 0 0
vn 0 0 -1
vn 0 1 0
vn 0 -1 0
vn 0 0 -1
vn 1 0 0
vn 1 0 0
vn 0 1 0
vn 0 -1 0
vn 1 0 0
vn 0 1 0
vn 1 0 0
vn 0 -1 0
vn 1 0 0
vn 1 0 0
vn 0 1 0
vn 1 0 0
vn 0 0 1
vn 0 1 0
vn 1 0 0
vn 0 -1 0
vn 0 0 1
vn 0 0 1
vn 0 1 0
vn 0 -1 0
vn 0 0 1
vn 0 0 1
vn 0 1 0
vn 0 -1 0
vn 0 0 1
vn 0 -1 0
vn 0 0 1
vn 0 1 0
vn 0 0 1
vn 0 1 0
vn 0 0 1
vn 0 1 0
vn 0 0 1
vn 0 1 0
vn 0 0 1
vn 0 0 1
vn 0 1 0
vn 0 -1 0
vn 0 0 1
vn -1 0 0
vn 0 1 0
vn 1 0 0
vn 0 1 0
vn 1 0 0
vn 0 1 0
vn -1 0 0
vn 0 0 1
vn 0 0 1
vn -1 0 0
vn -1 0 0
vn 0 0 1
vn 0 0 1
vn -1 0 0
vn -1 0 0
vn -1 0 0
vn 0 0 -1
vn -1 0 0
vn -1 0 0
vn 0 0 -1
vn 0 0 -1
vn -1 0 0
vn -1 0 0
vn 0 0 -1
vn 0 0 -1
vn -1 0 0
vn 1 0 0
vn 1 0 0
vn 0 0 -1
vn 0 0 -1
vn 1 0 0
vn 1 0 0
vn 0 0 -1
vn 0 0 -1
vn 1 0 0
vn 1 0 0
vn 1 0 0
vn 0 0 1
vn 0 0 1
vn 1 0 0
vn 1 0 0
vn 0 0 1
vn 0 0 1
vn 1 0 0
vn 1 0 0
vn 0 0 1
vn 0 0 1
vn 1 0 0
vn 1 0 0
vn 0 0 1
vn 0 0 1
vn 1 0 0
vn 1 0 0
vn 0 0 1
vn 0 0 1
vn 1 0 0
vn 1 0 0
vn 0 0 1
vn 0 0 1
vn 1 0 0
vn 1 0 0
vn 0 0 1
vn 0 0 1
vn -1 0 0
vn 0 0 -1
vn 1 0 0
vn 1 0 0
vn 1 0 0
vn 0 -1 0
vn -1 0 0
vn -1 0 0
vn -1 0 0
vn -1 0 0
vn 0 -1 0
vn -1 0 0
vn -1 0 0
vn -1 0 0
vn -1 0 0
vn 0 0 1
vn 0 -1 0
vn -1 0 0
vn 0 0 -1
vn 1 0 0
vn 1 0 0
vn 0 0 -1
vn 0 0 -1
vn 0 0 -1
vn -1 0 0
vn -1 0 0
vn -1 0 0
vn 0 0 1
vn 1 0 0
vn 1 0 0
vn 0 0 1
vn 0 0 1
vn 1 0 0
vn -1 0 0
vn 0 -1 0
vn 0 0 -1
vn 0 0 1
vn 0 0 1
vn 0 0 1
vn 0 -1 0
vn 0 0 -1
vn 0 0 1
vn 0 0 1
vn 0 0 1
vn 0 -1 0
vn 0 0 -1
vn 0 0 -1
vn 0 0 -1
vn 0 0 -1
vn 0 -1 0
vn 0 0 -1
vn 0 0 -1
vn 0 0 -1
vn 0 0 -1
vn 0 0 -1
vn 0 0 -1
vn 0 0 -1
vn 0 -1 0
vn 0 0 -1
vn 0 0 1
vn 0 0 1
vn 0 0 1
vn -1 0 0
vn -1 0 0
vn -1 0 0
vn 0 -1 0
vn 1 0 0
vn -1 0 0
vn -1 0 0
vn -1 0 0
vn 0 -1 0
vn 1 0 0
vn 1 0 0
vn 1 0 0
vn 1 0 0
vn 0 0 -1
vn 0 -1 0
vn 1 0 0
vn 1 0 0
vn 0 0 -1
vn 0 0 -1
vn 1 0 0
vn 1 0 0
vn 1 0 0
vn -1 0 0
vn -1 0 0
vn -1 0 0
vn 0 0 -1
vn 0 0 -1
vn -1 0 0
vn 1 0 0
vn 0 -1 0
vn 0 0 1
vn 0 0 -1
vn 0 0 -1
vn 0 0 -1
vn 0 -1 0
vn 0 0 1
vn 0 0 -1
vn 0 0 -1
vn 0 0 -1
vn 0 -1 0
vn 0 0 1
vn 0 0 1
vn 0 0 1
vn 0 0 1
vn 0 -1 0
vn 0 0 1
vn 0 0 1
vn 0 0 1
vn 0 0 1
vn 0 0 1
vn 0 0 1
vn 0 0 1
vn 0 -1 0
vn 0 0 1
vn 0 0 1
vn 0 0 1
vn 0 0 1
vn 0 -1 0
vn 0 0 1
vn 1 0 0
vn 0 0 -1
vn 0 -1 0
vn 1 0 0
vn 1 0 0
vn 0 0 -1
vn 0 1 0
vn 1 0 0
vn 0 1 0
vn 0 0 1
vn 1 0 0
vn 0 0 1
vn -1 0 0
vn 0 -1 0
vn 0 0 1
vn 0 1 0
vn -1 0 0
vn 0 0 1
vn -1 0 0
vn 0 0 -1
vn 0 -1 0
vn -1 0 0
vn 0 1 0
vn 0 0 -1
vn -1 0 0
vn 0 0 -1
vn 0 0 1
vn 0 -1 0
vn -1 0 0
vn -1 0 0
vn -1 0 0
vn -1 0 0
vn 0 0 -1
vn 0 -1 0
vn 0 0 -1
vn 0 0 -1
vn 0 0 -1
vn 1 0 0
vn 0 -1 0
vn 1 0 0
vn 1 0 0
vn 1 0 0
vn 0 0 1
vn 0 -1 0
vn 0 0 1
vn 0 0 1
vn 0 1 0
vn 0 1 0
vn 0 1 0
vn 0 1 0
vn 0 1 0
vn 0 1 0
vn 0 1 0
vn 0 1 0
vn 0 1 0
vn 0 1 0
vn 0 1 0
vn 0 0 -1
vn 0 0 -1
vn 0 0 -1
vn 0 0 -1
vn 0 -1 0
vn 0 -1 0
vn 0 0 -1
vn 0 0 -1
vn 0 -1 0
vn -1 0 0
vn 0 1 0
vn 0 1 0
vn -1 0 0
vn 0 1 0
vn 0 1 0
vn 0 0 1
vn 0 0 1
vn 0 0 1
vn 0 0 1
vn 0 0 1
vn 0 0 1
vn 0 0 1
vn 0 0 1
vn 0 0 1
vn 0 0 1
vn 0 -1 0
vn 0 -1 0
vn 0 -1 0
vn 0 -1 0
vn 0 -1 0
vn 0 -1 0
vn 0 0 -1
vn 0 0 -1
vn 0 0 -1
vn 0 0 -1
vn 0 0 -1
vn 0 0 -1
vn 0 0 -1
vn 0 0 -1
vn 0 0 -1
vn 0 0 -1
vn 0 -1 0
vn 0 -1 0
vn 0 -1 0
vn 0 0 1
vn -1 0 0
vn -1 0 0
vn 0 0 1
vn 0 0 1
vn 0 0 1
vn 0 0 1
vn -1 0 0
vn 0 0 -1
vn 0 0 -1
vn -1 0 0
vn 0 0 -1
vn 0 0 -1
vn -1 0 0
vn -1 0 0
vn 0 0 -1
vn 0 1 0
vn 0 0 1
vn 0 1 0
vn 0 1 0
vn 0 0 1
vn 0 0 1
vn 0 -1 0
vn 0 0 1
vn 0 0 1
vn 0 -1 0
vn 0 -1 0
vn 0 -1 0
vn 0 1 0
vn 0 0 -1
vn 0 0 -1
vn 0 1 0
vn 0 1 0
vn 0 -1 0
vn 0 -1 0
vn 0 -1 0
vn 0 -1 0
vn 0 -1 0
vn 0 -1 0
vn 0 -1 0
vn 0 -1 0
vn 0 -1 0
vn 0 -1 0
vn -1 0 0
vn 0 1 0
vn 0 0 1
vn 0 -1 0
vn -1 0 0
vn -1 0 0
vn 0 -1 0
vn 0 -1 0
vn -1 0 0
vn 0 -1 0
vn 0 0 -1
vn 0 -1 0
vn -1 0 0
vn 0 -1 0
vn 0 -1 0
vn -1 0 0
vn 0 0 -1
vn -1 0 0
vn 0 -1 0
vn 0 -1 0
vn 0 -1 0
vn -1 0 0
vn 0 0 1
vn 0 -1 0
vn -1 0 0
vn 0 -1 0
vn 0 0 -1
vn 0 0 -1
vn 0 0 -1
vn 0 0 1
vn 0 0 1
vn 0 0 1
vn 0 -1 0
vn 0 -1 0
vn 0 -1 0
vn 0 -1 0
vn 0 -1 0
vn 0 -1 0
vn 0 1 0
vn 0 1 0
vn 0 1 0
vn 0 0 1
vn 0 0 1
vn 0 0 1
vn 0 0 1
vn 0 0 1
vn 0 0 1
vn 0 1 0
vn 0 1 0
vn 0 1 0
vn 0 0 -1
vn 0 0 -1
vn 0 0 -1
vn 0 -1 0
vn 0 -1 0
vn 0 -1 0
vn 0 -1 0
vn 0 -1 0
vn 0 -1 0
vn 0 0 -1
vn 0 0 -1
vn 0 0 -1
vn 0 -1 0
vn 0 -1 0
vn 0 -1 0
f 449//777 450//782 451//783
f 451//783 450//782 452//786
f 453//788 452//786 454//790
f 452//786 455//791 451//783
f 453//788 454//790 456//793
f 456//793 454//790 457//796
f 458//799 459//802 460//803
f 460//803 459//802 461//806
f 462//808 461//806 463//809
f 461//806 464//812 463//809
f 461//806 462//808 465//814
f 466//816 464//812 467//817
f 467//817 464//812 468//820
f 469//821 470//826 471//827
f 471//827 470//826 472//830
f 473//832 472//830 474//834
f 472//830 475//835 471//827
f 473//832 474//834 476//837
f 476//837 474//834 477//840
f 478//843 479//846 480//847
f 480//847 479//846 481//850
f 482//852 483//854 484//856
f 481//850 482//852 484//856
f 481//850 485//858 486//860
f 487//861 488//864 449//778
f 449//778 488//864 450//781
f 456//794 457//798 458//799
f 458//799 457//798 459//802
f 464//812 466//816 463//809
f 460//803 461//806 465//814
f 467//817 468//820 469//822
f 469//822 468//820 470//825
f 476//838 477//842 478//843
f 478//843 477//842 479//846
f 485//858 481//850 484//856
f 480//847 481//850 486//860
f 483//854 482//852 487//861
f 487//861 482//852 488//864
f 489//865 455//791 452//786
f 453//788 489//865 452//786
f 490//867 475//835 472//830
f 491//869 490//867 472//830
f 473//832 491//869 472//830
f 492//777 493//777 494//891
f 493//777 495//777 496//902
f 495//777 497//777 498//928
f 497//777 492//777 499//929
f 500//777 501//934 502//936
f 502//936 501//934 503//939
f 500//932 494//891 502//777
f 504//941 505//945 500//777
f 500//777 505//945 501//934
f 504//777 494//891 500//932
f 494//891 504//777 506//948
f 494//891 506//948 492//777
f 505//945 504//942 506//777
f 507//953 503//939 508//777
f 508//777 503//939 509//961
f 507//777 493//777 508//960
f 493//777 507//777 502//777
f 493//777 502//777 494//891
f 503//939 507//954 502//937
f 510//777 511//968 512//777
f 512//777 511//968 513//973
f 510//966 496//902 512//971
f 514//975 515//978 510//777
f 510//777 515//978 511//968
f 514//777 496//902 510//966
f 496//902 514//777 516//777
f 496//902 516//777 493//777
f 515//978 514//976 516//981
f 512//777 513//973 517//983
f 517//983 513//973 518//986
f 512//971 496//902 517//777
f 495//777 519//988 517//777
f 495//777 517//777 496//902
f 518//986 519//777 517//984
f 520//777 521//994 522//777
f 522//777 521//994 523//999
f 520//992 498//928 522//996
f 524//1001 525//1005 520//777
f 520//777 525//1005 521//994
f 524//777 498//928 520//992
f 498//928 524//777 526//777
f 498//928 526//777 495//777
f 525//1005 524//1002 526//1011
f 527//777 523//999 528//777
f 528//777 523//999 529//1018
f 497//777 522//996 498//928
f 523//999 527//777 522//777
f 530//777 531//1025 532//777
f 532//777 531//1025 533//1030
f 530//1023 499//929 532//1028
f 534//1032 535//1035 530//777
f 530//777 535//1035 531//1025
f 534//777 499//929 530//1023
f 499//929 534//777 536//777
f 499//929 536//777 497//777
f 535//1035 534//1033 536//1038
f 537//1040 538//1043 506//777
f 506//777 538//1043 505//943
f 537//777 492//777 506//951
f 492//777 537//777 539//777
f 492//777 539//777 499//929
f 538//1043 537//1041 539//1046
f 508//777 509//963 516//980
f 516//980 509//963 515//978
f 508//959 493//777 516//777
f 519//777 518//986 526//1008
f 526//1008 518//986 525//1003
f 519//989 495//777 526//777
f 528//777 529//1020 536//1037
f 536//1037 529//1020 535//1035
f 528//1016 497//777 536//777
f 532//777 533//1030 539//1045
f 539//1045 533//1030 538//1043
f 532//1028 499//929 539//777
f 540//1049 541//1052 542//1053
f 541//1052 543//1056 542//1053
f 543//1056 544//1059 542//1053
f 544//1059 540//1049 542//1053
f 545//1060 540//1048 546//1063
f 540//1048 544//1058 546//1063
f 544//1058 547//1066 546//1063
f 547//1066 545//1060 546//1063
f 548//1067 545//1061 549//1070
f 545//1061 547//1065 549//1070
f 547//1065 550//1073 549//1070
f 541//1050 548//1068 551//1074
f 548//1068 550//1072 551//1074
f 550//1072 543//1054 551//1074
f 543//1054 541//1050 551//1074
f 540//1047 545//1062 511//967
f 541//1051 540//1047 501//933
f 541//1051 538//1042 533//1029
f 548//1069 541//1051 533//1029
f 545//1062 548//1069 521//993
f 552//1077 553//1078 554//1079
f 552//1077 554//1079 555//1080
f 555//1081 556//1083 557//1084
f 555//1081 557//1084 558//1085
f 558//1086 559//1088 560//1089
f 558//1086 560//1089 561//1090
f 561//1091 562//1093 563//1094
f 561//1091 563//1094 552//1075
f 511//967 545//1062 513//972
f 515//977 540//1047 511//967
f 501//933 540//1047 503//938
f 541//1051 501//933 505//944
f 548//1069 533//1029 531//1024
f 521//993 548//1069 523//998
f 545//1062 521//993 525//1004
f 553//1078 552//1077 492//880
f 555//1080 554//1079 493//890
f 556//1083 555//1081 493//889
f 558//1085 557//1084 495//898
f 559//1088 558//1086 495//901
f 561//1090 560//1089 497//925
f 562//1093 561//1091 497//927
f 552//1075 563//1094 492//877
f 545//1062 518//985 513//972
f 503//938 540//1047 509//962
f 538//1042 541//1051 505//944
f 535//1034 548//1069 531//1024
f 523//998 548//1069 529//1019
f 518//985 545//1062 525//1004
f 540//1047 515//977 509//962
f 548//1069 535//1034 529//1019
f 463//810 547//1064 462//807
f 547//1064 544//1057 462//807
f 550//1071 486//859 485//857
f 543//1055 550//1071 485//857
f 547//1064 466//815 467//818
f 459//801 555//1082 461//805
f 555//1082 558//1087 461//805
f 552//1076 555//1082 450//780
f 552//1076 488//863 482//851
f 561//1092 552//1076 482//851
f 558//1087 561//1092 470//824
f 544//1057 465//813 462//807
f 543//1055 487//862 449//779
f 543//1055 449//779 451//784
f 543//1055 451//784 544//1057
f 543//1055 484//855 483//853
f 487//862 543//1055 483//853
f 544//1057 489//866 453//787
f 484//855 543//1055 485//857
f 547//1064 467//818 469//823
f 547//1064 469//823 471//828
f 547//1064 471//828 550//1071
f 491//870 550//1071 490//868
f 550//1071 491//870 473//831
f 547//1064 463//810 466//815
f 461//805 558//1087 464//811
f 450//780 555//1082 452//785
f 488//863 552//1076 450//780
f 479//845 561//1092 481//849
f 561//1092 482//851 481//849
f 470//824 561//1092 472//829
f 468//819 558//1087 470//824
f 489//866 544//1057 455//792
f 544//1057 451//784 455//792
f 544//1057 453//787 456//795
f 490//868 550//1071 475//836
f 550//1071 471//828 475//836
f 550//1071 473//831 476//839
f 558//1087 468//819 464//811
f 452//785 555//1082 454//789
f 472//829 561//1092 474//833
f 544//1057 458//800 460//804
f 544//1057 456//795 458//800
f 550//1071 478//844 480//848
f 550//1071 476//839 478//844
f 454//789 555//1082 457//797
f 474//833 561//1092 477//841
f 465//813 544//1057 460//804
f 486//859 550//1071 480//848
f 555//1082 459//801 457//797
f 561//1092 479//845 477//841
f 528//1014 565//777 564//777
f 528//1014 527//1013 565//777
f 527//1012 522//997 567//777
f 522//996 497//777 567//777
f 548//1067 569//1118 568//1115
f 528//1017 571//777 497//777
f 527//1012 575//777 574//777
f 577//1151 550//1073 578//1152
f 550//1073 548//1067 578//1152
f 550//1073 577//1151 579//1157
f 549//1070 580//1160 581//1163
f 569//1118 548//1067 582//1164
f 548//1067 549//1070 582//1164
f 527//1012 566//777 575//777
f 578//1152 548//1067 588//1193
f 548//1067 568//1115 588//1193
f 589//1197 550//1073 590//1198
f 580//1160 549//1070 591//1201
f 549//1070 550//1073 591//1201
f 550//1073 592//1205 593//1208
f 594//1210 549//1070 581//1163
f 592//1205 550//1073 589//1197
f 549//1070 594//1210 582//1164
f 573//777 497//777 584//777
f 497//777 572//777 586//777
f 576//777 497//777 595//777
f 590//1198 550//1073 596//1214
f 550//1073 579//1157 596//1214
f 550//1073 597//1217 591//1201
f 597//1217 550//1073 593//1208
f 567//777 598//777 527//1012
f 598//777 566//777 527//1012
f 570//777 599//777 528//1017
f 599//777 571//777 528//1017
f 573//777 600//777 497//777
f 600//777 572//777 497//777
f 576//777 601//777 497//777
f 601//777 567//777 497//777
f 583//777 603//777 528//1014
f 603//777 570//777 528//1014
f 564//777 602//777 528//1014
f 602//777 583//777 528//1014
f 571//777 604//777 497//777
f 604//777 584//777 497//777
f 585//777 605//777 527//1013
f 605//777 565//777 527//1013
f 574//777 606//777 527//1012
f 586//777 607//777 497//777
f 587//777 608//777 497//777
f 608//777 595//777 497//777
f 606//777 609//777 527//1012
f 609//777 585//777 527//1012
f 607//777 610//777 497//777
f 610//777 587//777 497//777
f 564//1097 568//1117 565//1102
f 565//1102 568//1117 569//1120
f 605//1242 569//1119 585//1182
f 585//1181 569//1119 582//1166
f 569//1119 605//1241 565//1105
f 602//1233 588//1194 564//1099
f 564//1098 588//1194 568//1116
f 588//1194 602//1232 583//1169
f 606//1244 594//1209 574//1141
f 574//1140 594//1209 581//1162
f 594//1209 606//1245 609//1254
f 598//1221 580//1158 567//1113
f 567//1113 580//1158 591//1203
f 580//1158 598//1220 566//1107
f 574//1139 581//1161 575//1144
f 575//1144 581//1161 580//1159
f 603//1236 578//1153 583//1171
f 583//1170 578//1153 588//1195
f 578//1153 603//1235 570//1123
f 599//1224 577//1150 570//1125
f 570//1124 577//1150 578//1154
f 604//1239 596//1215 571//1130
f 571//1129 596//1215 579//1156
f 596//1215 604//1238 584//1174
f 607//1247 589//1196 586//1185
f 586//1185 589//1196 590//1200
f 567//1114 591//1202 601//1229
f 601//1229 591//1202 597//1218
f 601//1230 597//1218 576//1149
f 600//1227 590//1199 573//1136
f 590//1199 596//1216 573//1135
f 590//1199 600//1226 572//1132
f 585//1180 582//1165 609//1253
f 609//1253 582//1165 594//1209
f 575//1146 580//1158 566//1108
f 571//1128 579//1155 599//1223
f 599//1223 579//1155 577//1150
f 587//1190 593//1206 610//1256
f 610//1256 593//1206 592//1204
f 610//1257 592//1204 607//1248
f 607//1247 592//1204 589//1196
f 597//1218 608//1250 595//1212
f 576//1148 597//1218 595//1213
f 608//1251 597//1218 587//1192
f 587//1191 597//1218 593//1207
f 596//1216 584//1177 573//1135
f 586//1187 590//1199 572//1133
